<mxfile host="app.diagrams.net" modified="2022-10-10T14:58:28.630Z" agent="5.0 (Windows NT 10.0; Win64; x64) AppleWebKit/537.36 (KHTML, like Gecko) Chrome/106.0.0.0 Safari/537.36 Edg/106.0.1370.37" etag="BxAtoy5ij0tHMmKg5AHo" version="20.4.0" type="github" pages="7">
  <diagram id="C7kw0wjYBPeGaaiy--RU" name="Page-1">
    <mxGraphModel dx="1422" dy="800" grid="1" gridSize="10" guides="1" tooltips="1" connect="1" arrows="1" fold="1" page="1" pageScale="1" pageWidth="850" pageHeight="1100" math="0" shadow="0">
      <root>
        <mxCell id="0" />
        <mxCell id="1" parent="0" />
        <mxCell id="Ow3Zx9yay3RTF0W0_1NS-1" value="" style="rounded=0;whiteSpace=wrap;html=1;" parent="1" vertex="1">
          <mxGeometry x="180" y="220" width="460" height="50" as="geometry" />
        </mxCell>
        <mxCell id="Ow3Zx9yay3RTF0W0_1NS-2" value="" style="endArrow=none;html=1;rounded=0;entryX=0.085;entryY=0.02;entryDx=0;entryDy=0;entryPerimeter=0;" parent="1" target="Ow3Zx9yay3RTF0W0_1NS-1" edge="1">
          <mxGeometry width="50" height="50" relative="1" as="geometry">
            <mxPoint x="219" y="270" as="sourcePoint" />
            <mxPoint x="450" y="280" as="targetPoint" />
          </mxGeometry>
        </mxCell>
        <mxCell id="Ow3Zx9yay3RTF0W0_1NS-3" value="" style="endArrow=none;html=1;rounded=0;entryX=0.174;entryY=0.02;entryDx=0;entryDy=0;entryPerimeter=0;exitX=0.176;exitY=0.98;exitDx=0;exitDy=0;exitPerimeter=0;" parent="1" source="Ow3Zx9yay3RTF0W0_1NS-1" target="Ow3Zx9yay3RTF0W0_1NS-1" edge="1">
          <mxGeometry width="50" height="50" relative="1" as="geometry">
            <mxPoint x="229" y="280" as="sourcePoint" />
            <mxPoint x="229.0999999999999" y="231" as="targetPoint" />
          </mxGeometry>
        </mxCell>
        <mxCell id="Ow3Zx9yay3RTF0W0_1NS-4" value="" style="endArrow=none;html=1;rounded=0;entryX=0.25;entryY=0;entryDx=0;entryDy=0;exitX=0.25;exitY=1;exitDx=0;exitDy=0;" parent="1" source="Ow3Zx9yay3RTF0W0_1NS-1" target="Ow3Zx9yay3RTF0W0_1NS-1" edge="1">
          <mxGeometry width="50" height="50" relative="1" as="geometry">
            <mxPoint x="239" y="290" as="sourcePoint" />
            <mxPoint x="239.0999999999999" y="241" as="targetPoint" />
          </mxGeometry>
        </mxCell>
        <mxCell id="Ow3Zx9yay3RTF0W0_1NS-5" value="" style="endArrow=none;html=1;rounded=0;entryX=0.839;entryY=0.02;entryDx=0;entryDy=0;entryPerimeter=0;exitX=0.837;exitY=1.04;exitDx=0;exitDy=0;exitPerimeter=0;" parent="1" source="Ow3Zx9yay3RTF0W0_1NS-1" target="Ow3Zx9yay3RTF0W0_1NS-1" edge="1">
          <mxGeometry width="50" height="50" relative="1" as="geometry">
            <mxPoint x="249" y="300" as="sourcePoint" />
            <mxPoint x="249.0999999999999" y="251" as="targetPoint" />
          </mxGeometry>
        </mxCell>
        <mxCell id="Ow3Zx9yay3RTF0W0_1NS-6" value="" style="endArrow=none;html=1;rounded=0;entryX=0.933;entryY=0;entryDx=0;entryDy=0;entryPerimeter=0;exitX=0.928;exitY=0.98;exitDx=0;exitDy=0;exitPerimeter=0;" parent="1" source="Ow3Zx9yay3RTF0W0_1NS-1" target="Ow3Zx9yay3RTF0W0_1NS-1" edge="1">
          <mxGeometry width="50" height="50" relative="1" as="geometry">
            <mxPoint x="259" y="310" as="sourcePoint" />
            <mxPoint x="259.0999999999999" y="261" as="targetPoint" />
          </mxGeometry>
        </mxCell>
        <mxCell id="Ow3Zx9yay3RTF0W0_1NS-7" value="0&lt;span style=&quot;white-space: pre;&quot;&gt; &lt;/span&gt;1&lt;span style=&quot;white-space: pre;&quot;&gt; &lt;/span&gt;2" style="text;html=1;strokeColor=none;fillColor=none;align=center;verticalAlign=middle;whiteSpace=wrap;rounded=0;" parent="1" vertex="1">
          <mxGeometry x="170" y="280" width="140" height="30" as="geometry" />
        </mxCell>
        <mxCell id="Ow3Zx9yay3RTF0W0_1NS-9" value="9" style="text;html=1;strokeColor=none;fillColor=none;align=center;verticalAlign=middle;whiteSpace=wrap;rounded=0;" parent="1" vertex="1">
          <mxGeometry x="590" y="280" width="60" height="30" as="geometry" />
        </mxCell>
        <mxCell id="Ow3Zx9yay3RTF0W0_1NS-10" value="" style="rounded=0;whiteSpace=wrap;html=1;" parent="1" vertex="1">
          <mxGeometry x="180" y="100" width="40" height="60" as="geometry" />
        </mxCell>
        <mxCell id="Ow3Zx9yay3RTF0W0_1NS-11" value="" style="rounded=0;whiteSpace=wrap;html=1;" parent="1" vertex="1">
          <mxGeometry x="180" width="40" height="60" as="geometry" />
        </mxCell>
        <mxCell id="Ow3Zx9yay3RTF0W0_1NS-12" value="" style="rounded=0;whiteSpace=wrap;html=1;" parent="1" vertex="1">
          <mxGeometry x="260" y="120" width="40" height="60" as="geometry" />
        </mxCell>
        <mxCell id="Ow3Zx9yay3RTF0W0_1NS-13" value="" style="rounded=0;whiteSpace=wrap;html=1;" parent="1" vertex="1">
          <mxGeometry x="560" y="130" width="40" height="60" as="geometry" />
        </mxCell>
        <mxCell id="Ow3Zx9yay3RTF0W0_1NS-14" value="" style="endArrow=classic;html=1;rounded=0;entryX=0.044;entryY=0.031;entryDx=0;entryDy=0;entryPerimeter=0;exitX=0.5;exitY=1;exitDx=0;exitDy=0;" parent="1" source="Ow3Zx9yay3RTF0W0_1NS-10" target="Ow3Zx9yay3RTF0W0_1NS-1" edge="1">
          <mxGeometry width="50" height="50" relative="1" as="geometry">
            <mxPoint x="380" y="190" as="sourcePoint" />
            <mxPoint x="430" y="140" as="targetPoint" />
          </mxGeometry>
        </mxCell>
        <mxCell id="Ow3Zx9yay3RTF0W0_1NS-17" value="" style="endArrow=classic;html=1;rounded=0;exitX=0.5;exitY=1;exitDx=0;exitDy=0;" parent="1" source="Ow3Zx9yay3RTF0W0_1NS-11" edge="1">
          <mxGeometry width="50" height="50" relative="1" as="geometry">
            <mxPoint x="210" y="190" as="sourcePoint" />
            <mxPoint x="200" y="100" as="targetPoint" />
          </mxGeometry>
        </mxCell>
        <mxCell id="Ow3Zx9yay3RTF0W0_1NS-18" value="" style="endArrow=classic;html=1;rounded=0;entryX=0.217;entryY=-0.015;entryDx=0;entryDy=0;entryPerimeter=0;exitX=0.5;exitY=1;exitDx=0;exitDy=0;" parent="1" source="Ow3Zx9yay3RTF0W0_1NS-12" target="Ow3Zx9yay3RTF0W0_1NS-1" edge="1">
          <mxGeometry width="50" height="50" relative="1" as="geometry">
            <mxPoint x="220" y="180" as="sourcePoint" />
            <mxPoint x="220.24" y="241.54999999999995" as="targetPoint" />
          </mxGeometry>
        </mxCell>
        <mxCell id="Ow3Zx9yay3RTF0W0_1NS-19" value="" style="endArrow=classic;html=1;rounded=0;entryX=0.872;entryY=-0.046;entryDx=0;entryDy=0;entryPerimeter=0;exitX=0.5;exitY=1;exitDx=0;exitDy=0;" parent="1" source="Ow3Zx9yay3RTF0W0_1NS-13" target="Ow3Zx9yay3RTF0W0_1NS-1" edge="1">
          <mxGeometry width="50" height="50" relative="1" as="geometry">
            <mxPoint x="230" y="190" as="sourcePoint" />
            <mxPoint x="230.24" y="251.54999999999995" as="targetPoint" />
          </mxGeometry>
        </mxCell>
        <mxCell id="Ow3Zx9yay3RTF0W0_1NS-21" value="" style="endArrow=classic;html=1;rounded=0;entryX=0;entryY=0.5;entryDx=0;entryDy=0;" parent="1" target="Ow3Zx9yay3RTF0W0_1NS-1" edge="1">
          <mxGeometry width="50" height="50" relative="1" as="geometry">
            <mxPoint x="120" y="300" as="sourcePoint" />
            <mxPoint x="430" y="150" as="targetPoint" />
          </mxGeometry>
        </mxCell>
        <mxCell id="Ow3Zx9yay3RTF0W0_1NS-22" value="Linked List" style="text;html=1;strokeColor=none;fillColor=none;align=center;verticalAlign=middle;whiteSpace=wrap;rounded=0;" parent="1" vertex="1">
          <mxGeometry x="40" y="110" width="120" height="30" as="geometry" />
        </mxCell>
        <mxCell id="Ow3Zx9yay3RTF0W0_1NS-23" value="filterArray" style="text;html=1;strokeColor=none;fillColor=none;align=center;verticalAlign=middle;whiteSpace=wrap;rounded=0;" parent="1" vertex="1">
          <mxGeometry x="340" y="330" width="120" height="30" as="geometry" />
        </mxCell>
        <mxCell id="Ow3Zx9yay3RTF0W0_1NS-24" value="" style="shape=curlyBracket;whiteSpace=wrap;html=1;rounded=1;" parent="1" vertex="1">
          <mxGeometry x="140" y="20" width="20" height="190" as="geometry" />
        </mxCell>
        <mxCell id="Ow3Zx9yay3RTF0W0_1NS-25" value="Array" style="text;html=1;strokeColor=none;fillColor=none;align=center;verticalAlign=middle;whiteSpace=wrap;rounded=0;" parent="1" vertex="1">
          <mxGeometry x="40" y="300" width="120" height="30" as="geometry" />
        </mxCell>
      </root>
    </mxGraphModel>
  </diagram>
  <diagram id="J-VDjiN2pKun_2ss7tvN" name="Page-2">
    <mxGraphModel dx="1449" dy="1770" grid="1" gridSize="10" guides="1" tooltips="1" connect="1" arrows="1" fold="1" page="1" pageScale="1" pageWidth="850" pageHeight="1100" math="0" shadow="0">
      <root>
        <mxCell id="0" />
        <mxCell id="1" parent="0" />
        <mxCell id="3SuhqiHn1W2k1_at40CN-24" value="" style="rounded=0;whiteSpace=wrap;html=1;" parent="1" vertex="1">
          <mxGeometry x="780" y="-55" width="100" height="90" as="geometry" />
        </mxCell>
        <mxCell id="3SuhqiHn1W2k1_at40CN-11" value="Trigger CI job" style="edgeStyle=orthogonalEdgeStyle;rounded=0;orthogonalLoop=1;jettySize=auto;html=1;exitX=1;exitY=0.5;exitDx=0;exitDy=0;" parent="1" source="3SuhqiHn1W2k1_at40CN-5" edge="1">
          <mxGeometry relative="1" as="geometry">
            <mxPoint x="440" y="-10.043478260869506" as="targetPoint" />
          </mxGeometry>
        </mxCell>
        <mxCell id="3SuhqiHn1W2k1_at40CN-5" value="" style="rounded=0;whiteSpace=wrap;html=1;" parent="1" vertex="1">
          <mxGeometry x="40" y="-60" width="130" height="100" as="geometry" />
        </mxCell>
        <mxCell id="3SuhqiHn1W2k1_at40CN-4" value="- Git commit&lt;br&gt;- Git tag" style="edgeStyle=orthogonalEdgeStyle;rounded=0;orthogonalLoop=1;jettySize=auto;html=1;" parent="1" source="3SuhqiHn1W2k1_at40CN-1" target="3SuhqiHn1W2k1_at40CN-6" edge="1">
          <mxGeometry relative="1" as="geometry" />
        </mxCell>
        <mxCell id="3SuhqiHn1W2k1_at40CN-1" value="&lt;b&gt;Dev&lt;/b&gt;" style="sketch=0;outlineConnect=0;fontColor=#232F3E;gradientColor=none;fillColor=#232F3D;strokeColor=none;dashed=0;verticalLabelPosition=bottom;verticalAlign=top;align=center;html=1;fontSize=12;fontStyle=0;aspect=fixed;pointerEvents=1;shape=mxgraph.aws4.client;" parent="1" vertex="1">
          <mxGeometry x="69.08" y="230" width="71.85" height="70" as="geometry" />
        </mxCell>
        <mxCell id="3SuhqiHn1W2k1_at40CN-2" value="" style="shape=image;html=1;verticalAlign=top;verticalLabelPosition=bottom;labelBackgroundColor=#ffffff;imageAspect=0;aspect=fixed;image=https://cdn4.iconfinder.com/data/icons/socialcones/508/Gitlab-128.png" parent="1" vertex="1">
          <mxGeometry x="60" y="-55" width="90" height="90" as="geometry" />
        </mxCell>
        <mxCell id="3SuhqiHn1W2k1_at40CN-6" value="&lt;b&gt;Gitlab Server&lt;/b&gt;" style="text;html=1;align=center;verticalAlign=middle;resizable=0;points=[];autosize=1;strokeColor=none;fillColor=none;" parent="1" vertex="1">
          <mxGeometry x="55" y="50" width="100" height="30" as="geometry" />
        </mxCell>
        <mxCell id="3SuhqiHn1W2k1_at40CN-25" value="Push" style="edgeStyle=orthogonalEdgeStyle;rounded=0;orthogonalLoop=1;jettySize=auto;html=1;exitX=1;exitY=0.5;exitDx=0;exitDy=0;" parent="1" source="3SuhqiHn1W2k1_at40CN-12" edge="1">
          <mxGeometry relative="1" as="geometry">
            <mxPoint x="770" y="-10" as="targetPoint" />
            <Array as="points">
              <mxPoint x="767" y="-10" />
            </Array>
          </mxGeometry>
        </mxCell>
        <mxCell id="3SuhqiHn1W2k1_at40CN-12" value="" style="rounded=0;whiteSpace=wrap;html=1;" parent="1" vertex="1">
          <mxGeometry x="440" y="-60" width="130" height="100" as="geometry" />
        </mxCell>
        <mxCell id="3SuhqiHn1W2k1_at40CN-13" value="" style="shape=image;html=1;verticalAlign=top;verticalLabelPosition=bottom;labelBackgroundColor=#ffffff;imageAspect=0;aspect=fixed;image=https://cdn4.iconfinder.com/data/icons/socialcones/508/Gitlab-128.png" parent="1" vertex="1">
          <mxGeometry x="460" y="-55" width="90" height="90" as="geometry" />
        </mxCell>
        <mxCell id="3wBPDf1KkYxPPHOErITJ-2" style="edgeStyle=orthogonalEdgeStyle;rounded=0;orthogonalLoop=1;jettySize=auto;html=1;" edge="1" parent="1" source="3SuhqiHn1W2k1_at40CN-14">
          <mxGeometry relative="1" as="geometry">
            <mxPoint x="530" y="190" as="targetPoint" />
            <Array as="points">
              <mxPoint x="530" y="190" />
            </Array>
          </mxGeometry>
        </mxCell>
        <mxCell id="3SuhqiHn1W2k1_at40CN-14" value="&lt;b&gt;Gitlab Runner&lt;/b&gt;" style="text;html=1;align=center;verticalAlign=middle;resizable=0;points=[];autosize=1;strokeColor=none;fillColor=none;" parent="1" vertex="1">
          <mxGeometry x="460" y="50" width="100" height="30" as="geometry" />
        </mxCell>
        <mxCell id="3SuhqiHn1W2k1_at40CN-15" value="" style="shape=image;html=1;verticalAlign=top;verticalLabelPosition=bottom;labelBackgroundColor=#ffffff;imageAspect=0;aspect=fixed;image=https://cdn4.iconfinder.com/data/icons/sports-outline-24-px/24/Fast_footwear_forward_runner_shoe_speed_-128.png" parent="1" vertex="1">
          <mxGeometry x="530" width="40" height="40" as="geometry" />
        </mxCell>
        <mxCell id="3SuhqiHn1W2k1_at40CN-17" value="" style="whiteSpace=wrap;html=1;shape=mxgraph.basic.document" parent="1" vertex="1">
          <mxGeometry x="455" y="200" width="100" height="100" as="geometry" />
        </mxCell>
        <mxCell id="3SuhqiHn1W2k1_at40CN-16" value="" style="sketch=0;aspect=fixed;html=1;points=[];align=center;image;fontSize=12;image=img/lib/mscae/Docker.svg;" parent="1" vertex="1">
          <mxGeometry x="468.40999999999997" y="220" width="73.18" height="60" as="geometry" />
        </mxCell>
        <mxCell id="3SuhqiHn1W2k1_at40CN-19" value="Get Dockerfile" style="text;html=1;align=center;verticalAlign=middle;resizable=0;points=[];autosize=1;strokeColor=none;fillColor=none;" parent="1" vertex="1">
          <mxGeometry x="530" y="120" width="100" height="30" as="geometry" />
        </mxCell>
        <mxCell id="3SuhqiHn1W2k1_at40CN-21" value="Docker build" style="text;html=1;align=center;verticalAlign=middle;resizable=0;points=[];autosize=1;strokeColor=none;fillColor=none;" parent="1" vertex="1">
          <mxGeometry x="415" y="115" width="90" height="30" as="geometry" />
        </mxCell>
        <mxCell id="3SuhqiHn1W2k1_at40CN-22" value="&lt;b&gt;Dockerfile&lt;/b&gt;" style="text;html=1;align=center;verticalAlign=middle;resizable=0;points=[];autosize=1;strokeColor=none;fillColor=none;" parent="1" vertex="1">
          <mxGeometry x="468.41" y="310" width="80" height="30" as="geometry" />
        </mxCell>
        <mxCell id="3SuhqiHn1W2k1_at40CN-26" value="&lt;b&gt;Harbor&lt;/b&gt;" style="text;html=1;align=center;verticalAlign=middle;resizable=0;points=[];autosize=1;strokeColor=none;fillColor=none;" parent="1" vertex="1">
          <mxGeometry x="800" y="50" width="60" height="30" as="geometry" />
        </mxCell>
        <mxCell id="o1w-Pmb6qfxlwzhvj8VL-1" value="" style="shape=image;verticalLabelPosition=bottom;labelBackgroundColor=default;verticalAlign=top;aspect=fixed;imageAspect=0;image=https://goharbor.io/img/logos/harbor-icon-color.png;" vertex="1" parent="1">
          <mxGeometry x="790" y="-50" width="80" height="80" as="geometry" />
        </mxCell>
        <mxCell id="o1w-Pmb6qfxlwzhvj8VL-2" value="" style="html=1;labelBackgroundColor=#ffffff;startArrow=none;startFill=0;startSize=6;endArrow=classic;endFill=1;endSize=6;jettySize=auto;orthogonalLoop=1;strokeWidth=1;dashed=1;fontSize=14;rounded=0;entryX=0.867;entryY=1.013;entryDx=0;entryDy=0;entryPerimeter=0;" edge="1" parent="1" target="3SuhqiHn1W2k1_at40CN-5">
          <mxGeometry width="60" height="60" relative="1" as="geometry">
            <mxPoint x="450" y="230" as="sourcePoint" />
            <mxPoint x="570" y="100" as="targetPoint" />
            <Array as="points">
              <mxPoint x="153" y="230" />
            </Array>
          </mxGeometry>
        </mxCell>
        <mxCell id="o1w-Pmb6qfxlwzhvj8VL-4" value="" style="endArrow=classic;html=1;rounded=0;entryX=0.448;entryY=1.107;entryDx=0;entryDy=0;entryPerimeter=0;" edge="1" parent="1" target="3SuhqiHn1W2k1_at40CN-14">
          <mxGeometry width="50" height="50" relative="1" as="geometry">
            <mxPoint x="505" y="180" as="sourcePoint" />
            <mxPoint x="550" y="140" as="targetPoint" />
          </mxGeometry>
        </mxCell>
        <mxCell id="o1w-Pmb6qfxlwzhvj8VL-6" value="&lt;b&gt;Dev&lt;/b&gt;" style="sketch=0;outlineConnect=0;fontColor=#232F3E;gradientColor=none;fillColor=#232F3D;strokeColor=none;dashed=0;verticalLabelPosition=bottom;verticalAlign=top;align=center;html=1;fontSize=12;fontStyle=0;aspect=fixed;pointerEvents=1;shape=mxgraph.aws4.client;" vertex="1" parent="1">
          <mxGeometry x="78.14999999999999" y="645" width="71.85" height="70" as="geometry" />
        </mxCell>
        <mxCell id="o1w-Pmb6qfxlwzhvj8VL-9" value="" style="rounded=0;whiteSpace=wrap;html=1;" vertex="1" parent="1">
          <mxGeometry x="375" y="630" width="130" height="100" as="geometry" />
        </mxCell>
        <mxCell id="o1w-Pmb6qfxlwzhvj8VL-10" value="Gitlab server" style="shape=image;html=1;verticalAlign=top;verticalLabelPosition=bottom;labelBackgroundColor=#ffffff;imageAspect=0;aspect=fixed;image=https://cdn4.iconfinder.com/data/icons/socialcones/508/Gitlab-128.png" vertex="1" parent="1">
          <mxGeometry x="395" y="635" width="90" height="90" as="geometry" />
        </mxCell>
        <mxCell id="o1w-Pmb6qfxlwzhvj8VL-11" value="" style="rounded=0;whiteSpace=wrap;html=1;" vertex="1" parent="1">
          <mxGeometry x="750" y="630" width="130" height="100" as="geometry" />
        </mxCell>
        <mxCell id="o1w-Pmb6qfxlwzhvj8VL-12" value="Gitlab runner" style="shape=image;html=1;verticalAlign=top;verticalLabelPosition=bottom;labelBackgroundColor=#ffffff;imageAspect=0;aspect=fixed;image=https://cdn4.iconfinder.com/data/icons/socialcones/508/Gitlab-128.png" vertex="1" parent="1">
          <mxGeometry x="770" y="635" width="90" height="90" as="geometry" />
        </mxCell>
        <mxCell id="o1w-Pmb6qfxlwzhvj8VL-13" value="" style="shape=image;html=1;verticalAlign=top;verticalLabelPosition=bottom;labelBackgroundColor=#ffffff;imageAspect=0;aspect=fixed;image=https://cdn4.iconfinder.com/data/icons/sports-outline-24-px/24/Fast_footwear_forward_runner_shoe_speed_-128.png" vertex="1" parent="1">
          <mxGeometry x="840" y="690" width="40" height="40" as="geometry" />
        </mxCell>
        <mxCell id="o1w-Pmb6qfxlwzhvj8VL-14" value="" style="rounded=0;whiteSpace=wrap;html=1;" vertex="1" parent="1">
          <mxGeometry x="1170" y="635" width="100" height="90" as="geometry" />
        </mxCell>
        <mxCell id="o1w-Pmb6qfxlwzhvj8VL-15" value="" style="shape=image;verticalLabelPosition=bottom;labelBackgroundColor=default;verticalAlign=top;aspect=fixed;imageAspect=0;image=https://goharbor.io/img/logos/harbor-icon-color.png;" vertex="1" parent="1">
          <mxGeometry x="1180" y="640" width="80" height="80" as="geometry" />
        </mxCell>
        <mxCell id="o1w-Pmb6qfxlwzhvj8VL-17" value="" style="endArrow=none;dashed=1;html=1;rounded=0;startArrow=none;" edge="1" parent="1">
          <mxGeometry width="50" height="50" relative="1" as="geometry">
            <mxPoint x="440" y="1340" as="sourcePoint" />
            <mxPoint x="440" y="770" as="targetPoint" />
          </mxGeometry>
        </mxCell>
        <mxCell id="o1w-Pmb6qfxlwzhvj8VL-18" value="" style="endArrow=none;dashed=1;html=1;rounded=0;" edge="1" parent="1">
          <mxGeometry width="50" height="50" relative="1" as="geometry">
            <mxPoint x="113.57999999999998" y="1330" as="sourcePoint" />
            <mxPoint x="113.57999999999998" y="770" as="targetPoint" />
          </mxGeometry>
        </mxCell>
        <mxCell id="o1w-Pmb6qfxlwzhvj8VL-20" value="" style="endArrow=none;dashed=1;html=1;rounded=0;startArrow=none;" edge="1" parent="1">
          <mxGeometry width="50" height="50" relative="1" as="geometry">
            <mxPoint x="815.07" y="1330" as="sourcePoint" />
            <mxPoint x="814.57" y="760" as="targetPoint" />
          </mxGeometry>
        </mxCell>
        <mxCell id="o1w-Pmb6qfxlwzhvj8VL-21" value="" style="endArrow=none;dashed=1;html=1;rounded=0;" edge="1" parent="1">
          <mxGeometry width="50" height="50" relative="1" as="geometry">
            <mxPoint x="1219.5" y="1320" as="sourcePoint" />
            <mxPoint x="1219.5" y="760" as="targetPoint" />
          </mxGeometry>
        </mxCell>
        <mxCell id="o1w-Pmb6qfxlwzhvj8VL-24" value="(1) git commit &amp;amp; git tag" style="edgeStyle=orthogonalEdgeStyle;fontSize=12;html=1;endArrow=blockThin;endFill=1;rounded=0;strokeWidth=2;endSize=4;startSize=4;dashed=0;strokeColor=#4284F3;" edge="1" parent="1">
          <mxGeometry width="100" relative="1" as="geometry">
            <mxPoint x="120" y="800" as="sourcePoint" />
            <mxPoint x="430" y="800" as="targetPoint" />
          </mxGeometry>
        </mxCell>
        <mxCell id="o1w-Pmb6qfxlwzhvj8VL-35" value="(2) If exists .gitlab-ci.yml&lt;br&gt;Trigger GitlabCI&amp;nbsp;" style="edgeStyle=orthogonalEdgeStyle;fontSize=12;html=1;endArrow=blockThin;endFill=1;rounded=0;strokeWidth=2;endSize=4;startSize=4;dashed=0;strokeColor=#4284F3;" edge="1" parent="1">
          <mxGeometry width="100" relative="1" as="geometry">
            <mxPoint x="450" y="800" as="sourcePoint" />
            <mxPoint x="810" y="800" as="targetPoint" />
          </mxGeometry>
        </mxCell>
        <mxCell id="o1w-Pmb6qfxlwzhvj8VL-38" value="" style="endArrow=none;dashed=1;html=1;rounded=0;" edge="1" parent="1">
          <mxGeometry width="50" height="50" relative="1" as="geometry">
            <mxPoint x="440" y="1330" as="sourcePoint" />
            <mxPoint x="440" y="1330" as="targetPoint" />
          </mxGeometry>
        </mxCell>
        <mxCell id="o1w-Pmb6qfxlwzhvj8VL-42" value="" style="endArrow=none;dashed=1;html=1;rounded=0;" edge="1" parent="1">
          <mxGeometry width="50" height="50" relative="1" as="geometry">
            <mxPoint x="814.5" y="1320" as="sourcePoint" />
            <mxPoint x="814.5000000000005" y="1320" as="targetPoint" />
          </mxGeometry>
        </mxCell>
        <mxCell id="o1w-Pmb6qfxlwzhvj8VL-45" value="(3) Get Dockerfile from Gitlab repo" style="edgeStyle=orthogonalEdgeStyle;fontSize=12;html=1;endArrow=blockThin;endFill=1;rounded=0;strokeWidth=2;endSize=4;startSize=4;dashed=0;strokeColor=#4284F3;" edge="1" parent="1">
          <mxGeometry x="0.027" width="100" relative="1" as="geometry">
            <mxPoint x="810" y="850" as="sourcePoint" />
            <mxPoint x="440" y="850" as="targetPoint" />
            <Array as="points">
              <mxPoint x="630" y="850" />
              <mxPoint x="630" y="850" />
            </Array>
            <mxPoint as="offset" />
          </mxGeometry>
        </mxCell>
        <mxCell id="o1w-Pmb6qfxlwzhvj8VL-47" value="(5) Push docker image to Harbor" style="edgeStyle=orthogonalEdgeStyle;fontSize=12;html=1;endArrow=blockThin;endFill=1;rounded=0;strokeWidth=2;endSize=4;startSize=4;dashed=0;strokeColor=#4284F3;" edge="1" parent="1">
          <mxGeometry width="100" relative="1" as="geometry">
            <mxPoint x="820" y="930" as="sourcePoint" />
            <mxPoint x="1220" y="930" as="targetPoint" />
          </mxGeometry>
        </mxCell>
        <mxCell id="o1w-Pmb6qfxlwzhvj8VL-48" value="Pull docker image" style="edgeStyle=orthogonalEdgeStyle;fontSize=12;html=1;endArrow=blockThin;endFill=1;rounded=0;strokeWidth=2;endSize=4;startSize=4;dashed=0;strokeColor=#9E9E9E;" edge="1" parent="1">
          <mxGeometry width="100" relative="1" as="geometry">
            <mxPoint x="1220" y="990.04" as="sourcePoint" />
            <mxPoint x="120" y="990.04" as="targetPoint" />
            <Array as="points">
              <mxPoint x="530" y="990.04" />
            </Array>
          </mxGeometry>
        </mxCell>
        <mxCell id="o1w-Pmb6qfxlwzhvj8VL-51" value="(4) Build Dockerfile" style="edgeStyle=orthogonalEdgeStyle;fontSize=12;html=1;endArrow=blockThin;endFill=1;rounded=0;strokeWidth=2;endSize=4;startSize=4;dashed=0;strokeColor=#4284F3;" edge="1" parent="1">
          <mxGeometry x="-0.0769" y="60" width="100" relative="1" as="geometry">
            <mxPoint x="820" y="870" as="sourcePoint" />
            <mxPoint x="820" y="900" as="targetPoint" />
            <Array as="points">
              <mxPoint x="870" y="870" />
              <mxPoint x="870" y="900" />
            </Array>
            <mxPoint as="offset" />
          </mxGeometry>
        </mxCell>
        <mxCell id="o1w-Pmb6qfxlwzhvj8VL-57" style="edgeStyle=orthogonalEdgeStyle;rounded=0;orthogonalLoop=1;jettySize=auto;html=1;exitX=1;exitY=0.5;exitDx=0;exitDy=0;entryX=0;entryY=0.5;entryDx=0;entryDy=0;" edge="1" parent="1" source="o1w-Pmb6qfxlwzhvj8VL-53" target="o1w-Pmb6qfxlwzhvj8VL-54">
          <mxGeometry relative="1" as="geometry" />
        </mxCell>
        <mxCell id="o1w-Pmb6qfxlwzhvj8VL-53" value="Other jobs" style="ellipse;whiteSpace=wrap;html=1;aspect=fixed;" vertex="1" parent="1">
          <mxGeometry x="130" y="1510" width="80" height="80" as="geometry" />
        </mxCell>
        <mxCell id="o1w-Pmb6qfxlwzhvj8VL-58" style="edgeStyle=orthogonalEdgeStyle;rounded=0;orthogonalLoop=1;jettySize=auto;html=1;exitX=1;exitY=0.5;exitDx=0;exitDy=0;entryX=0;entryY=0.5;entryDx=0;entryDy=0;" edge="1" parent="1" source="o1w-Pmb6qfxlwzhvj8VL-54" target="o1w-Pmb6qfxlwzhvj8VL-55">
          <mxGeometry relative="1" as="geometry" />
        </mxCell>
        <mxCell id="o1w-Pmb6qfxlwzhvj8VL-54" value="build-docker" style="ellipse;whiteSpace=wrap;html=1;aspect=fixed;" vertex="1" parent="1">
          <mxGeometry x="295" y="1510" width="80" height="80" as="geometry" />
        </mxCell>
        <mxCell id="o1w-Pmb6qfxlwzhvj8VL-59" style="edgeStyle=orthogonalEdgeStyle;rounded=0;orthogonalLoop=1;jettySize=auto;html=1;exitX=1;exitY=0.5;exitDx=0;exitDy=0;entryX=0;entryY=0.5;entryDx=0;entryDy=0;" edge="1" parent="1" source="o1w-Pmb6qfxlwzhvj8VL-55" target="o1w-Pmb6qfxlwzhvj8VL-56">
          <mxGeometry relative="1" as="geometry" />
        </mxCell>
        <mxCell id="o1w-Pmb6qfxlwzhvj8VL-55" value="push-docker" style="ellipse;whiteSpace=wrap;html=1;aspect=fixed;" vertex="1" parent="1">
          <mxGeometry x="455" y="1510" width="80" height="80" as="geometry" />
        </mxCell>
        <mxCell id="o1w-Pmb6qfxlwzhvj8VL-56" value="Exit" style="ellipse;whiteSpace=wrap;html=1;aspect=fixed;" vertex="1" parent="1">
          <mxGeometry x="610" y="1510" width="80" height="80" as="geometry" />
        </mxCell>
        <mxCell id="o1w-Pmb6qfxlwzhvj8VL-67" style="edgeStyle=orthogonalEdgeStyle;rounded=0;orthogonalLoop=1;jettySize=auto;html=1;exitX=0.5;exitY=0;exitDx=0;exitDy=0;entryX=0.5;entryY=0;entryDx=0;entryDy=0;" edge="1" parent="1" source="o1w-Pmb6qfxlwzhvj8VL-61" target="o1w-Pmb6qfxlwzhvj8VL-66">
          <mxGeometry relative="1" as="geometry" />
        </mxCell>
        <mxCell id="o1w-Pmb6qfxlwzhvj8VL-61" value="Other jobs" style="ellipse;whiteSpace=wrap;html=1;aspect=fixed;" vertex="1" parent="1">
          <mxGeometry x="120" y="1729.96" width="80" height="80" as="geometry" />
        </mxCell>
        <mxCell id="o1w-Pmb6qfxlwzhvj8VL-62" style="edgeStyle=orthogonalEdgeStyle;rounded=0;orthogonalLoop=1;jettySize=auto;html=1;exitX=1;exitY=0.5;exitDx=0;exitDy=0;entryX=0;entryY=0.5;entryDx=0;entryDy=0;" edge="1" parent="1" source="o1w-Pmb6qfxlwzhvj8VL-63" target="o1w-Pmb6qfxlwzhvj8VL-65">
          <mxGeometry relative="1" as="geometry" />
        </mxCell>
        <mxCell id="o1w-Pmb6qfxlwzhvj8VL-63" value="build-docker" style="ellipse;whiteSpace=wrap;html=1;aspect=fixed;" vertex="1" parent="1">
          <mxGeometry x="285" y="1729.96" width="80" height="80" as="geometry" />
        </mxCell>
        <mxCell id="o1w-Pmb6qfxlwzhvj8VL-65" value="push-docker" style="ellipse;whiteSpace=wrap;html=1;aspect=fixed;" vertex="1" parent="1">
          <mxGeometry x="445" y="1729.96" width="80" height="80" as="geometry" />
        </mxCell>
        <mxCell id="o1w-Pmb6qfxlwzhvj8VL-66" value="Exit" style="ellipse;whiteSpace=wrap;html=1;aspect=fixed;" vertex="1" parent="1">
          <mxGeometry x="600" y="1729.96" width="80" height="80" as="geometry" />
        </mxCell>
        <mxCell id="o1w-Pmb6qfxlwzhvj8VL-69" value="With release&amp;nbsp;&lt;b&gt;&#39;tag&#39;&lt;/b&gt;" style="text;html=1;align=center;verticalAlign=middle;resizable=0;points=[];autosize=1;strokeColor=none;fillColor=none;" vertex="1" parent="1">
          <mxGeometry x="320" y="1610" width="120" height="30" as="geometry" />
        </mxCell>
        <mxCell id="o1w-Pmb6qfxlwzhvj8VL-70" value="Without release &lt;b&gt;&#39;tag&#39;&lt;/b&gt;" style="text;html=1;align=center;verticalAlign=middle;resizable=0;points=[];autosize=1;strokeColor=none;fillColor=none;" vertex="1" parent="1">
          <mxGeometry x="310" y="1830" width="130" height="30" as="geometry" />
        </mxCell>
      </root>
    </mxGraphModel>
  </diagram>
  <diagram id="Qi_PVttKPw_m6TWas6-b" name="Page-3">
    <mxGraphModel dx="2272" dy="1900" grid="1" gridSize="10" guides="1" tooltips="1" connect="1" arrows="1" fold="1" page="1" pageScale="1" pageWidth="850" pageHeight="1100" math="0" shadow="0">
      <root>
        <mxCell id="0" />
        <mxCell id="1" parent="0" />
        <mxCell id="u5vIHBIE0b2SrZS-hyAQ-9" value="Request record (1)" style="edgeStyle=orthogonalEdgeStyle;rounded=0;orthogonalLoop=1;jettySize=auto;html=1;exitX=0.5;exitY=0;exitDx=0;exitDy=0;entryX=0;entryY=0.5;entryDx=0;entryDy=0;" parent="1" source="u5vIHBIE0b2SrZS-hyAQ-1" target="u5vIHBIE0b2SrZS-hyAQ-6" edge="1">
          <mxGeometry relative="1" as="geometry" />
        </mxCell>
        <mxCell id="u5vIHBIE0b2SrZS-hyAQ-10" value="Failed to request record" style="edgeStyle=orthogonalEdgeStyle;rounded=0;orthogonalLoop=1;jettySize=auto;html=1;entryX=0.5;entryY=1;entryDx=0;entryDy=0;" parent="1" source="u5vIHBIE0b2SrZS-hyAQ-1" target="u5vIHBIE0b2SrZS-hyAQ-4" edge="1">
          <mxGeometry relative="1" as="geometry" />
        </mxCell>
        <mxCell id="u5vIHBIE0b2SrZS-hyAQ-1" value="Clients" style="rounded=0;whiteSpace=wrap;html=1;" parent="1" vertex="1">
          <mxGeometry x="150" y="260" width="120" height="60" as="geometry" />
        </mxCell>
        <mxCell id="u5vIHBIE0b2SrZS-hyAQ-4" value="Failed" style="ellipse;whiteSpace=wrap;html=1;" parent="1" vertex="1">
          <mxGeometry x="-50" y="65" width="70" height="70" as="geometry" />
        </mxCell>
        <mxCell id="u5vIHBIE0b2SrZS-hyAQ-8" value="Reject record" style="edgeStyle=orthogonalEdgeStyle;rounded=0;orthogonalLoop=1;jettySize=auto;html=1;exitX=0.5;exitY=0;exitDx=0;exitDy=0;entryX=0.5;entryY=0;entryDx=0;entryDy=0;" parent="1" source="u5vIHBIE0b2SrZS-hyAQ-6" target="u5vIHBIE0b2SrZS-hyAQ-4" edge="1">
          <mxGeometry relative="1" as="geometry" />
        </mxCell>
        <mxCell id="u5vIHBIE0b2SrZS-hyAQ-11" value="Model record (2)" style="edgeStyle=orthogonalEdgeStyle;rounded=0;orthogonalLoop=1;jettySize=auto;html=1;exitX=1;exitY=0.5;exitDx=0;exitDy=0;" parent="1" source="u5vIHBIE0b2SrZS-hyAQ-6" target="u5vIHBIE0b2SrZS-hyAQ-12" edge="1">
          <mxGeometry relative="1" as="geometry">
            <mxPoint x="720" y="100" as="targetPoint" />
          </mxGeometry>
        </mxCell>
        <mxCell id="u5vIHBIE0b2SrZS-hyAQ-6" value="Blockchain" style="rounded=0;whiteSpace=wrap;html=1;" parent="1" vertex="1">
          <mxGeometry x="490" y="70" width="120" height="60" as="geometry" />
        </mxCell>
        <mxCell id="u5vIHBIE0b2SrZS-hyAQ-16" value="(3) Client model" style="edgeStyle=orthogonalEdgeStyle;rounded=0;orthogonalLoop=1;jettySize=auto;html=1;exitX=0.5;exitY=1;exitDx=0;exitDy=0;entryX=1;entryY=0.5;entryDx=0;entryDy=0;" parent="1" source="u5vIHBIE0b2SrZS-hyAQ-12" target="u5vIHBIE0b2SrZS-hyAQ-13" edge="1">
          <mxGeometry relative="1" as="geometry" />
        </mxCell>
        <mxCell id="u5vIHBIE0b2SrZS-hyAQ-18" value="Failed record" style="edgeStyle=orthogonalEdgeStyle;rounded=0;orthogonalLoop=1;jettySize=auto;html=1;entryX=0;entryY=0;entryDx=0;entryDy=0;" parent="1" source="u5vIHBIE0b2SrZS-hyAQ-12" target="u5vIHBIE0b2SrZS-hyAQ-4" edge="1">
          <mxGeometry relative="1" as="geometry">
            <Array as="points">
              <mxPoint x="790" />
              <mxPoint x="-40" />
            </Array>
          </mxGeometry>
        </mxCell>
        <mxCell id="u5vIHBIE0b2SrZS-hyAQ-12" value="Record storage" style="rounded=0;whiteSpace=wrap;html=1;" parent="1" vertex="1">
          <mxGeometry x="730" y="70" width="120" height="60" as="geometry" />
        </mxCell>
        <mxCell id="u5vIHBIE0b2SrZS-hyAQ-14" value="High accuracy model (5)" style="edgeStyle=orthogonalEdgeStyle;rounded=0;orthogonalLoop=1;jettySize=auto;html=1;entryX=1;entryY=0.5;entryDx=0;entryDy=0;" parent="1" source="u5vIHBIE0b2SrZS-hyAQ-13" target="u5vIHBIE0b2SrZS-hyAQ-1" edge="1">
          <mxGeometry relative="1" as="geometry" />
        </mxCell>
        <mxCell id="u5vIHBIE0b2SrZS-hyAQ-15" value="FedAVG, Fed+ failed" style="edgeStyle=orthogonalEdgeStyle;rounded=0;orthogonalLoop=1;jettySize=auto;html=1;entryX=0;entryY=0.5;entryDx=0;entryDy=0;" parent="1" source="u5vIHBIE0b2SrZS-hyAQ-13" target="u5vIHBIE0b2SrZS-hyAQ-4" edge="1">
          <mxGeometry relative="1" as="geometry">
            <Array as="points">
              <mxPoint x="550" y="380" />
              <mxPoint x="-130" y="380" />
              <mxPoint x="-130" y="100" />
            </Array>
          </mxGeometry>
        </mxCell>
        <mxCell id="u5vIHBIE0b2SrZS-hyAQ-17" style="edgeStyle=orthogonalEdgeStyle;rounded=0;orthogonalLoop=1;jettySize=auto;html=1;exitX=0.5;exitY=0;exitDx=0;exitDy=0;" parent="1" source="u5vIHBIE0b2SrZS-hyAQ-13" target="u5vIHBIE0b2SrZS-hyAQ-6" edge="1">
          <mxGeometry relative="1" as="geometry" />
        </mxCell>
        <mxCell id="u5vIHBIE0b2SrZS-hyAQ-22" value="&amp;nbsp;Request record (4)" style="edgeLabel;html=1;align=center;verticalAlign=middle;resizable=0;points=[];" parent="u5vIHBIE0b2SrZS-hyAQ-17" vertex="1" connectable="0">
          <mxGeometry x="-0.0231" relative="1" as="geometry">
            <mxPoint as="offset" />
          </mxGeometry>
        </mxCell>
        <mxCell id="u5vIHBIE0b2SrZS-hyAQ-13" value="FL server" style="rounded=0;whiteSpace=wrap;html=1;" parent="1" vertex="1">
          <mxGeometry x="490" y="260" width="120" height="60" as="geometry" />
        </mxCell>
      </root>
    </mxGraphModel>
  </diagram>
  <diagram id="pJy5PvrcLOWn4_QnaYOY" name="Page-4">
    <mxGraphModel dx="3694" dy="1600" grid="1" gridSize="10" guides="1" tooltips="1" connect="1" arrows="1" fold="1" page="1" pageScale="1" pageWidth="850" pageHeight="1100" math="0" shadow="0">
      <root>
        <mxCell id="0" />
        <mxCell id="1" parent="0" />
        <mxCell id="L7xtCkkqBQcx_jC4nMMA-22" value="" style="rounded=0;whiteSpace=wrap;html=1;fontSize=36;" parent="1" vertex="1">
          <mxGeometry x="210" y="620" width="410" height="120" as="geometry" />
        </mxCell>
        <mxCell id="L7xtCkkqBQcx_jC4nMMA-21" value="" style="rounded=0;whiteSpace=wrap;html=1;fontSize=36;" parent="1" vertex="1">
          <mxGeometry x="160" y="400" width="510" height="140" as="geometry" />
        </mxCell>
        <mxCell id="L7xtCkkqBQcx_jC4nMMA-7" value="" style="rounded=0;whiteSpace=wrap;html=1;" parent="1" vertex="1">
          <mxGeometry x="160" y="240" width="510" height="90" as="geometry" />
        </mxCell>
        <mxCell id="L7xtCkkqBQcx_jC4nMMA-2" value="&lt;font style=&quot;font-size: 36px;&quot;&gt;&lt;b&gt;Internet&lt;/b&gt;&lt;/font&gt;" style="ellipse;shape=cloud;whiteSpace=wrap;html=1;" parent="1" vertex="1">
          <mxGeometry x="160" y="30" width="500" height="140" as="geometry" />
        </mxCell>
        <mxCell id="L7xtCkkqBQcx_jC4nMMA-3" value="" style="shape=mxgraph.cisco.routers.router;html=1;pointerEvents=1;dashed=0;fillColor=#036897;strokeColor=#ffffff;strokeWidth=2;verticalLabelPosition=bottom;verticalAlign=top;align=center;outlineConnect=0;" parent="1" vertex="1">
          <mxGeometry x="200" y="260" width="90" height="60" as="geometry" />
        </mxCell>
        <mxCell id="L7xtCkkqBQcx_jC4nMMA-4" value="" style="shape=mxgraph.cisco.routers.router;html=1;pointerEvents=1;dashed=0;fillColor=#036897;strokeColor=#ffffff;strokeWidth=2;verticalLabelPosition=bottom;verticalAlign=top;align=center;outlineConnect=0;" parent="1" vertex="1">
          <mxGeometry x="320" y="260" width="90" height="60" as="geometry" />
        </mxCell>
        <mxCell id="L7xtCkkqBQcx_jC4nMMA-5" value="" style="shape=mxgraph.cisco.routers.router;html=1;pointerEvents=1;dashed=0;fillColor=#036897;strokeColor=#ffffff;strokeWidth=2;verticalLabelPosition=bottom;verticalAlign=top;align=center;outlineConnect=0;" parent="1" vertex="1">
          <mxGeometry x="440" y="260" width="90" height="60" as="geometry" />
        </mxCell>
        <mxCell id="L7xtCkkqBQcx_jC4nMMA-6" value="" style="shape=mxgraph.cisco.routers.router;html=1;pointerEvents=1;dashed=0;fillColor=#036897;strokeColor=#ffffff;strokeWidth=2;verticalLabelPosition=bottom;verticalAlign=top;align=center;outlineConnect=0;" parent="1" vertex="1">
          <mxGeometry x="560" y="260" width="90" height="60" as="geometry" />
        </mxCell>
        <mxCell id="L7xtCkkqBQcx_jC4nMMA-8" value="" style="image;html=1;image=img/lib/clip_art/networking/Firewall_02_128x128.png" parent="1" vertex="1">
          <mxGeometry x="230" y="415" width="100" height="110" as="geometry" />
        </mxCell>
        <mxCell id="L7xtCkkqBQcx_jC4nMMA-9" value="" style="image;html=1;image=img/lib/clip_art/networking/Firewall_02_128x128.png" parent="1" vertex="1">
          <mxGeometry x="490" y="415" width="100" height="110" as="geometry" />
        </mxCell>
        <mxCell id="L7xtCkkqBQcx_jC4nMMA-12" value="" style="sketch=0;points=[[0.015,0.015,0],[0.985,0.015,0],[0.985,0.985,0],[0.015,0.985,0],[0.25,0,0],[0.5,0,0],[0.75,0,0],[1,0.25,0],[1,0.5,0],[1,0.75,0],[0.75,1,0],[0.5,1,0],[0.25,1,0],[0,0.75,0],[0,0.5,0],[0,0.25,0]];verticalLabelPosition=bottom;html=1;verticalAlign=top;aspect=fixed;align=center;pointerEvents=1;shape=mxgraph.cisco19.rect;prIcon=l3_switch;fillColor=#FAFAFA;strokeColor=#005073;" parent="1" vertex="1">
          <mxGeometry x="230" y="630" width="100" height="100" as="geometry" />
        </mxCell>
        <mxCell id="L7xtCkkqBQcx_jC4nMMA-13" value="" style="sketch=0;points=[[0.015,0.015,0],[0.985,0.015,0],[0.985,0.985,0],[0.015,0.985,0],[0.25,0,0],[0.5,0,0],[0.75,0,0],[1,0.25,0],[1,0.5,0],[1,0.75,0],[0.75,1,0],[0.5,1,0],[0.25,1,0],[0,0.75,0],[0,0.5,0],[0,0.25,0]];verticalLabelPosition=bottom;html=1;verticalAlign=top;aspect=fixed;align=center;pointerEvents=1;shape=mxgraph.cisco19.rect;prIcon=l3_switch;fillColor=#FAFAFA;strokeColor=#005073;" parent="1" vertex="1">
          <mxGeometry x="490" y="630" width="100" height="100" as="geometry" />
        </mxCell>
        <mxCell id="L7xtCkkqBQcx_jC4nMMA-14" value="" style="endArrow=none;html=1;rounded=0;entryX=0.22;entryY=0.857;entryDx=0;entryDy=0;entryPerimeter=0;exitX=0.214;exitY=0;exitDx=0;exitDy=0;exitPerimeter=0;" parent="1" source="L7xtCkkqBQcx_jC4nMMA-7" target="L7xtCkkqBQcx_jC4nMMA-2" edge="1">
          <mxGeometry width="50" height="50" relative="1" as="geometry">
            <mxPoint x="270" y="230" as="sourcePoint" />
            <mxPoint x="320" y="220" as="targetPoint" />
          </mxGeometry>
        </mxCell>
        <mxCell id="L7xtCkkqBQcx_jC4nMMA-15" value="" style="endArrow=none;html=1;rounded=0;entryX=0.392;entryY=0.929;entryDx=0;entryDy=0;entryPerimeter=0;exitX=0.384;exitY=-0.033;exitDx=0;exitDy=0;exitPerimeter=0;" parent="1" source="L7xtCkkqBQcx_jC4nMMA-7" target="L7xtCkkqBQcx_jC4nMMA-2" edge="1">
          <mxGeometry width="50" height="50" relative="1" as="geometry">
            <mxPoint x="279.1400000000001" y="250" as="sourcePoint" />
            <mxPoint x="280" y="159.98000000000002" as="targetPoint" />
          </mxGeometry>
        </mxCell>
        <mxCell id="L7xtCkkqBQcx_jC4nMMA-16" value="" style="endArrow=none;html=1;rounded=0;entryX=0.55;entryY=0.95;entryDx=0;entryDy=0;entryPerimeter=0;exitX=0.539;exitY=-0.033;exitDx=0;exitDy=0;exitPerimeter=0;" parent="1" source="L7xtCkkqBQcx_jC4nMMA-7" target="L7xtCkkqBQcx_jC4nMMA-2" edge="1">
          <mxGeometry width="50" height="50" relative="1" as="geometry">
            <mxPoint x="289.1400000000001" y="260" as="sourcePoint" />
            <mxPoint x="290" y="169.98000000000002" as="targetPoint" />
          </mxGeometry>
        </mxCell>
        <mxCell id="L7xtCkkqBQcx_jC4nMMA-17" value="" style="endArrow=none;html=1;rounded=0;entryX=0.682;entryY=0.95;entryDx=0;entryDy=0;entryPerimeter=0;exitX=0.673;exitY=-0.022;exitDx=0;exitDy=0;exitPerimeter=0;" parent="1" source="L7xtCkkqBQcx_jC4nMMA-7" target="L7xtCkkqBQcx_jC4nMMA-2" edge="1">
          <mxGeometry width="50" height="50" relative="1" as="geometry">
            <mxPoint x="299.1400000000001" y="270" as="sourcePoint" />
            <mxPoint x="300" y="179.98000000000002" as="targetPoint" />
          </mxGeometry>
        </mxCell>
        <mxCell id="L7xtCkkqBQcx_jC4nMMA-18" value="" style="endArrow=none;html=1;rounded=0;entryX=0.8;entryY=0.8;entryDx=0;entryDy=0;entryPerimeter=0;exitX=0.786;exitY=-0.033;exitDx=0;exitDy=0;exitPerimeter=0;" parent="1" source="L7xtCkkqBQcx_jC4nMMA-7" target="L7xtCkkqBQcx_jC4nMMA-2" edge="1">
          <mxGeometry width="50" height="50" relative="1" as="geometry">
            <mxPoint x="309.1400000000001" y="280" as="sourcePoint" />
            <mxPoint x="310" y="189.98000000000002" as="targetPoint" />
          </mxGeometry>
        </mxCell>
        <mxCell id="L7xtCkkqBQcx_jC4nMMA-19" value="" style="endArrow=none;html=1;rounded=0;entryX=0.237;entryY=1.044;entryDx=0;entryDy=0;entryPerimeter=0;" parent="1" target="L7xtCkkqBQcx_jC4nMMA-7" edge="1">
          <mxGeometry width="50" height="50" relative="1" as="geometry">
            <mxPoint x="281" y="400" as="sourcePoint" />
            <mxPoint x="320" y="199.98000000000002" as="targetPoint" />
          </mxGeometry>
        </mxCell>
        <mxCell id="L7xtCkkqBQcx_jC4nMMA-20" value="" style="endArrow=none;html=1;rounded=0;entryX=0.75;entryY=1;entryDx=0;entryDy=0;" parent="1" target="L7xtCkkqBQcx_jC4nMMA-7" edge="1">
          <mxGeometry width="50" height="50" relative="1" as="geometry">
            <mxPoint x="543" y="400" as="sourcePoint" />
            <mxPoint x="330" y="209.98000000000002" as="targetPoint" />
          </mxGeometry>
        </mxCell>
        <mxCell id="L7xtCkkqBQcx_jC4nMMA-29" value="" style="ellipse;whiteSpace=wrap;html=1;fontSize=36;" parent="1" vertex="1">
          <mxGeometry x="385" y="640" width="50" height="80" as="geometry" />
        </mxCell>
        <mxCell id="L7xtCkkqBQcx_jC4nMMA-25" value="" style="endArrow=none;html=1;rounded=0;fontSize=36;entryX=0;entryY=0.25;entryDx=0;entryDy=0;entryPerimeter=0;exitX=1;exitY=0.25;exitDx=0;exitDy=0;exitPerimeter=0;" parent="1" source="L7xtCkkqBQcx_jC4nMMA-12" target="L7xtCkkqBQcx_jC4nMMA-13" edge="1">
          <mxGeometry width="50" height="50" relative="1" as="geometry">
            <mxPoint x="270" y="510" as="sourcePoint" />
            <mxPoint x="320" y="460" as="targetPoint" />
          </mxGeometry>
        </mxCell>
        <mxCell id="L7xtCkkqBQcx_jC4nMMA-26" value="" style="endArrow=none;html=1;rounded=0;fontSize=36;entryX=0;entryY=0.25;entryDx=0;entryDy=0;entryPerimeter=0;exitX=1;exitY=0.25;exitDx=0;exitDy=0;exitPerimeter=0;" parent="1" edge="1">
          <mxGeometry width="50" height="50" relative="1" as="geometry">
            <mxPoint x="330" y="700" as="sourcePoint" />
            <mxPoint x="490" y="700" as="targetPoint" />
          </mxGeometry>
        </mxCell>
        <mxCell id="Kx4rrTeQ5TaPUagEGtvk-3" style="edgeStyle=orthogonalEdgeStyle;rounded=0;orthogonalLoop=1;jettySize=auto;html=1;exitX=1;exitY=0.5;exitDx=0;exitDy=0;exitPerimeter=0;entryX=0.094;entryY=1.009;entryDx=0;entryDy=0;entryPerimeter=0;strokeColor=#006633;" parent="1" source="L7xtCkkqBQcx_jC4nMMA-30" target="0P_3l4SNHLxBps-QN_rj-27" edge="1">
          <mxGeometry relative="1" as="geometry">
            <Array as="points">
              <mxPoint x="1440" y="470" />
              <mxPoint x="1440" y="1500" />
              <mxPoint x="-12" y="1500" />
            </Array>
          </mxGeometry>
        </mxCell>
        <mxCell id="d8vD5YEwrVg1ydTk-Md7-39" value="&lt;font style=&quot;font-size: 24px;&quot; color=&quot;#006633&quot;&gt;Log&lt;/font&gt;" style="edgeLabel;html=1;align=center;verticalAlign=middle;resizable=0;points=[];fontSize=16;fontColor=#FF0000;" parent="Kx4rrTeQ5TaPUagEGtvk-3" vertex="1" connectable="0">
          <mxGeometry x="-0.9075" y="3" relative="1" as="geometry">
            <mxPoint x="-1" as="offset" />
          </mxGeometry>
        </mxCell>
        <mxCell id="L7xtCkkqBQcx_jC4nMMA-30" value="IDS/IPS" style="sketch=0;points=[[0.015,0.015,0],[0.985,0.015,0],[0.985,0.985,0],[0.015,0.985,0],[0.25,0,0],[0.5,0,0],[0.75,0,0],[1,0.25,0],[1,0.5,0],[1,0.75,0],[0.75,1,0],[0.5,1,0],[0.25,1,0],[0,0.75,0],[0,0.5,0],[0,0.25,0]];verticalLabelPosition=bottom;html=1;verticalAlign=top;aspect=fixed;align=center;pointerEvents=1;shape=mxgraph.cisco19.rect;prIcon=ips_ids;fillColor=#FAFAFA;strokeColor=#005073;fontSize=36;" parent="1" vertex="1">
          <mxGeometry x="820" y="405" width="166.4" height="130" as="geometry" />
        </mxCell>
        <mxCell id="0P_3l4SNHLxBps-QN_rj-2" value="&lt;font style=&quot;font-size: 16px;&quot;&gt;Network Tap&lt;/font&gt;" style="endArrow=none;html=1;rounded=0;entryX=0;entryY=0.5;entryDx=0;entryDy=0;entryPerimeter=0;exitX=1;exitY=0.5;exitDx=0;exitDy=0;" parent="1" source="L7xtCkkqBQcx_jC4nMMA-22" target="L7xtCkkqBQcx_jC4nMMA-30" edge="1">
          <mxGeometry width="50" height="50" relative="1" as="geometry">
            <mxPoint x="750" y="670" as="sourcePoint" />
            <mxPoint x="750" y="400" as="targetPoint" />
            <Array as="points">
              <mxPoint x="750" y="680" />
              <mxPoint x="750" y="470" />
            </Array>
          </mxGeometry>
        </mxCell>
        <mxCell id="0P_3l4SNHLxBps-QN_rj-3" value="" style="endArrow=none;html=1;rounded=0;exitX=0.19;exitY=0;exitDx=0;exitDy=0;exitPerimeter=0;" parent="1" source="L7xtCkkqBQcx_jC4nMMA-22" edge="1">
          <mxGeometry width="50" height="50" relative="1" as="geometry">
            <mxPoint x="370" y="530" as="sourcePoint" />
            <mxPoint x="288" y="540" as="targetPoint" />
          </mxGeometry>
        </mxCell>
        <mxCell id="0P_3l4SNHLxBps-QN_rj-4" value="" style="endArrow=none;html=1;rounded=0;entryX=0.75;entryY=1;entryDx=0;entryDy=0;exitX=0.81;exitY=0.008;exitDx=0;exitDy=0;exitPerimeter=0;" parent="1" source="L7xtCkkqBQcx_jC4nMMA-22" target="L7xtCkkqBQcx_jC4nMMA-21" edge="1">
          <mxGeometry width="50" height="50" relative="1" as="geometry">
            <mxPoint x="370" y="530" as="sourcePoint" />
            <mxPoint x="420" y="480" as="targetPoint" />
          </mxGeometry>
        </mxCell>
        <mxCell id="0P_3l4SNHLxBps-QN_rj-6" value="" style="rounded=0;whiteSpace=wrap;html=1;" parent="1" vertex="1">
          <mxGeometry x="-230" y="605" width="230" height="150" as="geometry" />
        </mxCell>
        <mxCell id="0P_3l4SNHLxBps-QN_rj-8" value="" style="endArrow=none;html=1;rounded=0;entryX=1;entryY=0.5;entryDx=0;entryDy=0;exitX=0;exitY=0.5;exitDx=0;exitDy=0;" parent="1" source="L7xtCkkqBQcx_jC4nMMA-22" target="0P_3l4SNHLxBps-QN_rj-6" edge="1">
          <mxGeometry width="50" height="50" relative="1" as="geometry">
            <mxPoint x="370" y="400" as="sourcePoint" />
            <mxPoint x="420" y="350" as="targetPoint" />
          </mxGeometry>
        </mxCell>
        <mxCell id="0P_3l4SNHLxBps-QN_rj-11" value="" style="fontColor=#0066CC;verticalAlign=top;verticalLabelPosition=bottom;labelPosition=center;align=center;html=1;outlineConnect=0;fillColor=#CCCCCC;strokeColor=#6881B3;gradientColor=none;gradientDirection=north;strokeWidth=2;shape=mxgraph.networks.switch;" parent="1" vertex="1">
          <mxGeometry x="235" y="830" width="350" height="60" as="geometry" />
        </mxCell>
        <mxCell id="0P_3l4SNHLxBps-QN_rj-13" value="" style="endArrow=none;html=1;rounded=0;entryX=0.5;entryY=0;entryDx=0;entryDy=0;entryPerimeter=0;exitX=0.485;exitY=1.042;exitDx=0;exitDy=0;exitPerimeter=0;" parent="1" source="L7xtCkkqBQcx_jC4nMMA-22" target="0P_3l4SNHLxBps-QN_rj-11" edge="1">
          <mxGeometry width="50" height="50" relative="1" as="geometry">
            <mxPoint x="370" y="780" as="sourcePoint" />
            <mxPoint x="420" y="730" as="targetPoint" />
          </mxGeometry>
        </mxCell>
        <mxCell id="0P_3l4SNHLxBps-QN_rj-15" value="&lt;font style=&quot;font-size: 24px;&quot;&gt;&lt;b&gt;Client Zone&lt;/b&gt;&lt;/font&gt;" style="text;html=1;strokeColor=none;fillColor=none;align=center;verticalAlign=middle;whiteSpace=wrap;rounded=0;" parent="1" vertex="1">
          <mxGeometry x="-190" y="770" width="150" height="30" as="geometry" />
        </mxCell>
        <mxCell id="0P_3l4SNHLxBps-QN_rj-16" value="" style="verticalLabelPosition=bottom;html=1;verticalAlign=top;align=center;strokeColor=none;fillColor=#00BEF2;shape=mxgraph.azure.computer;pointerEvents=1;fontSize=24;" parent="1" vertex="1">
          <mxGeometry x="-190" y="620" width="50" height="45" as="geometry" />
        </mxCell>
        <mxCell id="0P_3l4SNHLxBps-QN_rj-17" value="" style="verticalLabelPosition=bottom;html=1;verticalAlign=top;align=center;strokeColor=none;fillColor=#00BEF2;shape=mxgraph.azure.computer;pointerEvents=1;fontSize=24;" parent="1" vertex="1">
          <mxGeometry x="-90" y="620" width="50" height="45" as="geometry" />
        </mxCell>
        <mxCell id="0P_3l4SNHLxBps-QN_rj-18" value="" style="verticalLabelPosition=bottom;html=1;verticalAlign=top;align=center;strokeColor=none;fillColor=#00BEF2;shape=mxgraph.azure.computer;pointerEvents=1;fontSize=24;" parent="1" vertex="1">
          <mxGeometry x="-90" y="695" width="50" height="45" as="geometry" />
        </mxCell>
        <mxCell id="0P_3l4SNHLxBps-QN_rj-19" value="" style="verticalLabelPosition=bottom;html=1;verticalAlign=top;align=center;strokeColor=none;fillColor=#00BEF2;shape=mxgraph.azure.computer;pointerEvents=1;fontSize=24;" parent="1" vertex="1">
          <mxGeometry x="-190" y="695" width="50" height="45" as="geometry" />
        </mxCell>
        <mxCell id="0P_3l4SNHLxBps-QN_rj-22" value="" style="rounded=0;whiteSpace=wrap;html=1;" parent="1" vertex="1">
          <mxGeometry x="820" y="665" width="350" height="305" as="geometry" />
        </mxCell>
        <mxCell id="0P_3l4SNHLxBps-QN_rj-23" value="" style="endArrow=none;html=1;rounded=0;entryX=1;entryY=0.75;entryDx=0;entryDy=0;exitX=0.004;exitY=0.151;exitDx=0;exitDy=0;exitPerimeter=0;" parent="1" source="0P_3l4SNHLxBps-QN_rj-22" target="L7xtCkkqBQcx_jC4nMMA-22" edge="1">
          <mxGeometry width="50" height="50" relative="1" as="geometry">
            <mxPoint x="220" y="690" as="sourcePoint" />
            <mxPoint x="10" y="690" as="targetPoint" />
          </mxGeometry>
        </mxCell>
        <mxCell id="0P_3l4SNHLxBps-QN_rj-25" value="&lt;font style=&quot;font-size: 24px;&quot;&gt;&lt;b&gt;DMZ Zone&lt;/b&gt;&lt;/font&gt;" style="text;html=1;strokeColor=none;fillColor=none;align=center;verticalAlign=middle;whiteSpace=wrap;rounded=0;" parent="1" vertex="1">
          <mxGeometry x="970" y="980" width="150" height="30" as="geometry" />
        </mxCell>
        <mxCell id="0P_3l4SNHLxBps-QN_rj-27" value="" style="rounded=0;whiteSpace=wrap;html=1;fontSize=24;" parent="1" vertex="1">
          <mxGeometry x="-110" y="1010" width="1040" height="370" as="geometry" />
        </mxCell>
        <mxCell id="0P_3l4SNHLxBps-QN_rj-28" value="" style="endArrow=none;html=1;rounded=0;fontSize=24;exitX=0.5;exitY=0;exitDx=0;exitDy=0;entryX=0.5;entryY=1;entryDx=0;entryDy=0;entryPerimeter=0;" parent="1" source="0P_3l4SNHLxBps-QN_rj-27" target="0P_3l4SNHLxBps-QN_rj-11" edge="1">
          <mxGeometry width="50" height="50" relative="1" as="geometry">
            <mxPoint x="260" y="890" as="sourcePoint" />
            <mxPoint x="410" y="920" as="targetPoint" />
          </mxGeometry>
        </mxCell>
        <mxCell id="0P_3l4SNHLxBps-QN_rj-29" value="FireWall" style="rounded=1;whiteSpace=wrap;html=1;fontSize=24;" parent="1" vertex="1">
          <mxGeometry x="-40" y="940" width="840" height="30" as="geometry" />
        </mxCell>
        <mxCell id="0P_3l4SNHLxBps-QN_rj-30" value="" style="image;html=1;image=img/lib/clip_art/networking/Firewall_02_128x128.png" parent="1" vertex="1">
          <mxGeometry x="-130" y="890" width="100" height="110" as="geometry" />
        </mxCell>
        <mxCell id="0P_3l4SNHLxBps-QN_rj-31" value="" style="endArrow=none;html=1;rounded=0;fontSize=24;entryX=0.182;entryY=0.005;entryDx=0;entryDy=0;entryPerimeter=0;" parent="1" target="0P_3l4SNHLxBps-QN_rj-27" edge="1">
          <mxGeometry width="50" height="50" relative="1" as="geometry">
            <mxPoint x="80" y="1380" as="sourcePoint" />
            <mxPoint x="310" y="970" as="targetPoint" />
          </mxGeometry>
        </mxCell>
        <mxCell id="0P_3l4SNHLxBps-QN_rj-32" value="" style="endArrow=none;html=1;rounded=0;fontSize=24;entryX=0.441;entryY=0.002;entryDx=0;entryDy=0;entryPerimeter=0;exitX=0.439;exitY=1.006;exitDx=0;exitDy=0;exitPerimeter=0;" parent="1" source="0P_3l4SNHLxBps-QN_rj-27" target="0P_3l4SNHLxBps-QN_rj-27" edge="1">
          <mxGeometry width="50" height="50" relative="1" as="geometry">
            <mxPoint x="350" y="1370" as="sourcePoint" />
            <mxPoint x="420" y="770" as="targetPoint" />
          </mxGeometry>
        </mxCell>
        <mxCell id="0P_3l4SNHLxBps-QN_rj-33" value="&lt;span style=&quot;font-size: 24px;&quot;&gt;&lt;b&gt;Server zone&lt;/b&gt;&lt;/span&gt;" style="text;html=1;strokeColor=none;fillColor=none;align=center;verticalAlign=middle;whiteSpace=wrap;rounded=0;" parent="1" vertex="1">
          <mxGeometry x="220" y="1410" width="310" height="30" as="geometry" />
        </mxCell>
        <mxCell id="0P_3l4SNHLxBps-QN_rj-34" value="" style="shape=image;verticalLabelPosition=bottom;labelBackgroundColor=default;verticalAlign=top;aspect=fixed;imageAspect=0;image=https://upload.wikimedia.org/wikipedia/commons/thumb/3/38/Prometheus_software_logo.svg/2066px-Prometheus_software_logo.svg.png;" parent="1" vertex="1">
          <mxGeometry x="-83" y="1030" width="40" height="39.62" as="geometry" />
        </mxCell>
        <mxCell id="0P_3l4SNHLxBps-QN_rj-35" value="" style="shape=image;verticalLabelPosition=bottom;labelBackgroundColor=default;verticalAlign=top;aspect=fixed;imageAspect=0;image=https://cdn.icon-icons.com/icons2/2699/PNG/512/grafana_logo_icon_171048.png;" parent="1" vertex="1">
          <mxGeometry x="-86" y="1090" width="46" height="46" as="geometry" />
        </mxCell>
        <mxCell id="0P_3l4SNHLxBps-QN_rj-36" value="" style="shape=image;verticalLabelPosition=bottom;labelBackgroundColor=default;verticalAlign=top;aspect=fixed;imageAspect=0;image=https://images.contentstack.io/v3/assets/bltefdd0b53724fa2ce/blt601c406b0b5af740/620577381692951393fdf8d6/elastic-logo-cluster.svg;" parent="1" vertex="1">
          <mxGeometry x="-90.5" y="1200" width="55" height="54.73" as="geometry" />
        </mxCell>
        <mxCell id="0P_3l4SNHLxBps-QN_rj-38" value="&lt;b&gt;&lt;font color=&quot;#99004d&quot;&gt;AD, DNS, ...&lt;/font&gt;&lt;/b&gt;" style="text;html=1;strokeColor=none;fillColor=none;align=center;verticalAlign=middle;whiteSpace=wrap;rounded=0;fontSize=24;" parent="1" vertex="1">
          <mxGeometry x="140" y="1340" width="135" height="30" as="geometry" />
        </mxCell>
        <mxCell id="0P_3l4SNHLxBps-QN_rj-39" value="" style="endArrow=none;html=1;rounded=0;fontSize=24;entryX=0.69;entryY=0.002;entryDx=0;entryDy=0;entryPerimeter=0;exitX=0.688;exitY=1.002;exitDx=0;exitDy=0;exitPerimeter=0;" parent="1" source="0P_3l4SNHLxBps-QN_rj-27" target="0P_3l4SNHLxBps-QN_rj-27" edge="1">
          <mxGeometry width="50" height="50" relative="1" as="geometry">
            <mxPoint x="440" y="960" as="sourcePoint" />
            <mxPoint x="490" y="910" as="targetPoint" />
          </mxGeometry>
        </mxCell>
        <mxCell id="0P_3l4SNHLxBps-QN_rj-40" value="&lt;b&gt;&lt;font color=&quot;#99004d&quot;&gt;App server&lt;/font&gt;&lt;/b&gt;" style="text;html=1;strokeColor=none;fillColor=none;align=center;verticalAlign=middle;whiteSpace=wrap;rounded=0;fontSize=24;" parent="1" vertex="1">
          <mxGeometry x="413.93" y="1340" width="135.5" height="30" as="geometry" />
        </mxCell>
        <mxCell id="0P_3l4SNHLxBps-QN_rj-41" value="&lt;b&gt;&lt;font color=&quot;#99004d&quot;&gt;Database server&lt;/font&gt;&lt;/b&gt;" style="text;html=1;strokeColor=none;fillColor=none;align=center;verticalAlign=middle;whiteSpace=wrap;rounded=0;fontSize=24;" parent="1" vertex="1">
          <mxGeometry x="680" y="1340" width="200" height="30" as="geometry" />
        </mxCell>
        <mxCell id="d8vD5YEwrVg1ydTk-Md7-35" style="edgeStyle=orthogonalEdgeStyle;rounded=0;orthogonalLoop=1;jettySize=auto;html=1;" parent="1" source="0P_3l4SNHLxBps-QN_rj-42" target="d8vD5YEwrVg1ydTk-Md7-32" edge="1">
          <mxGeometry relative="1" as="geometry" />
        </mxCell>
        <mxCell id="d8vD5YEwrVg1ydTk-Md7-36" style="edgeStyle=orthogonalEdgeStyle;rounded=0;orthogonalLoop=1;jettySize=auto;html=1;entryX=0.5;entryY=0;entryDx=0;entryDy=0;entryPerimeter=0;" parent="1" source="0P_3l4SNHLxBps-QN_rj-42" target="d8vD5YEwrVg1ydTk-Md7-33" edge="1">
          <mxGeometry relative="1" as="geometry" />
        </mxCell>
        <mxCell id="d8vD5YEwrVg1ydTk-Md7-37" style="edgeStyle=orthogonalEdgeStyle;rounded=0;orthogonalLoop=1;jettySize=auto;html=1;entryX=0.5;entryY=0;entryDx=0;entryDy=0;entryPerimeter=0;" parent="1" source="0P_3l4SNHLxBps-QN_rj-42" target="d8vD5YEwrVg1ydTk-Md7-34" edge="1">
          <mxGeometry relative="1" as="geometry" />
        </mxCell>
        <mxCell id="0P_3l4SNHLxBps-QN_rj-42" value="" style="aspect=fixed;html=1;points=[];align=center;image;fontSize=12;image=img/lib/azure2/networking/Web_Application_Firewall_Policies_WAF.svg;" parent="1" vertex="1">
          <mxGeometry x="844" y="712" width="68" height="68" as="geometry" />
        </mxCell>
        <mxCell id="Kx4rrTeQ5TaPUagEGtvk-4" value="&lt;font style=&quot;font-size: 24px;&quot;&gt;&lt;b&gt;Core Router&lt;/b&gt;&lt;/font&gt;" style="text;html=1;strokeColor=none;fillColor=none;align=center;verticalAlign=middle;whiteSpace=wrap;rounded=0;" parent="1" vertex="1">
          <mxGeometry x="340" y="575" width="150" height="30" as="geometry" />
        </mxCell>
        <mxCell id="Kx4rrTeQ5TaPUagEGtvk-5" value="&lt;font style=&quot;font-size: 24px;&quot;&gt;&lt;b&gt;Firewall&lt;/b&gt;&lt;/font&gt;" style="text;html=1;strokeColor=none;fillColor=none;align=center;verticalAlign=middle;whiteSpace=wrap;rounded=0;" parent="1" vertex="1">
          <mxGeometry x="340" y="360" width="150" height="30" as="geometry" />
        </mxCell>
        <mxCell id="Kx4rrTeQ5TaPUagEGtvk-6" value="&lt;font style=&quot;font-size: 24px;&quot;&gt;&lt;b&gt;Network loadbalance&lt;/b&gt;&lt;/font&gt;" style="text;html=1;strokeColor=none;fillColor=none;align=center;verticalAlign=middle;whiteSpace=wrap;rounded=0;" parent="1" vertex="1">
          <mxGeometry x="690" y="270" width="150" height="30" as="geometry" />
        </mxCell>
        <mxCell id="d8vD5YEwrVg1ydTk-Md7-1" value="" style="rounded=0;whiteSpace=wrap;html=1;fillColor=none;strokeColor=#0000FF;" parent="1" vertex="1">
          <mxGeometry x="-100" y="1020" width="162.5" height="130.19" as="geometry" />
        </mxCell>
        <mxCell id="d8vD5YEwrVg1ydTk-Md7-2" value="Security monitor" style="text;html=1;strokeColor=none;fillColor=none;align=center;verticalAlign=middle;whiteSpace=wrap;rounded=0;fontSize=24;" parent="1" vertex="1">
          <mxGeometry x="-15" y="1250.09" width="60" height="30" as="geometry" />
        </mxCell>
        <mxCell id="d8vD5YEwrVg1ydTk-Md7-4" value="System health" style="text;html=1;strokeColor=none;fillColor=none;align=center;verticalAlign=middle;whiteSpace=wrap;rounded=0;fontSize=24;" parent="1" vertex="1">
          <mxGeometry x="-15" y="1100" width="60" height="30" as="geometry" />
        </mxCell>
        <mxCell id="d8vD5YEwrVg1ydTk-Md7-5" value="" style="shape=image;verticalLabelPosition=bottom;labelBackgroundColor=default;verticalAlign=top;aspect=fixed;imageAspect=0;image=https://upload.wikimedia.org/wikipedia/en/thumb/7/7e/Datadog_logo.svg/1200px-Datadog_logo.svg.png;" parent="1" vertex="1">
          <mxGeometry x="-10" y="1030" width="50" height="50" as="geometry" />
        </mxCell>
        <mxCell id="d8vD5YEwrVg1ydTk-Md7-7" value="" style="rounded=0;whiteSpace=wrap;html=1;fillColor=none;strokeColor=#0000FF;" parent="1" vertex="1">
          <mxGeometry x="-100" y="1190" width="162.5" height="130.19" as="geometry" />
        </mxCell>
        <mxCell id="d8vD5YEwrVg1ydTk-Md7-8" value="&lt;b&gt;&lt;font color=&quot;#99004d&quot;&gt;Monitor zone&lt;/font&gt;&lt;/b&gt;" style="text;html=1;strokeColor=none;fillColor=none;align=center;verticalAlign=middle;whiteSpace=wrap;rounded=0;fontSize=24;" parent="1" vertex="1">
          <mxGeometry x="-100" y="1340" width="171.25" height="30" as="geometry" />
        </mxCell>
        <mxCell id="d8vD5YEwrVg1ydTk-Md7-9" value="&lt;span style=&quot;font-size: 24px;&quot;&gt;&lt;b&gt;Server Switch&lt;/b&gt;&lt;/span&gt;" style="text;html=1;strokeColor=none;fillColor=none;align=center;verticalAlign=middle;whiteSpace=wrap;rounded=0;" parent="1" vertex="1">
          <mxGeometry x="280" y="780" width="260" height="30" as="geometry" />
        </mxCell>
        <mxCell id="d8vD5YEwrVg1ydTk-Md7-12" value="" style="sketch=0;aspect=fixed;pointerEvents=1;shadow=0;dashed=0;html=1;strokeColor=none;labelPosition=center;verticalLabelPosition=bottom;verticalAlign=top;align=center;fillColor=#00188D;shape=mxgraph.mscae.enterprise.ad_fs" parent="1" vertex="1">
          <mxGeometry x="120" y="1136" width="72" height="90" as="geometry" />
        </mxCell>
        <mxCell id="d8vD5YEwrVg1ydTk-Md7-13" value="" style="sketch=0;points=[[0.015,0.015,0],[0.985,0.015,0],[0.985,0.985,0],[0.015,0.985,0],[0.25,0,0],[0.5,0,0],[0.75,0,0],[1,0.25,0],[1,0.5,0],[1,0.75,0],[0.75,1,0],[0.5,1,0],[0.25,1,0],[0,0.75,0],[0,0.5,0],[0,0.25,0]];verticalLabelPosition=bottom;html=1;verticalAlign=top;aspect=fixed;align=center;pointerEvents=1;shape=mxgraph.cisco19.dns_server;fillColor=#005073;strokeColor=none;" parent="1" vertex="1">
          <mxGeometry x="220" y="1130" width="57.2" height="104" as="geometry" />
        </mxCell>
        <mxCell id="d8vD5YEwrVg1ydTk-Md7-19" style="edgeStyle=orthogonalEdgeStyle;rounded=0;orthogonalLoop=1;jettySize=auto;html=1;entryX=0.5;entryY=0;entryDx=0;entryDy=0;entryPerimeter=0;" parent="1" source="d8vD5YEwrVg1ydTk-Md7-15" target="d8vD5YEwrVg1ydTk-Md7-16" edge="1">
          <mxGeometry relative="1" as="geometry" />
        </mxCell>
        <mxCell id="d8vD5YEwrVg1ydTk-Md7-20" style="edgeStyle=orthogonalEdgeStyle;rounded=0;orthogonalLoop=1;jettySize=auto;html=1;" parent="1" source="d8vD5YEwrVg1ydTk-Md7-15" target="d8vD5YEwrVg1ydTk-Md7-17" edge="1">
          <mxGeometry relative="1" as="geometry" />
        </mxCell>
        <mxCell id="d8vD5YEwrVg1ydTk-Md7-21" style="edgeStyle=orthogonalEdgeStyle;rounded=0;orthogonalLoop=1;jettySize=auto;html=1;entryX=0.5;entryY=0;entryDx=0;entryDy=0;entryPerimeter=0;" parent="1" source="d8vD5YEwrVg1ydTk-Md7-15" target="d8vD5YEwrVg1ydTk-Md7-18" edge="1">
          <mxGeometry relative="1" as="geometry" />
        </mxCell>
        <mxCell id="d8vD5YEwrVg1ydTk-Md7-15" value="" style="aspect=fixed;perimeter=ellipsePerimeter;html=1;align=center;shadow=0;dashed=0;fontColor=#4277BB;labelBackgroundColor=#ffffff;fontSize=12;spacingTop=3;image;image=img/lib/ibm/infrastructure/load_balancing_routing.svg;strokeColor=#0000FF;fillColor=none;" parent="1" vertex="1">
          <mxGeometry x="450" y="1025" width="65" height="65" as="geometry" />
        </mxCell>
        <mxCell id="d8vD5YEwrVg1ydTk-Md7-16" value="" style="sketch=0;points=[[0.015,0.015,0],[0.985,0.015,0],[0.985,0.985,0],[0.015,0.985,0],[0.25,0,0],[0.5,0,0],[0.75,0,0],[1,0.25,0],[1,0.5,0],[1,0.75,0],[0.75,1,0],[0.5,1,0],[0.25,1,0],[0,0.75,0],[0,0.5,0],[0,0.25,0]];verticalLabelPosition=bottom;html=1;verticalAlign=top;aspect=fixed;align=center;pointerEvents=1;shape=mxgraph.cisco19.server;fillColor=#005073;strokeColor=none;" parent="1" vertex="1">
          <mxGeometry x="367.85" y="1131" width="56.65" height="103" as="geometry" />
        </mxCell>
        <mxCell id="d8vD5YEwrVg1ydTk-Md7-17" value="" style="sketch=0;points=[[0.015,0.015,0],[0.985,0.015,0],[0.985,0.985,0],[0.015,0.985,0],[0.25,0,0],[0.5,0,0],[0.75,0,0],[1,0.25,0],[1,0.5,0],[1,0.75,0],[0.75,1,0],[0.5,1,0],[0.25,1,0],[0,0.75,0],[0,0.5,0],[0,0.25,0]];verticalLabelPosition=bottom;html=1;verticalAlign=top;aspect=fixed;align=center;pointerEvents=1;shape=mxgraph.cisco19.server;fillColor=#005073;strokeColor=none;" parent="1" vertex="1">
          <mxGeometry x="453.35" y="1129.5" width="56.65" height="103" as="geometry" />
        </mxCell>
        <mxCell id="d8vD5YEwrVg1ydTk-Md7-18" value="" style="sketch=0;points=[[0.015,0.015,0],[0.985,0.015,0],[0.985,0.985,0],[0.015,0.985,0],[0.25,0,0],[0.5,0,0],[0.75,0,0],[1,0.25,0],[1,0.5,0],[1,0.75,0],[0.75,1,0],[0.5,1,0],[0.25,1,0],[0,0.75,0],[0,0.5,0],[0,0.25,0]];verticalLabelPosition=bottom;html=1;verticalAlign=top;aspect=fixed;align=center;pointerEvents=1;shape=mxgraph.cisco19.server;fillColor=#005073;strokeColor=none;" parent="1" vertex="1">
          <mxGeometry x="533.35" y="1131" width="56.65" height="103" as="geometry" />
        </mxCell>
        <mxCell id="d8vD5YEwrVg1ydTk-Md7-26" style="edgeStyle=orthogonalEdgeStyle;rounded=0;orthogonalLoop=1;jettySize=auto;html=1;" parent="1" source="d8vD5YEwrVg1ydTk-Md7-23" target="d8vD5YEwrVg1ydTk-Md7-24" edge="1">
          <mxGeometry relative="1" as="geometry" />
        </mxCell>
        <mxCell id="d8vD5YEwrVg1ydTk-Md7-28" style="edgeStyle=orthogonalEdgeStyle;rounded=0;orthogonalLoop=1;jettySize=auto;html=1;" parent="1" source="d8vD5YEwrVg1ydTk-Md7-23" target="d8vD5YEwrVg1ydTk-Md7-25" edge="1">
          <mxGeometry relative="1" as="geometry">
            <Array as="points">
              <mxPoint x="870" y="1053" />
            </Array>
          </mxGeometry>
        </mxCell>
        <mxCell id="d8vD5YEwrVg1ydTk-Md7-23" value="" style="aspect=fixed;perimeter=ellipsePerimeter;html=1;align=center;shadow=0;dashed=0;fontColor=#4277BB;labelBackgroundColor=#ffffff;fontSize=12;spacingTop=3;image;image=img/lib/ibm/infrastructure/load_balancing_routing.svg;strokeColor=#0000FF;fillColor=none;" parent="1" vertex="1">
          <mxGeometry x="747.5" y="1020" width="65" height="65" as="geometry" />
        </mxCell>
        <mxCell id="d8vD5YEwrVg1ydTk-Md7-24" value="" style="verticalLabelPosition=bottom;sketch=0;aspect=fixed;html=1;verticalAlign=top;strokeColor=none;align=center;outlineConnect=0;shape=mxgraph.citrix.database_server;fillColor=none;" parent="1" vertex="1">
          <mxGeometry x="640" y="1137.5" width="80" height="90" as="geometry" />
        </mxCell>
        <mxCell id="d8vD5YEwrVg1ydTk-Md7-25" value="" style="verticalLabelPosition=bottom;sketch=0;aspect=fixed;html=1;verticalAlign=top;strokeColor=none;align=center;outlineConnect=0;shape=mxgraph.citrix.database_server;fillColor=none;" parent="1" vertex="1">
          <mxGeometry x="838" y="1137.5" width="80" height="90" as="geometry" />
        </mxCell>
        <mxCell id="d8vD5YEwrVg1ydTk-Md7-32" value="" style="sketch=0;points=[[0.015,0.015,0],[0.985,0.015,0],[0.985,0.985,0],[0.015,0.985,0],[0.25,0,0],[0.5,0,0],[0.75,0,0],[1,0.25,0],[1,0.5,0],[1,0.75,0],[0.75,1,0],[0.5,1,0],[0.25,1,0],[0,0.75,0],[0,0.5,0],[0,0.25,0]];verticalLabelPosition=bottom;html=1;verticalAlign=top;aspect=fixed;align=center;pointerEvents=1;shape=mxgraph.cisco19.server;fillColor=#005073;strokeColor=none;" parent="1" vertex="1">
          <mxGeometry x="850" y="820" width="56.65" height="103" as="geometry" />
        </mxCell>
        <mxCell id="d8vD5YEwrVg1ydTk-Md7-33" value="" style="sketch=0;points=[[0.015,0.015,0],[0.985,0.015,0],[0.985,0.985,0],[0.015,0.985,0],[0.25,0,0],[0.5,0,0],[0.75,0,0],[1,0.25,0],[1,0.5,0],[1,0.75,0],[0.75,1,0],[0.5,1,0],[0.25,1,0],[0,0.75,0],[0,0.5,0],[0,0.25,0]];verticalLabelPosition=bottom;html=1;verticalAlign=top;aspect=fixed;align=center;pointerEvents=1;shape=mxgraph.cisco19.server;fillColor=#005073;strokeColor=none;" parent="1" vertex="1">
          <mxGeometry x="960" y="820" width="56.65" height="103" as="geometry" />
        </mxCell>
        <mxCell id="d8vD5YEwrVg1ydTk-Md7-34" value="" style="sketch=0;points=[[0.015,0.015,0],[0.985,0.015,0],[0.985,0.985,0],[0.015,0.985,0],[0.25,0,0],[0.5,0,0],[0.75,0,0],[1,0.25,0],[1,0.5,0],[1,0.75,0],[0.75,1,0],[0.5,1,0],[0.25,1,0],[0,0.75,0],[0,0.5,0],[0,0.25,0]];verticalLabelPosition=bottom;html=1;verticalAlign=top;aspect=fixed;align=center;pointerEvents=1;shape=mxgraph.cisco19.server;fillColor=#005073;strokeColor=none;" parent="1" vertex="1">
          <mxGeometry x="1070" y="820" width="56.65" height="103" as="geometry" />
        </mxCell>
        <mxCell id="d8vD5YEwrVg1ydTk-Md7-38" value="&lt;font color=&quot;#ff0000&quot; style=&quot;font-size: 24px;&quot;&gt;&lt;b&gt;WAF&lt;/b&gt;&lt;/font&gt;" style="text;html=1;strokeColor=none;fillColor=none;align=center;verticalAlign=middle;whiteSpace=wrap;rounded=0;" parent="1" vertex="1">
          <mxGeometry x="880" y="712" width="150" height="30" as="geometry" />
        </mxCell>
        <mxCell id="d8vD5YEwrVg1ydTk-Md7-40" value="&lt;b&gt;Web server&lt;/b&gt;" style="text;html=1;strokeColor=none;fillColor=none;align=center;verticalAlign=middle;whiteSpace=wrap;rounded=0;fontSize=24;" parent="1" vertex="1">
          <mxGeometry x="888.3199999999999" y="930" width="200" height="30" as="geometry" />
        </mxCell>
      </root>
    </mxGraphModel>
  </diagram>
  <diagram id="CJWra8DQGisL4U_aF6ki" name="Risk manager">
    <mxGraphModel dx="3694" dy="1600" grid="1" gridSize="10" guides="1" tooltips="1" connect="1" arrows="1" fold="1" page="1" pageScale="1" pageWidth="850" pageHeight="1100" math="0" shadow="0">
      <root>
        <mxCell id="0" />
        <mxCell id="1" parent="0" />
        <mxCell id="setHSFp2AwnfgEmVi9Lt-67" value="" style="rounded=0;whiteSpace=wrap;html=1;strokeColor=#000000;strokeWidth=1;fontSize=20;fontColor=#006633;" vertex="1" parent="1">
          <mxGeometry x="-350" y="1430" width="210" height="190" as="geometry" />
        </mxCell>
        <mxCell id="setHSFp2AwnfgEmVi9Lt-66" value="" style="rounded=0;whiteSpace=wrap;html=1;strokeColor=#000000;strokeWidth=1;fontSize=20;fontColor=#006633;" vertex="1" parent="1">
          <mxGeometry x="-350" y="1190" width="210" height="190" as="geometry" />
        </mxCell>
        <mxCell id="setHSFp2AwnfgEmVi9Lt-38" value="" style="rounded=0;whiteSpace=wrap;html=1;fontColor=#FF0000;dashed=1;strokeColor=#FF9933;strokeWidth=3;" vertex="1" parent="1">
          <mxGeometry x="-350" y="1690" width="200" height="540" as="geometry" />
        </mxCell>
        <mxCell id="setHSFp2AwnfgEmVi9Lt-36" value="" style="rounded=0;whiteSpace=wrap;html=1;fontColor=#FF0000;dashed=1;strokeColor=#FF0000;strokeWidth=3;" vertex="1" parent="1">
          <mxGeometry x="-50" y="1170" width="530" height="280" as="geometry" />
        </mxCell>
        <mxCell id="setHSFp2AwnfgEmVi9Lt-35" value="" style="rounded=0;whiteSpace=wrap;html=1;fontColor=#FF0000;dashed=1;strokeColor=#FF9933;strokeWidth=3;" vertex="1" parent="1">
          <mxGeometry x="-50" y="1480" width="530" height="540" as="geometry" />
        </mxCell>
        <mxCell id="setHSFp2AwnfgEmVi9Lt-26" value="" style="rounded=0;whiteSpace=wrap;html=1;fontColor=#FF0000;dashed=1;strokeColor=#006633;strokeWidth=3;" vertex="1" parent="1">
          <mxGeometry x="-50" y="2040" width="530" height="490" as="geometry" />
        </mxCell>
        <mxCell id="setHSFp2AwnfgEmVi9Lt-18" value="" style="rounded=0;whiteSpace=wrap;html=1;fontColor=#FF0000;" vertex="1" parent="1">
          <mxGeometry x="-20" y="2310" width="466.66" height="180" as="geometry" />
        </mxCell>
        <mxCell id="setHSFp2AwnfgEmVi9Lt-17" value="" style="rounded=0;whiteSpace=wrap;html=1;fontColor=#FF0000;" vertex="1" parent="1">
          <mxGeometry x="50" y="1350" width="300" height="70" as="geometry" />
        </mxCell>
        <mxCell id="setHSFp2AwnfgEmVi9Lt-16" value="" style="rounded=0;whiteSpace=wrap;html=1;fontColor=#FF0000;" vertex="1" parent="1">
          <mxGeometry x="-23.34" y="2075" width="470" height="180" as="geometry" />
        </mxCell>
        <mxCell id="setHSFp2AwnfgEmVi9Lt-15" value="" style="rounded=0;whiteSpace=wrap;html=1;fontColor=#FF0000;" vertex="1" parent="1">
          <mxGeometry x="-30" y="1805" width="470" height="180" as="geometry" />
        </mxCell>
        <mxCell id="setHSFp2AwnfgEmVi9Lt-13" value="" style="rounded=0;whiteSpace=wrap;html=1;fontColor=#FF0000;" vertex="1" parent="1">
          <mxGeometry x="-320" y="1710" width="150" height="490" as="geometry" />
        </mxCell>
        <mxCell id="zENboRITlYVIlkBi2DXG-17" value="" style="rounded=0;whiteSpace=wrap;html=1;fontFamily=Helvetica;fontSize=11;fontColor=default;" parent="1" vertex="1">
          <mxGeometry x="110" y="280" width="1000" height="430" as="geometry" />
        </mxCell>
        <mxCell id="zENboRITlYVIlkBi2DXG-2" value="" style="fontColor=#0066CC;verticalAlign=top;verticalLabelPosition=bottom;labelPosition=center;align=center;html=1;outlineConnect=0;fillColor=#CCCCCC;strokeColor=#6881B3;gradientColor=none;gradientDirection=north;strokeWidth=2;shape=mxgraph.networks.pc;" parent="1" vertex="1">
          <mxGeometry x="170" y="340" width="100" height="70" as="geometry" />
        </mxCell>
        <mxCell id="zENboRITlYVIlkBi2DXG-3" value="" style="points=[[0.22,0.185,0],[0.5,0,0],[0.78,0.185,0],[0.975,0.49,0],[1,0.73,0],[0.975,0.97,0],[0.5,1,0],[0.025,0.97,0],[0,0.73,0],[0.025,0.49,0]];verticalLabelPosition=bottom;sketch=0;html=1;verticalAlign=top;aspect=fixed;align=center;pointerEvents=1;shape=mxgraph.cisco19.printer;fillColor=#005073;strokeColor=none;" parent="1" vertex="1">
          <mxGeometry x="174.99" y="454.49" width="90.01" height="81.01" as="geometry" />
        </mxCell>
        <mxCell id="zENboRITlYVIlkBi2DXG-4" value="" style="sketch=0;aspect=fixed;pointerEvents=1;shadow=0;dashed=0;html=1;strokeColor=none;labelPosition=center;verticalLabelPosition=bottom;verticalAlign=top;align=center;fillColor=#00188D;shape=mxgraph.azure.laptop" parent="1" vertex="1">
          <mxGeometry x="153.32999999999998" y="590" width="116.67" height="70" as="geometry" />
        </mxCell>
        <mxCell id="zENboRITlYVIlkBi2DXG-5" value="" style="sketch=0;points=[[0.015,0.015,0],[0.985,0.015,0],[0.985,0.985,0],[0.015,0.985,0],[0.25,0,0],[0.5,0,0],[0.75,0,0],[1,0.25,0],[1,0.5,0],[1,0.75,0],[0.75,1,0],[0.5,1,0],[0.25,1,0],[0,0.75,0],[0,0.5,0],[0,0.25,0]];verticalLabelPosition=bottom;html=1;verticalAlign=top;aspect=fixed;align=center;pointerEvents=1;shape=mxgraph.cisco19.rect;prIcon=l2_switch;fillColor=#FAFAFA;strokeColor=#005073;" parent="1" vertex="1">
          <mxGeometry x="440" y="470" width="80" height="80" as="geometry" />
        </mxCell>
        <mxCell id="zENboRITlYVIlkBi2DXG-6" value="" style="image;html=1;image=img/lib/clip_art/networking/Firewall_02_128x128.png" parent="1" vertex="1">
          <mxGeometry x="610" y="470" width="80" height="80" as="geometry" />
        </mxCell>
        <mxCell id="zENboRITlYVIlkBi2DXG-15" value="" style="sketch=0;points=[[0.015,0.015,0],[0.985,0.015,0],[0.985,0.985,0],[0.015,0.985,0],[0.25,0,0],[0.5,0,0],[0.75,0,0],[1,0.25,0],[1,0.5,0],[1,0.75,0],[0.75,1,0],[0.5,1,0],[0.25,1,0],[0,0.75,0],[0,0.5,0],[0,0.25,0]];verticalLabelPosition=bottom;html=1;verticalAlign=top;aspect=fixed;align=center;pointerEvents=1;shape=mxgraph.cisco19.rect;prIcon=l3_switch;fillColor=#FAFAFA;strokeColor=#005073;fontFamily=Helvetica;fontSize=11;fontColor=default;" parent="1" vertex="1">
          <mxGeometry x="780" y="464.5" width="90" height="90" as="geometry" />
        </mxCell>
        <mxCell id="zENboRITlYVIlkBi2DXG-18" value="" style="fontColor=#0066CC;verticalAlign=top;verticalLabelPosition=bottom;labelPosition=center;align=center;html=1;outlineConnect=0;fillColor=#CCCCCC;strokeColor=#6881B3;gradientColor=none;gradientDirection=north;strokeWidth=2;shape=mxgraph.networks.load_balancer;fontFamily=Helvetica;fontSize=11;" parent="1" vertex="1">
          <mxGeometry x="980" y="380" width="100" height="30" as="geometry" />
        </mxCell>
        <mxCell id="zENboRITlYVIlkBi2DXG-19" value="" style="fontColor=#0066CC;verticalAlign=top;verticalLabelPosition=bottom;labelPosition=center;align=center;html=1;outlineConnect=0;fillColor=#CCCCCC;strokeColor=#6881B3;gradientColor=none;gradientDirection=north;strokeWidth=2;shape=mxgraph.networks.load_balancer;fontFamily=Helvetica;fontSize=11;" parent="1" vertex="1">
          <mxGeometry x="980" y="494.5" width="100" height="30" as="geometry" />
        </mxCell>
        <mxCell id="zENboRITlYVIlkBi2DXG-20" value="" style="fontColor=#0066CC;verticalAlign=top;verticalLabelPosition=bottom;labelPosition=center;align=center;html=1;outlineConnect=0;fillColor=#CCCCCC;strokeColor=#6881B3;gradientColor=none;gradientDirection=north;strokeWidth=2;shape=mxgraph.networks.load_balancer;fontFamily=Helvetica;fontSize=11;" parent="1" vertex="1">
          <mxGeometry x="980" y="600" width="100" height="30" as="geometry" />
        </mxCell>
        <mxCell id="zENboRITlYVIlkBi2DXG-22" value="" style="endArrow=none;html=1;rounded=0;labelBackgroundColor=default;strokeColor=default;fontFamily=Helvetica;fontSize=11;fontColor=default;startSize=0;endSize=0;shape=connector;jumpStyle=gap;edgeStyle=orthogonalEdgeStyle;entryX=0;entryY=0.5;entryDx=0;entryDy=0;entryPerimeter=0;exitX=1;exitY=0.5;exitDx=0;exitDy=0;exitPerimeter=0;" parent="1" source="zENboRITlYVIlkBi2DXG-15" target="zENboRITlYVIlkBi2DXG-18" edge="1">
          <mxGeometry width="50" height="50" relative="1" as="geometry">
            <mxPoint x="720" y="460" as="sourcePoint" />
            <mxPoint x="770" y="410" as="targetPoint" />
            <Array as="points">
              <mxPoint x="940" y="510" />
              <mxPoint x="940" y="395" />
            </Array>
          </mxGeometry>
        </mxCell>
        <mxCell id="zENboRITlYVIlkBi2DXG-23" value="" style="endArrow=none;html=1;rounded=0;labelBackgroundColor=default;strokeColor=default;fontFamily=Helvetica;fontSize=11;fontColor=default;startSize=0;endSize=0;shape=connector;jumpStyle=gap;edgeStyle=orthogonalEdgeStyle;entryX=0;entryY=0.5;entryDx=0;entryDy=0;entryPerimeter=0;" parent="1" target="zENboRITlYVIlkBi2DXG-19" edge="1">
          <mxGeometry width="50" height="50" relative="1" as="geometry">
            <mxPoint x="910" y="510" as="sourcePoint" />
            <mxPoint x="990" y="405" as="targetPoint" />
          </mxGeometry>
        </mxCell>
        <mxCell id="zENboRITlYVIlkBi2DXG-24" value="" style="endArrow=none;html=1;rounded=0;labelBackgroundColor=default;strokeColor=default;fontFamily=Helvetica;fontSize=11;fontColor=default;startSize=0;endSize=0;shape=connector;jumpStyle=gap;edgeStyle=orthogonalEdgeStyle;entryX=0;entryY=0.5;entryDx=0;entryDy=0;entryPerimeter=0;exitX=1;exitY=0.5;exitDx=0;exitDy=0;exitPerimeter=0;" parent="1" source="zENboRITlYVIlkBi2DXG-15" target="zENboRITlYVIlkBi2DXG-20" edge="1">
          <mxGeometry width="50" height="50" relative="1" as="geometry">
            <mxPoint x="930" y="529.5" as="sourcePoint" />
            <mxPoint x="1000" y="415" as="targetPoint" />
            <Array as="points">
              <mxPoint x="940" y="510" />
              <mxPoint x="940" y="615" />
            </Array>
          </mxGeometry>
        </mxCell>
        <mxCell id="zENboRITlYVIlkBi2DXG-25" value="" style="endArrow=none;html=1;rounded=0;labelBackgroundColor=default;strokeColor=default;fontFamily=Helvetica;fontSize=11;fontColor=default;startSize=0;endSize=0;shape=connector;jumpStyle=gap;edgeStyle=orthogonalEdgeStyle;exitX=1;exitY=0.5;exitDx=0;exitDy=0;entryX=0;entryY=0.5;entryDx=0;entryDy=0;entryPerimeter=0;" parent="1" source="zENboRITlYVIlkBi2DXG-6" target="zENboRITlYVIlkBi2DXG-15" edge="1">
          <mxGeometry width="50" height="50" relative="1" as="geometry">
            <mxPoint x="920" y="519.5" as="sourcePoint" />
            <mxPoint x="760" y="510" as="targetPoint" />
            <Array as="points">
              <mxPoint x="770" y="510" />
            </Array>
          </mxGeometry>
        </mxCell>
        <mxCell id="zENboRITlYVIlkBi2DXG-26" value="" style="endArrow=none;html=1;rounded=0;labelBackgroundColor=default;strokeColor=default;fontFamily=Helvetica;fontSize=11;fontColor=default;startSize=0;endSize=0;shape=connector;jumpStyle=gap;edgeStyle=orthogonalEdgeStyle;entryX=0;entryY=0.5;entryDx=0;entryDy=0;exitX=1;exitY=0.5;exitDx=0;exitDy=0;exitPerimeter=0;" parent="1" source="zENboRITlYVIlkBi2DXG-5" target="zENboRITlYVIlkBi2DXG-6" edge="1">
          <mxGeometry width="50" height="50" relative="1" as="geometry">
            <mxPoint x="930" y="529.5" as="sourcePoint" />
            <mxPoint x="1000" y="415" as="targetPoint" />
            <Array as="points">
              <mxPoint x="620" y="510" />
              <mxPoint x="620" y="510" />
            </Array>
          </mxGeometry>
        </mxCell>
        <mxCell id="zENboRITlYVIlkBi2DXG-27" value="" style="endArrow=none;html=1;rounded=0;labelBackgroundColor=default;strokeColor=default;fontFamily=Helvetica;fontSize=11;fontColor=default;startSize=0;endSize=0;shape=connector;jumpStyle=gap;edgeStyle=orthogonalEdgeStyle;entryX=0;entryY=0.5;entryDx=0;entryDy=0;entryPerimeter=0;exitX=1;exitY=0.5;exitDx=0;exitDy=0;exitPerimeter=0;" parent="1" source="zENboRITlYVIlkBi2DXG-2" target="zENboRITlYVIlkBi2DXG-5" edge="1">
          <mxGeometry width="50" height="50" relative="1" as="geometry">
            <mxPoint x="400" y="432.25" as="sourcePoint" />
            <mxPoint x="470" y="317.75" as="targetPoint" />
            <Array as="points">
              <mxPoint x="270" y="370" />
              <mxPoint x="390" y="370" />
              <mxPoint x="390" y="510" />
            </Array>
          </mxGeometry>
        </mxCell>
        <mxCell id="zENboRITlYVIlkBi2DXG-28" value="" style="endArrow=none;html=1;rounded=0;labelBackgroundColor=default;strokeColor=default;fontFamily=Helvetica;fontSize=11;fontColor=default;startSize=0;endSize=0;shape=connector;jumpStyle=gap;edgeStyle=orthogonalEdgeStyle;exitX=1;exitY=0.73;exitDx=0;exitDy=0;exitPerimeter=0;" parent="1" source="zENboRITlYVIlkBi2DXG-3" edge="1">
          <mxGeometry width="50" height="50" relative="1" as="geometry">
            <mxPoint x="280" y="385" as="sourcePoint" />
            <mxPoint x="440" y="509" as="targetPoint" />
            <Array as="points">
              <mxPoint x="265" y="509" />
              <mxPoint x="390" y="509" />
              <mxPoint x="390" y="510" />
            </Array>
          </mxGeometry>
        </mxCell>
        <mxCell id="zENboRITlYVIlkBi2DXG-29" value="" style="endArrow=none;html=1;rounded=0;labelBackgroundColor=default;strokeColor=default;fontFamily=Helvetica;fontSize=11;fontColor=default;startSize=0;endSize=0;shape=connector;jumpStyle=gap;edgeStyle=orthogonalEdgeStyle;entryX=0;entryY=0.5;entryDx=0;entryDy=0;entryPerimeter=0;exitX=0.92;exitY=0.5;exitDx=0;exitDy=0;exitPerimeter=0;" parent="1" source="zENboRITlYVIlkBi2DXG-4" target="zENboRITlYVIlkBi2DXG-5" edge="1">
          <mxGeometry width="50" height="50" relative="1" as="geometry">
            <mxPoint x="290" y="395" as="sourcePoint" />
            <mxPoint x="460" y="530" as="targetPoint" />
            <Array as="points">
              <mxPoint x="390" y="625" />
              <mxPoint x="390" y="510" />
            </Array>
          </mxGeometry>
        </mxCell>
        <mxCell id="zENboRITlYVIlkBi2DXG-30" value="&lt;b&gt;&lt;font color=&quot;#3333ff&quot; style=&quot;font-size: 30px;&quot;&gt;Office&lt;/font&gt;&lt;/b&gt;" style="text;html=1;strokeColor=none;fillColor=none;align=center;verticalAlign=middle;whiteSpace=wrap;rounded=0;fontFamily=Helvetica;fontSize=11;fontColor=default;" parent="1" vertex="1">
          <mxGeometry x="520" y="730" width="110" height="30" as="geometry" />
        </mxCell>
        <mxCell id="zENboRITlYVIlkBi2DXG-32" value="Internet" style="ellipse;shape=cloud;whiteSpace=wrap;html=1;fontFamily=Helvetica;fontSize=30;fontColor=default;" parent="1" vertex="1">
          <mxGeometry x="1240" y="434.5" width="220" height="100" as="geometry" />
        </mxCell>
        <mxCell id="zENboRITlYVIlkBi2DXG-39" value="&lt;font size=&quot;1&quot; style=&quot;&quot;&gt;&lt;b style=&quot;font-size: 13px;&quot;&gt;Lease line&lt;/b&gt;&lt;/font&gt;" style="endArrow=none;html=1;rounded=0;labelBackgroundColor=default;strokeColor=default;fontFamily=Helvetica;fontSize=11;fontColor=default;startSize=0;endSize=0;shape=connector;jumpStyle=gap;edgeStyle=orthogonalEdgeStyle;entryX=0.13;entryY=0.77;entryDx=0;entryDy=0;entryPerimeter=0;exitX=1;exitY=0.5;exitDx=0;exitDy=0;exitPerimeter=0;" parent="1" source="zENboRITlYVIlkBi2DXG-19" target="zENboRITlYVIlkBi2DXG-32" edge="1">
          <mxGeometry x="-0.2009" y="-20" width="50" height="50" relative="1" as="geometry">
            <mxPoint x="1100" y="415" as="sourcePoint" />
            <mxPoint x="1268.4" y="516" as="targetPoint" />
            <Array as="points">
              <mxPoint x="1269" y="510" />
            </Array>
            <mxPoint y="1" as="offset" />
          </mxGeometry>
        </mxCell>
        <mxCell id="zENboRITlYVIlkBi2DXG-40" value="" style="endArrow=none;html=1;rounded=0;labelBackgroundColor=default;strokeColor=default;fontFamily=Helvetica;fontSize=11;fontColor=default;startSize=0;endSize=0;shape=connector;jumpStyle=gap;edgeStyle=orthogonalEdgeStyle;entryX=0.07;entryY=0.4;entryDx=0;entryDy=0;entryPerimeter=0;exitX=1;exitY=0.5;exitDx=0;exitDy=0;exitPerimeter=0;" parent="1" source="zENboRITlYVIlkBi2DXG-18" target="zENboRITlYVIlkBi2DXG-32" edge="1">
          <mxGeometry width="50" height="50" relative="1" as="geometry">
            <mxPoint x="1110" y="425" as="sourcePoint" />
            <mxPoint x="1278.4" y="526" as="targetPoint" />
            <Array as="points">
              <mxPoint x="1140" y="395" />
              <mxPoint x="1140" y="475" />
            </Array>
          </mxGeometry>
        </mxCell>
        <mxCell id="zENboRITlYVIlkBi2DXG-42" value="&lt;font size=&quot;1&quot; color=&quot;#000000&quot;&gt;&lt;span style=&quot;font-size: 13px;&quot;&gt;&lt;b&gt;FTTH&lt;/b&gt;&lt;/span&gt;&lt;/font&gt;" style="text;html=1;strokeColor=none;fillColor=none;align=center;verticalAlign=middle;whiteSpace=wrap;rounded=0;fontFamily=Helvetica;fontSize=12;fontColor=#3333FF;" parent="1" vertex="1">
          <mxGeometry x="1170" y="424.49" width="60" height="30" as="geometry" />
        </mxCell>
        <mxCell id="zENboRITlYVIlkBi2DXG-43" value="MPLS" style="ellipse;shape=cloud;whiteSpace=wrap;html=1;fontFamily=Helvetica;fontSize=30;fontColor=default;" parent="1" vertex="1">
          <mxGeometry x="1240" y="575" width="220" height="100" as="geometry" />
        </mxCell>
        <mxCell id="zENboRITlYVIlkBi2DXG-47" value="" style="endArrow=none;html=1;rounded=0;labelBackgroundColor=default;strokeColor=default;fontFamily=Helvetica;fontSize=11;fontColor=default;startSize=0;endSize=0;shape=connector;jumpStyle=gap;edgeStyle=orthogonalEdgeStyle;entryX=0.07;entryY=0.4;entryDx=0;entryDy=0;entryPerimeter=0;exitX=1;exitY=0.5;exitDx=0;exitDy=0;exitPerimeter=0;" parent="1" source="zENboRITlYVIlkBi2DXG-20" target="zENboRITlYVIlkBi2DXG-43" edge="1">
          <mxGeometry width="50" height="50" relative="1" as="geometry">
            <mxPoint x="1145" y="660" as="sourcePoint" />
            <mxPoint x="1255" y="765.5" as="targetPoint" />
            <Array as="points">
              <mxPoint x="1230" y="615" />
              <mxPoint x="1230" y="615" />
            </Array>
          </mxGeometry>
        </mxCell>
        <mxCell id="zENboRITlYVIlkBi2DXG-48" value="" style="rounded=0;whiteSpace=wrap;html=1;fontFamily=Helvetica;fontSize=13;fontColor=#000000;" parent="1" vertex="1">
          <mxGeometry x="1580" y="280" width="900" height="430" as="geometry" />
        </mxCell>
        <mxCell id="zENboRITlYVIlkBi2DXG-53" value="" style="fontColor=#0066CC;verticalAlign=top;verticalLabelPosition=bottom;labelPosition=center;align=center;html=1;outlineConnect=0;fillColor=#CCCCCC;strokeColor=#6881B3;gradientColor=none;gradientDirection=north;strokeWidth=2;shape=mxgraph.networks.load_balancer;fontFamily=Helvetica;fontSize=11;" parent="1" vertex="1">
          <mxGeometry x="1630" y="390" width="100" height="30" as="geometry" />
        </mxCell>
        <mxCell id="zENboRITlYVIlkBi2DXG-54" value="" style="fontColor=#0066CC;verticalAlign=top;verticalLabelPosition=bottom;labelPosition=center;align=center;html=1;outlineConnect=0;fillColor=#CCCCCC;strokeColor=#6881B3;gradientColor=none;gradientDirection=north;strokeWidth=2;shape=mxgraph.networks.load_balancer;fontFamily=Helvetica;fontSize=11;" parent="1" vertex="1">
          <mxGeometry x="1630" y="494.5" width="100" height="30" as="geometry" />
        </mxCell>
        <mxCell id="zENboRITlYVIlkBi2DXG-55" value="" style="fontColor=#0066CC;verticalAlign=top;verticalLabelPosition=bottom;labelPosition=center;align=center;html=1;outlineConnect=0;fillColor=#CCCCCC;strokeColor=#6881B3;gradientColor=none;gradientDirection=north;strokeWidth=2;shape=mxgraph.networks.load_balancer;fontFamily=Helvetica;fontSize=11;" parent="1" vertex="1">
          <mxGeometry x="1630" y="600" width="100" height="30" as="geometry" />
        </mxCell>
        <mxCell id="zENboRITlYVIlkBi2DXG-56" value="" style="endArrow=none;html=1;rounded=0;labelBackgroundColor=default;strokeColor=default;fontFamily=Helvetica;fontSize=11;fontColor=default;startSize=0;endSize=0;shape=connector;jumpStyle=gap;edgeStyle=orthogonalEdgeStyle;entryX=0.914;entryY=0.391;entryDx=0;entryDy=0;entryPerimeter=0;exitX=0;exitY=0.5;exitDx=0;exitDy=0;exitPerimeter=0;" parent="1" source="zENboRITlYVIlkBi2DXG-53" target="zENboRITlYVIlkBi2DXG-32" edge="1">
          <mxGeometry width="50" height="50" relative="1" as="geometry">
            <mxPoint x="1090" y="405" as="sourcePoint" />
            <mxPoint x="1265.4" y="484.5" as="targetPoint" />
            <Array as="points">
              <mxPoint x="1540" y="405" />
              <mxPoint x="1540" y="474" />
            </Array>
          </mxGeometry>
        </mxCell>
        <mxCell id="zENboRITlYVIlkBi2DXG-57" value="" style="endArrow=none;html=1;rounded=0;labelBackgroundColor=default;strokeColor=default;fontFamily=Helvetica;fontSize=11;fontColor=default;startSize=0;endSize=0;shape=connector;jumpStyle=gap;edgeStyle=orthogonalEdgeStyle;entryX=0.96;entryY=0.7;entryDx=0;entryDy=0;entryPerimeter=0;" parent="1" target="zENboRITlYVIlkBi2DXG-32" edge="1">
          <mxGeometry width="50" height="50" relative="1" as="geometry">
            <mxPoint x="1630" y="505" as="sourcePoint" />
            <mxPoint x="1451.08" y="483.5999999999999" as="targetPoint" />
            <Array as="points">
              <mxPoint x="1630" y="505" />
              <mxPoint x="1580" y="505" />
            </Array>
          </mxGeometry>
        </mxCell>
        <mxCell id="zENboRITlYVIlkBi2DXG-60" value="" style="endArrow=none;html=1;rounded=0;labelBackgroundColor=default;strokeColor=default;fontFamily=Helvetica;fontSize=11;fontColor=default;startSize=0;endSize=0;shape=connector;jumpStyle=gap;edgeStyle=orthogonalEdgeStyle;exitX=0;exitY=0.5;exitDx=0;exitDy=0;exitPerimeter=0;" parent="1" source="zENboRITlYVIlkBi2DXG-55" edge="1">
          <mxGeometry width="50" height="50" relative="1" as="geometry">
            <mxPoint x="1090" y="625" as="sourcePoint" />
            <mxPoint x="1440" y="615" as="targetPoint" />
            <Array as="points">
              <mxPoint x="1440" y="615" />
            </Array>
          </mxGeometry>
        </mxCell>
        <mxCell id="zENboRITlYVIlkBi2DXG-61" value="&lt;b&gt;&lt;font color=&quot;#3333ff&quot; style=&quot;font-size: 30px;&quot;&gt;Data center&lt;/font&gt;&lt;/b&gt;" style="text;html=1;strokeColor=none;fillColor=none;align=center;verticalAlign=middle;whiteSpace=wrap;rounded=0;fontFamily=Helvetica;fontSize=11;fontColor=default;" parent="1" vertex="1">
          <mxGeometry x="1890" y="730" width="170" height="30" as="geometry" />
        </mxCell>
        <mxCell id="zENboRITlYVIlkBi2DXG-62" value="" style="image;html=1;image=img/lib/clip_art/networking/Firewall_02_128x128.png" parent="1" vertex="1">
          <mxGeometry x="2030" y="469.5" width="80" height="80" as="geometry" />
        </mxCell>
        <mxCell id="zENboRITlYVIlkBi2DXG-63" value="" style="sketch=0;points=[[0.015,0.015,0],[0.985,0.015,0],[0.985,0.985,0],[0.015,0.985,0],[0.25,0,0],[0.5,0,0],[0.75,0,0],[1,0.25,0],[1,0.5,0],[1,0.75,0],[0.75,1,0],[0.5,1,0],[0.25,1,0],[0,0.75,0],[0,0.5,0],[0,0.25,0]];verticalLabelPosition=bottom;html=1;verticalAlign=top;aspect=fixed;align=center;pointerEvents=1;shape=mxgraph.cisco19.rect;prIcon=l3_switch;fillColor=#FAFAFA;strokeColor=#005073;fontFamily=Helvetica;fontSize=11;fontColor=default;" parent="1" vertex="1">
          <mxGeometry x="1830" y="464.5" width="90" height="90" as="geometry" />
        </mxCell>
        <mxCell id="zENboRITlYVIlkBi2DXG-64" value="" style="endArrow=none;html=1;rounded=0;labelBackgroundColor=default;strokeColor=default;fontFamily=Helvetica;fontSize=11;fontColor=default;startSize=0;endSize=0;shape=connector;jumpStyle=gap;edgeStyle=orthogonalEdgeStyle;exitX=0;exitY=0.5;exitDx=0;exitDy=0;exitPerimeter=0;entryX=1;entryY=0.5;entryDx=0;entryDy=0;entryPerimeter=0;" parent="1" source="zENboRITlYVIlkBi2DXG-63" target="zENboRITlYVIlkBi2DXG-53" edge="1">
          <mxGeometry width="50" height="50" relative="1" as="geometry">
            <mxPoint x="1640" y="625" as="sourcePoint" />
            <mxPoint x="1450" y="625" as="targetPoint" />
            <Array as="points">
              <mxPoint x="1770" y="510" />
              <mxPoint x="1770" y="405" />
            </Array>
          </mxGeometry>
        </mxCell>
        <mxCell id="zENboRITlYVIlkBi2DXG-65" value="" style="endArrow=none;html=1;rounded=0;labelBackgroundColor=default;strokeColor=default;fontFamily=Helvetica;fontSize=11;fontColor=default;startSize=0;endSize=0;shape=connector;jumpStyle=gap;edgeStyle=orthogonalEdgeStyle;exitX=0;exitY=0.5;exitDx=0;exitDy=0;exitPerimeter=0;entryX=1;entryY=0.5;entryDx=0;entryDy=0;entryPerimeter=0;" parent="1" source="zENboRITlYVIlkBi2DXG-63" target="zENboRITlYVIlkBi2DXG-54" edge="1">
          <mxGeometry width="50" height="50" relative="1" as="geometry">
            <mxPoint x="1840" y="519.5" as="sourcePoint" />
            <mxPoint x="1740" y="415" as="targetPoint" />
            <Array as="points">
              <mxPoint x="1780" y="510" />
              <mxPoint x="1730" y="510" />
            </Array>
          </mxGeometry>
        </mxCell>
        <mxCell id="zENboRITlYVIlkBi2DXG-66" value="" style="endArrow=none;html=1;rounded=0;labelBackgroundColor=default;strokeColor=default;fontFamily=Helvetica;fontSize=11;fontColor=default;startSize=0;endSize=0;shape=connector;jumpStyle=gap;edgeStyle=orthogonalEdgeStyle;entryX=1;entryY=0.5;entryDx=0;entryDy=0;entryPerimeter=0;" parent="1" target="zENboRITlYVIlkBi2DXG-55" edge="1">
          <mxGeometry width="50" height="50" relative="1" as="geometry">
            <mxPoint x="1830" y="510" as="sourcePoint" />
            <mxPoint x="1750" y="425" as="targetPoint" />
            <Array as="points">
              <mxPoint x="1770" y="510" />
              <mxPoint x="1770" y="615" />
            </Array>
          </mxGeometry>
        </mxCell>
        <mxCell id="zENboRITlYVIlkBi2DXG-67" value="" style="endArrow=none;html=1;rounded=0;labelBackgroundColor=default;strokeColor=default;fontFamily=Helvetica;fontSize=11;fontColor=default;startSize=0;endSize=0;shape=connector;jumpStyle=gap;edgeStyle=orthogonalEdgeStyle;exitX=0;exitY=0.5;exitDx=0;exitDy=0;entryX=1;entryY=0.5;entryDx=0;entryDy=0;entryPerimeter=0;" parent="1" source="zENboRITlYVIlkBi2DXG-62" target="zENboRITlYVIlkBi2DXG-63" edge="1">
          <mxGeometry width="50" height="50" relative="1" as="geometry">
            <mxPoint x="1860" y="539.5" as="sourcePoint" />
            <mxPoint x="1760" y="435" as="targetPoint" />
            <Array as="points">
              <mxPoint x="1960" y="510" />
              <mxPoint x="1920" y="510" />
            </Array>
          </mxGeometry>
        </mxCell>
        <mxCell id="zENboRITlYVIlkBi2DXG-73" value="" style="strokeColor=#666666;html=1;verticalLabelPosition=bottom;labelBackgroundColor=#ffffff;verticalAlign=top;outlineConnect=0;shadow=0;dashed=0;shape=mxgraph.rack.general.server_1;fontFamily=Helvetica;fontSize=13;fontColor=#000000;" parent="1" vertex="1">
          <mxGeometry x="2300" y="300" width="60" height="110" as="geometry" />
        </mxCell>
        <mxCell id="zENboRITlYVIlkBi2DXG-74" value="" style="strokeColor=#666666;html=1;verticalLabelPosition=bottom;labelBackgroundColor=#ffffff;verticalAlign=top;outlineConnect=0;shadow=0;dashed=0;shape=mxgraph.rack.general.server_1;fontFamily=Helvetica;fontSize=13;fontColor=#000000;" parent="1" vertex="1">
          <mxGeometry x="2300" y="444.5" width="60" height="110" as="geometry" />
        </mxCell>
        <mxCell id="zENboRITlYVIlkBi2DXG-75" value="" style="strokeColor=#666666;html=1;verticalLabelPosition=bottom;labelBackgroundColor=#ffffff;verticalAlign=top;outlineConnect=0;shadow=0;dashed=0;shape=mxgraph.rack.general.server_1;fontFamily=Helvetica;fontSize=13;fontColor=#000000;" parent="1" vertex="1">
          <mxGeometry x="2300" y="590" width="60" height="110" as="geometry" />
        </mxCell>
        <mxCell id="zENboRITlYVIlkBi2DXG-76" value="" style="endArrow=none;html=1;rounded=0;labelBackgroundColor=default;strokeColor=default;fontFamily=Helvetica;fontSize=11;fontColor=default;startSize=0;endSize=0;shape=connector;jumpStyle=gap;edgeStyle=orthogonalEdgeStyle;exitX=1;exitY=0.5;exitDx=0;exitDy=0;" parent="1" source="zENboRITlYVIlkBi2DXG-62" target="zENboRITlYVIlkBi2DXG-73" edge="1">
          <mxGeometry width="50" height="50" relative="1" as="geometry">
            <mxPoint x="2040" y="519.5" as="sourcePoint" />
            <mxPoint x="1930" y="519.5" as="targetPoint" />
            <Array as="points">
              <mxPoint x="2220" y="510" />
              <mxPoint x="2220" y="355" />
            </Array>
          </mxGeometry>
        </mxCell>
        <mxCell id="zENboRITlYVIlkBi2DXG-77" value="" style="endArrow=none;html=1;rounded=0;labelBackgroundColor=default;strokeColor=default;fontFamily=Helvetica;fontSize=11;fontColor=default;startSize=0;endSize=0;shape=connector;jumpStyle=gap;edgeStyle=orthogonalEdgeStyle;entryX=1;entryY=0.5;entryDx=0;entryDy=0;" parent="1" source="zENboRITlYVIlkBi2DXG-74" target="zENboRITlYVIlkBi2DXG-62" edge="1">
          <mxGeometry width="50" height="50" relative="1" as="geometry">
            <mxPoint x="2050" y="529.5" as="sourcePoint" />
            <mxPoint x="1940" y="529.5" as="targetPoint" />
            <Array as="points">
              <mxPoint x="2220" y="510" />
            </Array>
          </mxGeometry>
        </mxCell>
        <mxCell id="zENboRITlYVIlkBi2DXG-78" value="" style="endArrow=none;html=1;rounded=0;labelBackgroundColor=default;strokeColor=default;fontFamily=Helvetica;fontSize=11;fontColor=default;startSize=0;endSize=0;shape=connector;jumpStyle=gap;edgeStyle=orthogonalEdgeStyle;exitX=1;exitY=0.5;exitDx=0;exitDy=0;" parent="1" source="zENboRITlYVIlkBi2DXG-62" target="zENboRITlYVIlkBi2DXG-75" edge="1">
          <mxGeometry width="50" height="50" relative="1" as="geometry">
            <mxPoint x="2060" y="539.5" as="sourcePoint" />
            <mxPoint x="1950" y="539.5" as="targetPoint" />
            <Array as="points">
              <mxPoint x="2220" y="510" />
              <mxPoint x="2220" y="645" />
            </Array>
          </mxGeometry>
        </mxCell>
        <mxCell id="zENboRITlYVIlkBi2DXG-79" value="&lt;font size=&quot;1&quot; color=&quot;#000000&quot;&gt;&lt;span style=&quot;font-size: 13px;&quot;&gt;&lt;b&gt;Primary DC&lt;/b&gt;&lt;/span&gt;&lt;/font&gt;" style="text;html=1;strokeColor=none;fillColor=none;align=center;verticalAlign=middle;whiteSpace=wrap;rounded=0;fontFamily=Helvetica;fontSize=12;fontColor=#3333FF;" parent="1" vertex="1">
          <mxGeometry x="2380" y="340" width="90" height="30" as="geometry" />
        </mxCell>
        <mxCell id="zENboRITlYVIlkBi2DXG-80" value="&lt;font size=&quot;1&quot; color=&quot;#000000&quot;&gt;&lt;span style=&quot;font-size: 13px;&quot;&gt;&lt;b&gt;Secondary DC&lt;/b&gt;&lt;/span&gt;&lt;/font&gt;" style="text;html=1;strokeColor=none;fillColor=none;align=center;verticalAlign=middle;whiteSpace=wrap;rounded=0;fontFamily=Helvetica;fontSize=12;fontColor=#3333FF;" parent="1" vertex="1">
          <mxGeometry x="2375" y="494.5" width="95" height="30" as="geometry" />
        </mxCell>
        <mxCell id="zENboRITlYVIlkBi2DXG-81" value="&lt;font color=&quot;#000000&quot;&gt;&lt;span style=&quot;font-size: 13px;&quot;&gt;&lt;b&gt;vSphere&lt;/b&gt;&lt;/span&gt;&lt;/font&gt;" style="text;html=1;strokeColor=none;fillColor=none;align=center;verticalAlign=middle;whiteSpace=wrap;rounded=0;fontFamily=Helvetica;fontSize=12;fontColor=#3333FF;" parent="1" vertex="1">
          <mxGeometry x="2375" y="630" width="95" height="30" as="geometry" />
        </mxCell>
        <mxCell id="zENboRITlYVIlkBi2DXG-82" value="" style="fontColor=#0066CC;verticalAlign=top;verticalLabelPosition=bottom;labelPosition=center;align=center;html=1;outlineConnect=0;fillColor=#CCCCCC;strokeColor=#6881B3;gradientColor=none;gradientDirection=north;strokeWidth=2;shape=mxgraph.networks.load_balancer;fontFamily=Helvetica;fontSize=11;" parent="1" vertex="1">
          <mxGeometry x="1010" y="810" width="100" height="30" as="geometry" />
        </mxCell>
        <mxCell id="zENboRITlYVIlkBi2DXG-83" value="" style="sketch=0;points=[[0.015,0.015,0],[0.985,0.015,0],[0.985,0.985,0],[0.015,0.985,0],[0.25,0,0],[0.5,0,0],[0.75,0,0],[1,0.25,0],[1,0.5,0],[1,0.75,0],[0.75,1,0],[0.5,1,0],[0.25,1,0],[0,0.75,0],[0,0.5,0],[0,0.25,0]];verticalLabelPosition=bottom;html=1;verticalAlign=top;aspect=fixed;align=center;pointerEvents=1;shape=mxgraph.cisco19.rect;prIcon=l3_switch;fillColor=#FAFAFA;strokeColor=#005073;fontFamily=Helvetica;fontSize=11;fontColor=default;" parent="1" vertex="1">
          <mxGeometry x="1015" y="870" width="90" height="90" as="geometry" />
        </mxCell>
        <mxCell id="zENboRITlYVIlkBi2DXG-84" value="" style="image;html=1;image=img/lib/clip_art/networking/Firewall_02_128x128.png" parent="1" vertex="1">
          <mxGeometry x="1020" y="990" width="80" height="80" as="geometry" />
        </mxCell>
        <mxCell id="zENboRITlYVIlkBi2DXG-85" value="" style="sketch=0;points=[[0.015,0.015,0],[0.985,0.015,0],[0.985,0.985,0],[0.015,0.985,0],[0.25,0,0],[0.5,0,0],[0.75,0,0],[1,0.25,0],[1,0.5,0],[1,0.75,0],[0.75,1,0],[0.5,1,0],[0.25,1,0],[0,0.75,0],[0,0.5,0],[0,0.25,0]];verticalLabelPosition=bottom;html=1;verticalAlign=top;aspect=fixed;align=center;pointerEvents=1;shape=mxgraph.cisco19.rect;prIcon=l2_switch;fillColor=#FAFAFA;strokeColor=#005073;" parent="1" vertex="1">
          <mxGeometry x="1020" y="1100" width="80" height="80" as="geometry" />
        </mxCell>
        <mxCell id="zENboRITlYVIlkBi2DXG-89" value="&lt;b&gt;&lt;font style=&quot;font-size: 20px;&quot;&gt;Network loadbalancer&lt;/font&gt;&lt;/b&gt;" style="text;html=1;strokeColor=none;fillColor=none;align=center;verticalAlign=middle;whiteSpace=wrap;rounded=0;fontFamily=Helvetica;fontSize=13;fontColor=#000000;" parent="1" vertex="1">
          <mxGeometry x="1150" y="810" width="170" height="30" as="geometry" />
        </mxCell>
        <mxCell id="zENboRITlYVIlkBi2DXG-90" value="&lt;b&gt;&lt;font style=&quot;font-size: 20px;&quot;&gt;SW layer 3&lt;/font&gt;&lt;/b&gt;" style="text;html=1;strokeColor=none;fillColor=none;align=center;verticalAlign=middle;whiteSpace=wrap;rounded=0;fontFamily=Helvetica;fontSize=13;fontColor=#000000;" parent="1" vertex="1">
          <mxGeometry x="1150" y="900" width="170" height="30" as="geometry" />
        </mxCell>
        <mxCell id="zENboRITlYVIlkBi2DXG-91" value="&lt;b&gt;&lt;font style=&quot;font-size: 20px;&quot;&gt;Firewall&lt;/font&gt;&lt;/b&gt;" style="text;html=1;strokeColor=none;fillColor=none;align=center;verticalAlign=middle;whiteSpace=wrap;rounded=0;fontFamily=Helvetica;fontSize=13;fontColor=#000000;" parent="1" vertex="1">
          <mxGeometry x="1150" y="1015" width="170" height="30" as="geometry" />
        </mxCell>
        <mxCell id="zENboRITlYVIlkBi2DXG-92" value="&lt;b&gt;&lt;font style=&quot;font-size: 20px;&quot;&gt;SW layer 2&lt;/font&gt;&lt;/b&gt;" style="text;html=1;strokeColor=none;fillColor=none;align=center;verticalAlign=middle;whiteSpace=wrap;rounded=0;fontFamily=Helvetica;fontSize=13;fontColor=#000000;" parent="1" vertex="1">
          <mxGeometry x="1140" y="1125" width="170" height="30" as="geometry" />
        </mxCell>
        <mxCell id="NgA05zY4deObh70Tvvoy-1" value="" style="strokeColor=#666666;html=1;verticalLabelPosition=bottom;labelBackgroundColor=#ffffff;verticalAlign=top;outlineConnect=0;shadow=0;dashed=0;shape=mxgraph.rack.general.server_1;fontFamily=Helvetica;fontSize=13;fontColor=#000000;" vertex="1" parent="1">
          <mxGeometry x="1025" y="1300" width="70" height="150" as="geometry" />
        </mxCell>
        <mxCell id="NgA05zY4deObh70Tvvoy-2" value="" style="html=1;verticalLabelPosition=bottom;align=center;labelBackgroundColor=#ffffff;verticalAlign=top;strokeWidth=2;strokeColor=#0080F0;shadow=0;dashed=0;shape=mxgraph.ios7.icons.data;" vertex="1" parent="1">
          <mxGeometry x="850" y="1820" width="110" height="120" as="geometry" />
        </mxCell>
        <mxCell id="NgA05zY4deObh70Tvvoy-3" value="" style="html=1;verticalLabelPosition=bottom;align=center;labelBackgroundColor=#ffffff;verticalAlign=top;strokeWidth=2;strokeColor=#0080F0;shadow=0;dashed=0;shape=mxgraph.ios7.icons.data;" vertex="1" parent="1">
          <mxGeometry x="1180" y="1820" width="110" height="120" as="geometry" />
        </mxCell>
        <mxCell id="NgA05zY4deObh70Tvvoy-4" value="" style="html=1;verticalLabelPosition=bottom;align=center;labelBackgroundColor=#ffffff;verticalAlign=top;strokeWidth=2;strokeColor=#0080F0;shadow=0;dashed=0;shape=mxgraph.ios7.icons.data;" vertex="1" parent="1">
          <mxGeometry x="1005" y="1580" width="110" height="120" as="geometry" />
        </mxCell>
        <mxCell id="NgA05zY4deObh70Tvvoy-5" value="" style="endArrow=classic;html=1;rounded=0;strokeColor=#FF0000;" edge="1" parent="1">
          <mxGeometry width="50" height="50" relative="1" as="geometry">
            <mxPoint x="1060" y="1460" as="sourcePoint" />
            <mxPoint x="1060" y="1570" as="targetPoint" />
          </mxGeometry>
        </mxCell>
        <mxCell id="NgA05zY4deObh70Tvvoy-9" value="" style="shape=flexArrow;endArrow=classic;startArrow=classic;html=1;rounded=0;strokeColor=#000000;" edge="1" parent="1">
          <mxGeometry width="100" height="100" relative="1" as="geometry">
            <mxPoint x="980" y="1810" as="sourcePoint" />
            <mxPoint x="1050" y="1710" as="targetPoint" />
          </mxGeometry>
        </mxCell>
        <mxCell id="NgA05zY4deObh70Tvvoy-10" value="" style="shape=flexArrow;endArrow=classic;startArrow=classic;html=1;rounded=0;strokeColor=#000000;" edge="1" parent="1">
          <mxGeometry width="100" height="100" relative="1" as="geometry">
            <mxPoint x="1160" y="1810" as="sourcePoint" />
            <mxPoint x="1080" y="1710" as="targetPoint" />
          </mxGeometry>
        </mxCell>
        <mxCell id="NgA05zY4deObh70Tvvoy-11" value="" style="shape=flexArrow;endArrow=classic;startArrow=classic;html=1;rounded=0;strokeColor=#000000;" edge="1" parent="1">
          <mxGeometry width="100" height="100" relative="1" as="geometry">
            <mxPoint x="1015" y="1818.95" as="sourcePoint" />
            <mxPoint x="1125" y="1818.95" as="targetPoint" />
          </mxGeometry>
        </mxCell>
        <mxCell id="NgA05zY4deObh70Tvvoy-12" value="" style="endArrow=classic;html=1;rounded=0;strokeColor=#000000;exitX=0.455;exitY=-0.01;exitDx=0;exitDy=0;exitPerimeter=0;" edge="1" parent="1" source="NgA05zY4deObh70Tvvoy-2" target="NgA05zY4deObh70Tvvoy-1">
          <mxGeometry width="50" height="50" relative="1" as="geometry">
            <mxPoint x="890" y="1740" as="sourcePoint" />
            <mxPoint x="940" y="1690" as="targetPoint" />
          </mxGeometry>
        </mxCell>
        <mxCell id="NgA05zY4deObh70Tvvoy-13" value="" style="endArrow=classic;html=1;rounded=0;strokeColor=#000000;exitX=0.561;exitY=0.004;exitDx=0;exitDy=0;exitPerimeter=0;" edge="1" parent="1" source="NgA05zY4deObh70Tvvoy-3" target="NgA05zY4deObh70Tvvoy-1">
          <mxGeometry width="50" height="50" relative="1" as="geometry">
            <mxPoint x="890" y="1740" as="sourcePoint" />
            <mxPoint x="1100" y="1450" as="targetPoint" />
          </mxGeometry>
        </mxCell>
        <mxCell id="NgA05zY4deObh70Tvvoy-14" value="" style="endArrow=classic;html=1;rounded=0;strokeColor=#000000;" edge="1" parent="1">
          <mxGeometry width="50" height="50" relative="1" as="geometry">
            <mxPoint x="1050" y="1570" as="sourcePoint" />
            <mxPoint x="1050" y="1460" as="targetPoint" />
          </mxGeometry>
        </mxCell>
        <mxCell id="NgA05zY4deObh70Tvvoy-15" value="" style="endArrow=classic;html=1;rounded=0;strokeColor=#000000;" edge="1" parent="1">
          <mxGeometry width="50" height="50" relative="1" as="geometry">
            <mxPoint x="1230" y="1460" as="sourcePoint" />
            <mxPoint x="1320" y="1460" as="targetPoint" />
          </mxGeometry>
        </mxCell>
        <mxCell id="NgA05zY4deObh70Tvvoy-16" value="" style="endArrow=classic;html=1;rounded=0;strokeColor=#FF0000;" edge="1" parent="1">
          <mxGeometry width="50" height="50" relative="1" as="geometry">
            <mxPoint x="1230" y="1490" as="sourcePoint" />
            <mxPoint x="1320" y="1490" as="targetPoint" />
          </mxGeometry>
        </mxCell>
        <mxCell id="NgA05zY4deObh70Tvvoy-17" value="&lt;b&gt;Data sync&lt;/b&gt;" style="text;html=1;strokeColor=none;fillColor=none;align=center;verticalAlign=middle;whiteSpace=wrap;rounded=0;" vertex="1" parent="1">
          <mxGeometry x="1035" y="1760" width="60" height="30" as="geometry" />
        </mxCell>
        <mxCell id="NgA05zY4deObh70Tvvoy-18" value="&lt;b&gt;Slave 1&lt;/b&gt;" style="text;html=1;strokeColor=none;fillColor=none;align=center;verticalAlign=middle;whiteSpace=wrap;rounded=0;" vertex="1" parent="1">
          <mxGeometry x="870" y="1950" width="60" height="30" as="geometry" />
        </mxCell>
        <mxCell id="fAZxsIS9VsGvK_90S3Af-1" value="&lt;b&gt;Slave 2&lt;/b&gt;" style="text;html=1;strokeColor=none;fillColor=none;align=center;verticalAlign=middle;whiteSpace=wrap;rounded=0;" vertex="1" parent="1">
          <mxGeometry x="1205" y="1950" width="60" height="30" as="geometry" />
        </mxCell>
        <mxCell id="fAZxsIS9VsGvK_90S3Af-2" value="&lt;b&gt;Master&lt;/b&gt;" style="text;html=1;strokeColor=none;fillColor=none;align=center;verticalAlign=middle;whiteSpace=wrap;rounded=0;" vertex="1" parent="1">
          <mxGeometry x="1030" y="1640" width="60" height="30" as="geometry" />
        </mxCell>
        <mxCell id="fAZxsIS9VsGvK_90S3Af-3" value="&lt;b&gt;Read&lt;/b&gt;" style="text;html=1;strokeColor=none;fillColor=none;align=center;verticalAlign=middle;whiteSpace=wrap;rounded=0;" vertex="1" parent="1">
          <mxGeometry x="1340" y="1440" width="60" height="30" as="geometry" />
        </mxCell>
        <mxCell id="fAZxsIS9VsGvK_90S3Af-4" value="&lt;b&gt;&lt;font color=&quot;#ff0000&quot;&gt;Write&lt;/font&gt;&lt;/b&gt;" style="text;html=1;strokeColor=none;fillColor=none;align=center;verticalAlign=middle;whiteSpace=wrap;rounded=0;" vertex="1" parent="1">
          <mxGeometry x="1340" y="1480" width="60" height="30" as="geometry" />
        </mxCell>
        <mxCell id="fAZxsIS9VsGvK_90S3Af-5" value="&lt;b&gt;Web server&lt;/b&gt;" style="text;html=1;strokeColor=none;fillColor=none;align=center;verticalAlign=middle;whiteSpace=wrap;rounded=0;" vertex="1" parent="1">
          <mxGeometry x="955" y="1370" width="60" height="30" as="geometry" />
        </mxCell>
        <mxCell id="fAZxsIS9VsGvK_90S3Af-6" value="Internet" style="ellipse;shape=cloud;whiteSpace=wrap;html=1;fontFamily=Helvetica;fontSize=30;fontColor=default;" vertex="1" parent="1">
          <mxGeometry x="101.66" y="1170" width="220" height="100" as="geometry" />
        </mxCell>
        <mxCell id="setHSFp2AwnfgEmVi9Lt-1" value="" style="fontColor=#0066CC;verticalAlign=top;verticalLabelPosition=bottom;labelPosition=center;align=center;html=1;outlineConnect=0;fillColor=#CCCCCC;strokeColor=#6881B3;gradientColor=none;gradientDirection=north;strokeWidth=2;shape=mxgraph.networks.load_balancer;fontFamily=Helvetica;fontSize=11;" vertex="1" parent="1">
          <mxGeometry x="70" y="1370" width="100" height="30" as="geometry" />
        </mxCell>
        <mxCell id="setHSFp2AwnfgEmVi9Lt-2" value="" style="fontColor=#0066CC;verticalAlign=top;verticalLabelPosition=bottom;labelPosition=center;align=center;html=1;outlineConnect=0;fillColor=#CCCCCC;strokeColor=#6881B3;gradientColor=none;gradientDirection=north;strokeWidth=2;shape=mxgraph.networks.load_balancer;fontFamily=Helvetica;fontSize=11;" vertex="1" parent="1">
          <mxGeometry x="240" y="1370" width="100" height="30" as="geometry" />
        </mxCell>
        <mxCell id="setHSFp2AwnfgEmVi9Lt-5" value="" style="strokeColor=#666666;html=1;verticalLabelPosition=bottom;labelBackgroundColor=#ffffff;verticalAlign=top;outlineConnect=0;shadow=0;dashed=0;shape=mxgraph.rack.general.server_1;fontFamily=Helvetica;fontSize=13;fontColor=#000000;" vertex="1" parent="1">
          <mxGeometry x="-280" y="1760" width="70" height="150" as="geometry" />
        </mxCell>
        <mxCell id="setHSFp2AwnfgEmVi9Lt-6" value="" style="strokeColor=#666666;html=1;verticalLabelPosition=bottom;labelBackgroundColor=#ffffff;verticalAlign=top;outlineConnect=0;shadow=0;dashed=0;shape=mxgraph.rack.general.server_1;fontFamily=Helvetica;fontSize=13;fontColor=#000000;" vertex="1" parent="1">
          <mxGeometry x="-280" y="2000" width="70" height="150" as="geometry" />
        </mxCell>
        <mxCell id="setHSFp2AwnfgEmVi9Lt-7" value="" style="strokeColor=#666666;html=1;verticalLabelPosition=bottom;labelBackgroundColor=#ffffff;verticalAlign=top;outlineConnect=0;shadow=0;dashed=0;shape=mxgraph.rack.general.server_1;fontFamily=Helvetica;fontSize=13;fontColor=#000000;" vertex="1" parent="1">
          <mxGeometry y="1820" width="70" height="150" as="geometry" />
        </mxCell>
        <mxCell id="setHSFp2AwnfgEmVi9Lt-8" value="" style="strokeColor=#666666;html=1;verticalLabelPosition=bottom;labelBackgroundColor=#ffffff;verticalAlign=top;outlineConnect=0;shadow=0;dashed=0;shape=mxgraph.rack.general.server_1;fontFamily=Helvetica;fontSize=13;fontColor=#000000;" vertex="1" parent="1">
          <mxGeometry x="340" y="1820" width="70" height="150" as="geometry" />
        </mxCell>
        <mxCell id="setHSFp2AwnfgEmVi9Lt-9" value="" style="strokeColor=#666666;html=1;verticalLabelPosition=bottom;labelBackgroundColor=#ffffff;verticalAlign=top;outlineConnect=0;shadow=0;dashed=0;shape=mxgraph.rack.general.server_1;fontFamily=Helvetica;fontSize=13;fontColor=#000000;" vertex="1" parent="1">
          <mxGeometry y="2090" width="70" height="150" as="geometry" />
        </mxCell>
        <mxCell id="setHSFp2AwnfgEmVi9Lt-10" value="" style="strokeColor=#666666;html=1;verticalLabelPosition=bottom;labelBackgroundColor=#ffffff;verticalAlign=top;outlineConnect=0;shadow=0;dashed=0;shape=mxgraph.rack.general.server_1;fontFamily=Helvetica;fontSize=13;fontColor=#000000;" vertex="1" parent="1">
          <mxGeometry x="350" y="2090" width="70" height="150" as="geometry" />
        </mxCell>
        <mxCell id="setHSFp2AwnfgEmVi9Lt-11" value="" style="html=1;verticalLabelPosition=bottom;align=center;labelBackgroundColor=#ffffff;verticalAlign=top;strokeWidth=2;strokeColor=#0080F0;shadow=0;dashed=0;shape=mxgraph.ios7.icons.data;" vertex="1" parent="1">
          <mxGeometry y="2350" width="110" height="120" as="geometry" />
        </mxCell>
        <mxCell id="setHSFp2AwnfgEmVi9Lt-12" value="" style="html=1;verticalLabelPosition=bottom;align=center;labelBackgroundColor=#ffffff;verticalAlign=top;strokeWidth=2;strokeColor=#0080F0;shadow=0;dashed=0;shape=mxgraph.ios7.icons.data;" vertex="1" parent="1">
          <mxGeometry x="320" y="2350" width="110" height="120" as="geometry" />
        </mxCell>
        <mxCell id="setHSFp2AwnfgEmVi9Lt-19" value="" style="endArrow=classic;html=1;rounded=0;strokeColor=#000000;fontColor=#FF0000;strokeWidth=2;" edge="1" parent="1">
          <mxGeometry width="50" height="50" relative="1" as="geometry">
            <mxPoint x="40" y="1990" as="sourcePoint" />
            <mxPoint x="40" y="2070" as="targetPoint" />
          </mxGeometry>
        </mxCell>
        <mxCell id="setHSFp2AwnfgEmVi9Lt-21" value="" style="endArrow=classic;html=1;rounded=0;strokeColor=#000000;fontColor=#FF0000;strokeWidth=2;" edge="1" parent="1">
          <mxGeometry width="50" height="50" relative="1" as="geometry">
            <mxPoint x="380" y="1990" as="sourcePoint" />
            <mxPoint x="380" y="2070" as="targetPoint" />
          </mxGeometry>
        </mxCell>
        <mxCell id="setHSFp2AwnfgEmVi9Lt-22" value="" style="endArrow=classic;html=1;rounded=0;strokeColor=#000000;fontColor=#FF0000;entryX=0.875;entryY=0.007;entryDx=0;entryDy=0;entryPerimeter=0;" edge="1" parent="1" target="setHSFp2AwnfgEmVi9Lt-18">
          <mxGeometry width="50" height="50" relative="1" as="geometry">
            <mxPoint x="388" y="2260" as="sourcePoint" />
            <mxPoint x="390" y="2080" as="targetPoint" />
          </mxGeometry>
        </mxCell>
        <mxCell id="setHSFp2AwnfgEmVi9Lt-23" value="" style="endArrow=classic;html=1;rounded=0;strokeColor=#000000;fontColor=#FF0000;exitX=0.128;exitY=1;exitDx=0;exitDy=0;exitPerimeter=0;entryX=0.122;entryY=-0.014;entryDx=0;entryDy=0;entryPerimeter=0;" edge="1" parent="1" source="setHSFp2AwnfgEmVi9Lt-16" target="setHSFp2AwnfgEmVi9Lt-18">
          <mxGeometry width="50" height="50" relative="1" as="geometry">
            <mxPoint x="400" y="2010" as="sourcePoint" />
            <mxPoint x="400" y="2090" as="targetPoint" />
          </mxGeometry>
        </mxCell>
        <mxCell id="setHSFp2AwnfgEmVi9Lt-29" value="" style="endArrow=classic;html=1;rounded=0;strokeColor=#000000;fontColor=#FF0000;entryX=0.25;entryY=0;entryDx=0;entryDy=0;strokeWidth=4;" edge="1" parent="1" target="setHSFp2AwnfgEmVi9Lt-17">
          <mxGeometry width="50" height="50" relative="1" as="geometry">
            <mxPoint x="125" y="1250" as="sourcePoint" />
            <mxPoint x="97.15999999999985" y="1498.7399999999998" as="targetPoint" />
          </mxGeometry>
        </mxCell>
        <mxCell id="setHSFp2AwnfgEmVi9Lt-30" value="" style="endArrow=classic;html=1;rounded=0;strokeColor=#000000;fontColor=#FF0000;entryX=0.5;entryY=0;entryDx=0;entryDy=0;exitX=0.445;exitY=0.963;exitDx=0;exitDy=0;exitPerimeter=0;strokeWidth=3;" edge="1" parent="1" source="fAZxsIS9VsGvK_90S3Af-6" target="setHSFp2AwnfgEmVi9Lt-17">
          <mxGeometry width="50" height="50" relative="1" as="geometry">
            <mxPoint x="105.79999999999973" y="1450" as="sourcePoint" />
            <mxPoint x="107.15999999999985" y="1508.7399999999998" as="targetPoint" />
          </mxGeometry>
        </mxCell>
        <mxCell id="setHSFp2AwnfgEmVi9Lt-31" value="" style="endArrow=classic;html=1;rounded=0;strokeColor=#000000;fontColor=#FF0000;exitX=0.8;exitY=0.8;exitDx=0;exitDy=0;exitPerimeter=0;entryX=0.75;entryY=0;entryDx=0;entryDy=0;strokeWidth=3;" edge="1" parent="1" source="fAZxsIS9VsGvK_90S3Af-6" target="setHSFp2AwnfgEmVi9Lt-17">
          <mxGeometry width="50" height="50" relative="1" as="geometry">
            <mxPoint x="115.79999999999973" y="1460" as="sourcePoint" />
            <mxPoint x="278" y="1340" as="targetPoint" />
          </mxGeometry>
        </mxCell>
        <mxCell id="setHSFp2AwnfgEmVi9Lt-33" value="" style="endArrow=classic;html=1;rounded=0;strokeColor=#000000;fontColor=#FF0000;entryX=1;entryY=0.75;entryDx=0;entryDy=0;exitX=0;exitY=0.5;exitDx=0;exitDy=0;edgeStyle=orthogonalEdgeStyle;strokeWidth=2;" edge="1" parent="1" source="setHSFp2AwnfgEmVi9Lt-16" target="setHSFp2AwnfgEmVi9Lt-13">
          <mxGeometry width="50" height="50" relative="1" as="geometry">
            <mxPoint x="-30" y="2010" as="sourcePoint" />
            <mxPoint x="20" y="1960" as="targetPoint" />
          </mxGeometry>
        </mxCell>
        <mxCell id="setHSFp2AwnfgEmVi9Lt-34" value="" style="endArrow=classic;html=1;rounded=0;strokeColor=#000000;fontColor=#FF0000;entryX=1;entryY=0.5;entryDx=0;entryDy=0;exitX=0;exitY=0.5;exitDx=0;exitDy=0;edgeStyle=orthogonalEdgeStyle;strokeWidth=2;" edge="1" parent="1" source="setHSFp2AwnfgEmVi9Lt-15" target="setHSFp2AwnfgEmVi9Lt-13">
          <mxGeometry width="50" height="50" relative="1" as="geometry">
            <mxPoint x="-13.340000000000146" y="2175" as="sourcePoint" />
            <mxPoint x="-160" y="2087.5" as="targetPoint" />
            <Array as="points">
              <mxPoint x="-90" y="1895" />
              <mxPoint x="-90" y="1955" />
            </Array>
          </mxGeometry>
        </mxCell>
        <mxCell id="setHSFp2AwnfgEmVi9Lt-39" value="&lt;font style=&quot;font-size: 20px;&quot; color=&quot;#000000&quot;&gt;&lt;b&gt;Loadbalance&lt;/b&gt;&lt;/font&gt;" style="text;html=1;strokeColor=none;fillColor=none;align=center;verticalAlign=middle;whiteSpace=wrap;rounded=0;dashed=1;strokeWidth=3;fontColor=#FF0000;" vertex="1" parent="1">
          <mxGeometry x="386.66" y="1370" width="60" height="30" as="geometry" />
        </mxCell>
        <mxCell id="setHSFp2AwnfgEmVi9Lt-41" value="&lt;font style=&quot;font-size: 20px;&quot; color=&quot;#000000&quot;&gt;&lt;b&gt;Front-end Layer&lt;/b&gt;&lt;/font&gt;" style="text;html=1;strokeColor=none;fillColor=none;align=center;verticalAlign=middle;whiteSpace=wrap;rounded=0;dashed=1;strokeWidth=3;fontColor=#FF0000;" vertex="1" parent="1">
          <mxGeometry x="131.66" y="1880" width="160" height="30" as="geometry" />
        </mxCell>
        <mxCell id="setHSFp2AwnfgEmVi9Lt-42" value="&lt;font style=&quot;font-size: 20px;&quot; color=&quot;#000000&quot;&gt;&lt;b&gt;Back-end Layer&lt;/b&gt;&lt;/font&gt;" style="text;html=1;strokeColor=none;fillColor=none;align=center;verticalAlign=middle;whiteSpace=wrap;rounded=0;dashed=1;strokeWidth=3;fontColor=#FF0000;" vertex="1" parent="1">
          <mxGeometry x="135" y="2130" width="160" height="30" as="geometry" />
        </mxCell>
        <mxCell id="setHSFp2AwnfgEmVi9Lt-43" value="&lt;font style=&quot;font-size: 20px;&quot; color=&quot;#000000&quot;&gt;&lt;b&gt;Data Store Layer&lt;/b&gt;&lt;/font&gt;" style="text;html=1;strokeColor=none;fillColor=none;align=center;verticalAlign=middle;whiteSpace=wrap;rounded=0;dashed=1;strokeWidth=3;fontColor=#FF0000;" vertex="1" parent="1">
          <mxGeometry x="125" y="2370" width="160" height="30" as="geometry" />
        </mxCell>
        <mxCell id="setHSFp2AwnfgEmVi9Lt-44" value="&lt;font style=&quot;font-size: 20px;&quot; color=&quot;#000000&quot;&gt;&lt;b&gt;Cache Layer&lt;/b&gt;&lt;/font&gt;" style="text;html=1;strokeColor=none;fillColor=none;align=center;verticalAlign=middle;whiteSpace=wrap;rounded=0;dashed=1;strokeWidth=3;fontColor=#FF0000;" vertex="1" parent="1">
          <mxGeometry x="-325" y="1930" width="160" height="30" as="geometry" />
        </mxCell>
        <mxCell id="setHSFp2AwnfgEmVi9Lt-46" value="" style="rounded=0;whiteSpace=wrap;html=1;fontColor=#FF0000;" vertex="1" parent="1">
          <mxGeometry x="-30" y="1525" width="470" height="180" as="geometry" />
        </mxCell>
        <mxCell id="setHSFp2AwnfgEmVi9Lt-47" value="" style="strokeColor=#666666;html=1;verticalLabelPosition=bottom;labelBackgroundColor=#ffffff;verticalAlign=top;outlineConnect=0;shadow=0;dashed=0;shape=mxgraph.rack.general.server_1;fontFamily=Helvetica;fontSize=13;fontColor=#000000;" vertex="1" parent="1">
          <mxGeometry y="1540" width="70" height="150" as="geometry" />
        </mxCell>
        <mxCell id="setHSFp2AwnfgEmVi9Lt-48" value="" style="strokeColor=#666666;html=1;verticalLabelPosition=bottom;labelBackgroundColor=#ffffff;verticalAlign=top;outlineConnect=0;shadow=0;dashed=0;shape=mxgraph.rack.general.server_1;fontFamily=Helvetica;fontSize=13;fontColor=#000000;" vertex="1" parent="1">
          <mxGeometry x="340" y="1540" width="70" height="150" as="geometry" />
        </mxCell>
        <mxCell id="setHSFp2AwnfgEmVi9Lt-49" value="&lt;font style=&quot;font-size: 20px;&quot; color=&quot;#000000&quot;&gt;&lt;b&gt;Front-cache Layer&lt;/b&gt;&lt;/font&gt;" style="text;html=1;strokeColor=none;fillColor=none;align=center;verticalAlign=middle;whiteSpace=wrap;rounded=0;dashed=1;strokeWidth=3;fontColor=#FF0000;" vertex="1" parent="1">
          <mxGeometry x="131.66" y="1570" width="160" height="30" as="geometry" />
        </mxCell>
        <mxCell id="setHSFp2AwnfgEmVi9Lt-50" value="" style="endArrow=classic;html=1;rounded=0;strokeColor=#000000;fontColor=#FF0000;exitX=0.25;exitY=1;exitDx=0;exitDy=0;entryX=0.323;entryY=0.011;entryDx=0;entryDy=0;entryPerimeter=0;strokeWidth=2;" edge="1" parent="1" source="setHSFp2AwnfgEmVi9Lt-17" target="setHSFp2AwnfgEmVi9Lt-46">
          <mxGeometry width="50" height="50" relative="1" as="geometry">
            <mxPoint x="50" y="2000" as="sourcePoint" />
            <mxPoint x="50" y="2080" as="targetPoint" />
          </mxGeometry>
        </mxCell>
        <mxCell id="setHSFp2AwnfgEmVi9Lt-51" value="" style="endArrow=classic;html=1;rounded=0;strokeColor=#000000;fontColor=#FF0000;exitX=0.75;exitY=1;exitDx=0;exitDy=0;entryX=0.651;entryY=-0.013;entryDx=0;entryDy=0;entryPerimeter=0;strokeWidth=2;" edge="1" parent="1" source="setHSFp2AwnfgEmVi9Lt-17" target="setHSFp2AwnfgEmVi9Lt-46">
          <mxGeometry width="50" height="50" relative="1" as="geometry">
            <mxPoint x="60" y="2010" as="sourcePoint" />
            <mxPoint x="60" y="2090" as="targetPoint" />
          </mxGeometry>
        </mxCell>
        <mxCell id="setHSFp2AwnfgEmVi9Lt-52" value="" style="rounded=0;whiteSpace=wrap;html=1;fontColor=#FF0000;dashed=1;strokeColor=#FF9933;strokeWidth=3;" vertex="1" parent="1">
          <mxGeometry x="-330" y="1270" width="30" height="30" as="geometry" />
        </mxCell>
        <mxCell id="setHSFp2AwnfgEmVi9Lt-53" value="" style="rounded=0;whiteSpace=wrap;html=1;fontColor=#FF0000;dashed=1;strokeColor=#FF0000;strokeWidth=3;" vertex="1" parent="1">
          <mxGeometry x="-330" y="1210" width="30" height="30" as="geometry" />
        </mxCell>
        <mxCell id="setHSFp2AwnfgEmVi9Lt-54" value="" style="rounded=0;whiteSpace=wrap;html=1;fontColor=#FF0000;dashed=1;strokeColor=#006633;strokeWidth=3;" vertex="1" parent="1">
          <mxGeometry x="-330" y="1330" width="30" height="30" as="geometry" />
        </mxCell>
        <mxCell id="setHSFp2AwnfgEmVi9Lt-55" value="&lt;font style=&quot;font-size: 20px;&quot;&gt;&lt;b style=&quot;&quot;&gt;Danger zone&lt;/b&gt;&lt;/font&gt;" style="text;html=1;strokeColor=none;fillColor=none;align=center;verticalAlign=middle;whiteSpace=wrap;rounded=0;dashed=1;strokeWidth=3;fontColor=#FF0000;" vertex="1" parent="1">
          <mxGeometry x="-300" y="1210" width="160" height="30" as="geometry" />
        </mxCell>
        <mxCell id="setHSFp2AwnfgEmVi9Lt-56" value="&lt;font color=&quot;#ff9933&quot; style=&quot;font-size: 20px;&quot;&gt;&lt;b style=&quot;&quot;&gt;Half-danger zone&lt;/b&gt;&lt;/font&gt;" style="text;html=1;strokeColor=none;fillColor=none;align=center;verticalAlign=middle;whiteSpace=wrap;rounded=0;dashed=1;strokeWidth=3;fontColor=#FF0000;" vertex="1" parent="1">
          <mxGeometry x="-300" y="1270" width="160" height="30" as="geometry" />
        </mxCell>
        <mxCell id="setHSFp2AwnfgEmVi9Lt-57" value="&lt;font color=&quot;#006633&quot; style=&quot;font-size: 20px;&quot;&gt;&lt;b style=&quot;&quot;&gt;Safe zone&lt;/b&gt;&lt;/font&gt;" style="text;html=1;strokeColor=none;fillColor=none;align=center;verticalAlign=middle;whiteSpace=wrap;rounded=0;dashed=1;strokeWidth=3;fontColor=#FF0000;" vertex="1" parent="1">
          <mxGeometry x="-290" y="1330" width="160" height="30" as="geometry" />
        </mxCell>
        <mxCell id="setHSFp2AwnfgEmVi9Lt-58" value="" style="endArrow=classic;html=1;rounded=0;strokeColor=#000000;fontSize=20;fontColor=#006633;entryX=0.167;entryY=-0.002;entryDx=0;entryDy=0;entryPerimeter=0;exitX=0.167;exitY=1.003;exitDx=0;exitDy=0;exitPerimeter=0;strokeWidth=2;" edge="1" parent="1" source="setHSFp2AwnfgEmVi9Lt-46" target="setHSFp2AwnfgEmVi9Lt-15">
          <mxGeometry width="50" height="50" relative="1" as="geometry">
            <mxPoint x="-80" y="1790" as="sourcePoint" />
            <mxPoint x="-30" y="1740" as="targetPoint" />
          </mxGeometry>
        </mxCell>
        <mxCell id="setHSFp2AwnfgEmVi9Lt-59" value="" style="endArrow=classic;html=1;rounded=0;strokeColor=#000000;fontSize=20;fontColor=#006633;entryX=0.86;entryY=-0.011;entryDx=0;entryDy=0;entryPerimeter=0;exitX=0.86;exitY=1.007;exitDx=0;exitDy=0;exitPerimeter=0;strokeWidth=2;" edge="1" parent="1" source="setHSFp2AwnfgEmVi9Lt-46" target="setHSFp2AwnfgEmVi9Lt-15">
          <mxGeometry width="50" height="50" relative="1" as="geometry">
            <mxPoint x="-80" y="1790" as="sourcePoint" />
            <mxPoint x="-30" y="1740" as="targetPoint" />
          </mxGeometry>
        </mxCell>
        <mxCell id="setHSFp2AwnfgEmVi9Lt-60" value="" style="endArrow=classic;html=1;rounded=0;strokeColor=#000000;fontSize=20;fontColor=#006633;entryX=0.167;entryY=-0.002;entryDx=0;entryDy=0;entryPerimeter=0;strokeWidth=3;" edge="1" parent="1">
          <mxGeometry width="50" height="50" relative="1" as="geometry">
            <mxPoint x="-335" y="1480.9" as="sourcePoint" />
            <mxPoint x="-294.9999999999998" y="1480.0000000000005" as="targetPoint" />
          </mxGeometry>
        </mxCell>
        <mxCell id="setHSFp2AwnfgEmVi9Lt-61" value="" style="endArrow=classic;html=1;rounded=0;strokeColor=#000000;fontSize=20;fontColor=#006633;entryX=0.167;entryY=-0.002;entryDx=0;entryDy=0;entryPerimeter=0;strokeWidth=2;" edge="1" parent="1">
          <mxGeometry width="50" height="50" relative="1" as="geometry">
            <mxPoint x="-335" y="1520.9" as="sourcePoint" />
            <mxPoint x="-295" y="1520.0000000000005" as="targetPoint" />
          </mxGeometry>
        </mxCell>
        <mxCell id="setHSFp2AwnfgEmVi9Lt-63" value="" style="endArrow=none;dashed=1;html=1;dashPattern=1 3;strokeWidth=1;rounded=0;strokeColor=#000000;fontSize=20;fontColor=#006633;" edge="1" parent="1" source="setHSFp2AwnfgEmVi9Lt-47" target="setHSFp2AwnfgEmVi9Lt-48">
          <mxGeometry width="50" height="50" relative="1" as="geometry">
            <mxPoint x="-150" y="1530" as="sourcePoint" />
            <mxPoint x="-30" y="1350" as="targetPoint" />
          </mxGeometry>
        </mxCell>
        <mxCell id="setHSFp2AwnfgEmVi9Lt-64" value="" style="endArrow=none;dashed=1;html=1;dashPattern=1 3;strokeWidth=1;rounded=0;strokeColor=#000000;fontSize=20;fontColor=#006633;" edge="1" parent="1" source="setHSFp2AwnfgEmVi9Lt-9" target="setHSFp2AwnfgEmVi9Lt-10">
          <mxGeometry width="50" height="50" relative="1" as="geometry">
            <mxPoint x="80" y="1625" as="sourcePoint" />
            <mxPoint x="350" y="1625" as="targetPoint" />
          </mxGeometry>
        </mxCell>
        <mxCell id="setHSFp2AwnfgEmVi9Lt-65" value="" style="endArrow=none;dashed=1;html=1;dashPattern=1 3;strokeWidth=1;rounded=0;strokeColor=#000000;fontSize=20;fontColor=#006633;exitX=1;exitY=0.511;exitDx=0;exitDy=0;exitPerimeter=0;entryX=-0.008;entryY=0.511;entryDx=0;entryDy=0;entryPerimeter=0;" edge="1" parent="1" source="setHSFp2AwnfgEmVi9Lt-11" target="setHSFp2AwnfgEmVi9Lt-12">
          <mxGeometry width="50" height="50" relative="1" as="geometry">
            <mxPoint x="80" y="2175" as="sourcePoint" />
            <mxPoint x="360" y="2175" as="targetPoint" />
          </mxGeometry>
        </mxCell>
        <mxCell id="setHSFp2AwnfgEmVi9Lt-68" value="&lt;font color=&quot;#000000&quot; style=&quot;font-size: 20px;&quot;&gt;&lt;b style=&quot;&quot;&gt;Heavy&lt;/b&gt;&lt;/font&gt;" style="text;html=1;strokeColor=none;fillColor=none;align=center;verticalAlign=middle;whiteSpace=wrap;rounded=0;dashed=1;strokeWidth=3;fontColor=#FF0000;" vertex="1" parent="1">
          <mxGeometry x="-300" y="1460" width="160" height="30" as="geometry" />
        </mxCell>
        <mxCell id="setHSFp2AwnfgEmVi9Lt-69" value="&lt;font color=&quot;#000000&quot; style=&quot;font-size: 20px;&quot;&gt;&lt;b style=&quot;&quot;&gt;Medium&lt;/b&gt;&lt;/font&gt;" style="text;html=1;strokeColor=none;fillColor=none;align=center;verticalAlign=middle;whiteSpace=wrap;rounded=0;dashed=1;strokeWidth=3;fontColor=#FF0000;" vertex="1" parent="1">
          <mxGeometry x="-300" y="1500" width="160" height="30" as="geometry" />
        </mxCell>
        <mxCell id="setHSFp2AwnfgEmVi9Lt-70" value="&lt;font color=&quot;#000000&quot; style=&quot;font-size: 20px;&quot;&gt;&lt;b style=&quot;&quot;&gt;Light&lt;/b&gt;&lt;/font&gt;" style="text;html=1;strokeColor=none;fillColor=none;align=center;verticalAlign=middle;whiteSpace=wrap;rounded=0;dashed=1;strokeWidth=3;fontColor=#FF0000;" vertex="1" parent="1">
          <mxGeometry x="-300" y="1540" width="160" height="30" as="geometry" />
        </mxCell>
        <mxCell id="setHSFp2AwnfgEmVi9Lt-71" value="" style="endArrow=none;dashed=1;html=1;dashPattern=1 3;strokeWidth=1;rounded=0;strokeColor=#000000;fontSize=20;fontColor=#006633;entryX=0;entryY=0.5;entryDx=0;entryDy=0;" edge="1" parent="1" target="setHSFp2AwnfgEmVi9Lt-70">
          <mxGeometry width="50" height="50" relative="1" as="geometry">
            <mxPoint x="-330" y="1555" as="sourcePoint" />
            <mxPoint x="-140" y="1570" as="targetPoint" />
          </mxGeometry>
        </mxCell>
        <mxCell id="setHSFp2AwnfgEmVi9Lt-72" value="&lt;font color=&quot;#000000&quot; style=&quot;font-size: 20px;&quot;&gt;&lt;b style=&quot;&quot;&gt;Traffic volumes&lt;/b&gt;&lt;/font&gt;" style="text;html=1;strokeColor=none;fillColor=none;align=center;verticalAlign=middle;whiteSpace=wrap;rounded=0;dashed=1;strokeWidth=3;fontColor=#FF0000;" vertex="1" parent="1">
          <mxGeometry x="-320" y="1400" width="160" height="30" as="geometry" />
        </mxCell>
        <mxCell id="setHSFp2AwnfgEmVi9Lt-73" value="&lt;font color=&quot;#000000&quot; style=&quot;font-size: 20px;&quot;&gt;&lt;b style=&quot;&quot;&gt;Security zone&lt;/b&gt;&lt;/font&gt;" style="text;html=1;strokeColor=none;fillColor=none;align=center;verticalAlign=middle;whiteSpace=wrap;rounded=0;dashed=1;strokeWidth=3;fontColor=#FF0000;" vertex="1" parent="1">
          <mxGeometry x="-330" y="1160" width="160" height="30" as="geometry" />
        </mxCell>
      </root>
    </mxGraphModel>
  </diagram>
  <diagram id="nsl-QFsypxIE-ERE107H" name="DRsite">
    <mxGraphModel dx="2844" dy="1600" grid="1" gridSize="10" guides="1" tooltips="1" connect="1" arrows="1" fold="1" page="1" pageScale="1" pageWidth="850" pageHeight="1100" math="0" shadow="0">
      <root>
        <mxCell id="0" />
        <mxCell id="1" parent="0" />
        <mxCell id="7HkliVRaNEV4CbWar9N9-1" value="" style="rounded=0;whiteSpace=wrap;html=1;fontFamily=Helvetica;fontSize=20;fontColor=#000000;" parent="1" vertex="1">
          <mxGeometry x="100" y="140" width="360" height="330" as="geometry" />
        </mxCell>
        <mxCell id="K6_nZkGtjGMx1wxgexop-1" value="" style="strokeColor=#666666;html=1;verticalLabelPosition=bottom;labelBackgroundColor=#ffffff;verticalAlign=top;outlineConnect=0;shadow=0;dashed=0;shape=mxgraph.rack.general.server_1;fontFamily=Helvetica;fontSize=13;fontColor=#000000;" parent="1" vertex="1">
          <mxGeometry x="165" y="170" width="60" height="110" as="geometry" />
        </mxCell>
        <mxCell id="K6_nZkGtjGMx1wxgexop-3" value="" style="html=1;verticalLabelPosition=bottom;align=center;labelBackgroundColor=#ffffff;verticalAlign=top;strokeWidth=2;strokeColor=#0080F0;shadow=0;dashed=0;shape=mxgraph.ios7.icons.data;fontFamily=Helvetica;fontSize=20;fontColor=#000000;" parent="1" vertex="1">
          <mxGeometry x="150" y="350" width="90" height="80" as="geometry" />
        </mxCell>
        <mxCell id="K6_nZkGtjGMx1wxgexop-5" value="" style="aspect=fixed;html=1;points=[];align=center;image;fontSize=12;image=img/lib/azure2/databases/Cache_Redis.svg;fontFamily=Helvetica;fontColor=#000000;" parent="1" vertex="1">
          <mxGeometry x="300" y="182.5" width="104.61" height="85" as="geometry" />
        </mxCell>
        <mxCell id="K6_nZkGtjGMx1wxgexop-6" value="" style="verticalLabelPosition=bottom;sketch=0;aspect=fixed;html=1;verticalAlign=top;strokeColor=none;align=center;outlineConnect=0;shape=mxgraph.citrix.file_server;fontFamily=Helvetica;fontSize=20;fontColor=#000000;" parent="1" vertex="1">
          <mxGeometry x="316.81" y="341.5" width="71" height="97" as="geometry" />
        </mxCell>
        <mxCell id="K6_nZkGtjGMx1wxgexop-7" value="" style="rounded=0;whiteSpace=wrap;html=1;fontFamily=Helvetica;fontSize=20;fontColor=#000000;" parent="1" vertex="1">
          <mxGeometry x="920" y="140" width="360" height="330" as="geometry" />
        </mxCell>
        <mxCell id="K6_nZkGtjGMx1wxgexop-8" value="" style="strokeColor=#666666;html=1;verticalLabelPosition=bottom;labelBackgroundColor=#ffffff;verticalAlign=top;outlineConnect=0;shadow=0;dashed=0;shape=mxgraph.rack.general.server_1;fontFamily=Helvetica;fontSize=13;fontColor=#000000;" parent="1" vertex="1">
          <mxGeometry x="985" y="170" width="60" height="110" as="geometry" />
        </mxCell>
        <mxCell id="K6_nZkGtjGMx1wxgexop-9" value="" style="html=1;verticalLabelPosition=bottom;align=center;labelBackgroundColor=#ffffff;verticalAlign=top;strokeWidth=2;strokeColor=#0080F0;shadow=0;dashed=0;shape=mxgraph.ios7.icons.data;fontFamily=Helvetica;fontSize=20;fontColor=#000000;" parent="1" vertex="1">
          <mxGeometry x="970" y="350" width="90" height="80" as="geometry" />
        </mxCell>
        <mxCell id="K6_nZkGtjGMx1wxgexop-10" value="" style="aspect=fixed;html=1;points=[];align=center;image;fontSize=12;image=img/lib/azure2/databases/Cache_Redis.svg;fontFamily=Helvetica;fontColor=#000000;" parent="1" vertex="1">
          <mxGeometry x="1120" y="182.5" width="104.61" height="85" as="geometry" />
        </mxCell>
        <mxCell id="K6_nZkGtjGMx1wxgexop-11" value="" style="verticalLabelPosition=bottom;sketch=0;aspect=fixed;html=1;verticalAlign=top;strokeColor=none;align=center;outlineConnect=0;shape=mxgraph.citrix.file_server;fontFamily=Helvetica;fontSize=20;fontColor=#000000;" parent="1" vertex="1">
          <mxGeometry x="1150" y="333" width="71" height="97" as="geometry" />
        </mxCell>
        <mxCell id="K6_nZkGtjGMx1wxgexop-12" value="&lt;b&gt;High bandwidth connection&lt;/b&gt;" style="endArrow=none;html=1;rounded=0;labelBackgroundColor=default;strokeColor=default;fontFamily=Helvetica;fontSize=20;fontColor=#000000;startSize=0;endSize=0;shape=connector;jumpStyle=gap;entryX=0;entryY=0.5;entryDx=0;entryDy=0;exitX=1;exitY=0.5;exitDx=0;exitDy=0;" parent="1" source="7HkliVRaNEV4CbWar9N9-1" target="K6_nZkGtjGMx1wxgexop-7" edge="1">
          <mxGeometry width="50" height="50" relative="1" as="geometry">
            <mxPoint x="570" y="340" as="sourcePoint" />
            <mxPoint x="620" y="290" as="targetPoint" />
          </mxGeometry>
        </mxCell>
        <mxCell id="K6_nZkGtjGMx1wxgexop-13" value="&lt;font color=&quot;#3333ff&quot;&gt;&lt;b&gt;Datacenter A&lt;/b&gt;&lt;/font&gt;" style="text;html=1;strokeColor=none;fillColor=none;align=center;verticalAlign=middle;whiteSpace=wrap;rounded=0;fontFamily=Helvetica;fontSize=20;fontColor=#000000;" parent="1" vertex="1">
          <mxGeometry x="187.5" y="490" width="185" height="30" as="geometry" />
        </mxCell>
        <mxCell id="K6_nZkGtjGMx1wxgexop-14" value="&lt;span style=&quot;font-family: Helvetica; font-size: 20px; font-style: normal; font-variant-ligatures: normal; font-variant-caps: normal; letter-spacing: normal; orphans: 2; text-align: center; text-indent: 0px; text-transform: none; widows: 2; word-spacing: 0px; -webkit-text-stroke-width: 0px; background-color: rgb(248, 249, 250); text-decoration-thickness: initial; text-decoration-style: initial; text-decoration-color: initial; float: none; display: inline !important;&quot;&gt;&lt;b style=&quot;&quot;&gt;&lt;font color=&quot;#3333ff&quot;&gt;Datacenter B&lt;/font&gt;&lt;/b&gt;&lt;/span&gt;" style="text;whiteSpace=wrap;html=1;fontSize=20;fontFamily=Helvetica;fontColor=#000000;" parent="1" vertex="1">
          <mxGeometry x="1040" y="480" width="150" height="50" as="geometry" />
        </mxCell>
        <mxCell id="K6_nZkGtjGMx1wxgexop-15" value="" style="endArrow=classic;startArrow=classic;html=1;rounded=0;labelBackgroundColor=default;strokeColor=default;fontFamily=Helvetica;fontSize=20;fontColor=#000000;startSize=0;endSize=0;shape=connector;jumpStyle=gap;entryX=0.5;entryY=1;entryDx=0;entryDy=0;exitX=0.5;exitY=1;exitDx=0;exitDy=0;edgeStyle=orthogonalEdgeStyle;" parent="1" source="K6_nZkGtjGMx1wxgexop-13" target="K6_nZkGtjGMx1wxgexop-14" edge="1">
          <mxGeometry width="50" height="50" relative="1" as="geometry">
            <mxPoint x="680" y="330" as="sourcePoint" />
            <mxPoint x="730" y="280" as="targetPoint" />
            <Array as="points">
              <mxPoint x="280" y="610" />
              <mxPoint x="1115" y="610" />
            </Array>
          </mxGeometry>
        </mxCell>
        <mxCell id="K6_nZkGtjGMx1wxgexop-16" value="&lt;b&gt;Data mirroring&lt;/b&gt;" style="edgeLabel;html=1;align=center;verticalAlign=middle;resizable=0;points=[];fontSize=20;fontFamily=Helvetica;fontColor=#000000;" parent="K6_nZkGtjGMx1wxgexop-15" vertex="1" connectable="0">
          <mxGeometry x="0.1184" y="-4" relative="1" as="geometry">
            <mxPoint x="-72" y="-4" as="offset" />
          </mxGeometry>
        </mxCell>
        <mxCell id="K6_nZkGtjGMx1wxgexop-17" value="&lt;font color=&quot;#ff0000&quot;&gt;&lt;b&gt;Recovery&lt;/b&gt;&lt;/font&gt;" style="endArrow=classic;html=1;rounded=0;labelBackgroundColor=default;strokeColor=#FF0000;fontFamily=Helvetica;fontSize=20;fontColor=#000000;startSize=0;endSize=0;shape=connector;jumpStyle=gap;entryX=0.5;entryY=0;entryDx=0;entryDy=0;exitX=0.5;exitY=0;exitDx=0;exitDy=0;edgeStyle=orthogonalEdgeStyle;" parent="1" source="7HkliVRaNEV4CbWar9N9-1" target="K6_nZkGtjGMx1wxgexop-7" edge="1">
          <mxGeometry width="50" height="50" relative="1" as="geometry">
            <mxPoint x="680" y="330" as="sourcePoint" />
            <mxPoint x="730" y="280" as="targetPoint" />
            <Array as="points">
              <mxPoint x="280" y="20" />
              <mxPoint x="1100" y="20" />
            </Array>
          </mxGeometry>
        </mxCell>
        <mxCell id="K6_nZkGtjGMx1wxgexop-20" value="" style="rounded=0;whiteSpace=wrap;html=1;fontFamily=Helvetica;fontSize=20;fontColor=#3333FF;" parent="1" vertex="1">
          <mxGeometry x="680" y="760" width="285" height="190" as="geometry" />
        </mxCell>
        <mxCell id="K6_nZkGtjGMx1wxgexop-21" value="" style="html=1;verticalLabelPosition=bottom;align=center;labelBackgroundColor=#ffffff;verticalAlign=top;strokeWidth=2;strokeColor=#0080F0;shadow=0;dashed=0;shape=mxgraph.ios7.icons.data;fontFamily=Helvetica;fontSize=20;fontColor=#000000;" parent="1" vertex="1">
          <mxGeometry x="720" y="780" width="70" height="70" as="geometry" />
        </mxCell>
        <mxCell id="K6_nZkGtjGMx1wxgexop-22" value="" style="html=1;verticalLabelPosition=bottom;align=center;labelBackgroundColor=#ffffff;verticalAlign=top;strokeWidth=2;strokeColor=#0080F0;shadow=0;dashed=0;shape=mxgraph.ios7.icons.data;fontFamily=Helvetica;fontSize=20;fontColor=#000000;" parent="1" vertex="1">
          <mxGeometry x="860" y="780" width="70" height="70" as="geometry" />
        </mxCell>
        <mxCell id="K6_nZkGtjGMx1wxgexop-23" value="" style="html=1;verticalLabelPosition=bottom;align=center;labelBackgroundColor=#ffffff;verticalAlign=top;strokeWidth=2;strokeColor=#0080F0;shadow=0;dashed=0;shape=mxgraph.ios7.icons.data;fontFamily=Helvetica;fontSize=20;fontColor=#000000;" parent="1" vertex="1">
          <mxGeometry x="720" y="870" width="70" height="70" as="geometry" />
        </mxCell>
        <mxCell id="K6_nZkGtjGMx1wxgexop-24" value="" style="html=1;verticalLabelPosition=bottom;align=center;labelBackgroundColor=#ffffff;verticalAlign=top;strokeWidth=2;strokeColor=#0080F0;shadow=0;dashed=0;shape=mxgraph.ios7.icons.data;fontFamily=Helvetica;fontSize=20;fontColor=#000000;" parent="1" vertex="1">
          <mxGeometry x="860" y="870" width="70" height="70" as="geometry" />
        </mxCell>
        <mxCell id="K6_nZkGtjGMx1wxgexop-25" value="" style="rounded=0;whiteSpace=wrap;html=1;fontFamily=Helvetica;fontSize=20;fontColor=#3333FF;" parent="1" vertex="1">
          <mxGeometry x="680" y="1050" width="285" height="190" as="geometry" />
        </mxCell>
        <mxCell id="K6_nZkGtjGMx1wxgexop-26" value="" style="html=1;verticalLabelPosition=bottom;align=center;labelBackgroundColor=#ffffff;verticalAlign=top;strokeWidth=2;strokeColor=#0080F0;shadow=0;dashed=0;shape=mxgraph.ios7.icons.data;fontFamily=Helvetica;fontSize=20;fontColor=#000000;" parent="1" vertex="1">
          <mxGeometry x="720" y="1070" width="70" height="70" as="geometry" />
        </mxCell>
        <mxCell id="K6_nZkGtjGMx1wxgexop-27" value="" style="html=1;verticalLabelPosition=bottom;align=center;labelBackgroundColor=#ffffff;verticalAlign=top;strokeWidth=2;strokeColor=#0080F0;shadow=0;dashed=0;shape=mxgraph.ios7.icons.data;fontFamily=Helvetica;fontSize=20;fontColor=#000000;" parent="1" vertex="1">
          <mxGeometry x="860" y="1070" width="70" height="70" as="geometry" />
        </mxCell>
        <mxCell id="K6_nZkGtjGMx1wxgexop-28" value="" style="html=1;verticalLabelPosition=bottom;align=center;labelBackgroundColor=#ffffff;verticalAlign=top;strokeWidth=2;strokeColor=#0080F0;shadow=0;dashed=0;shape=mxgraph.ios7.icons.data;fontFamily=Helvetica;fontSize=20;fontColor=#000000;" parent="1" vertex="1">
          <mxGeometry x="720" y="1160" width="70" height="70" as="geometry" />
        </mxCell>
        <mxCell id="K6_nZkGtjGMx1wxgexop-29" value="" style="html=1;verticalLabelPosition=bottom;align=center;labelBackgroundColor=#ffffff;verticalAlign=top;strokeWidth=2;strokeColor=#0080F0;shadow=0;dashed=0;shape=mxgraph.ios7.icons.data;fontFamily=Helvetica;fontSize=20;fontColor=#000000;" parent="1" vertex="1">
          <mxGeometry x="860" y="1160" width="70" height="70" as="geometry" />
        </mxCell>
        <mxCell id="K6_nZkGtjGMx1wxgexop-33" style="edgeStyle=orthogonalEdgeStyle;shape=connector;rounded=0;jumpStyle=gap;orthogonalLoop=1;jettySize=auto;html=1;entryX=0;entryY=0.5;entryDx=0;entryDy=0;labelBackgroundColor=default;strokeColor=default;fontFamily=Helvetica;fontSize=20;fontColor=#3333FF;endArrow=classic;startSize=0;endSize=0;" parent="1" source="K6_nZkGtjGMx1wxgexop-31" target="K6_nZkGtjGMx1wxgexop-20" edge="1">
          <mxGeometry relative="1" as="geometry" />
        </mxCell>
        <mxCell id="K6_nZkGtjGMx1wxgexop-31" value="" style="points=[[0.35,0,0],[0.98,0.51,0],[1,0.71,0],[0.67,1,0],[0,0.795,0],[0,0.65,0]];verticalLabelPosition=bottom;sketch=0;html=1;verticalAlign=top;aspect=fixed;align=center;pointerEvents=1;shape=mxgraph.cisco19.user;fillColor=#005073;strokeColor=none;fontFamily=Helvetica;fontSize=20;fontColor=#3333FF;" parent="1" vertex="1">
          <mxGeometry x="350" y="805" width="100" height="100" as="geometry" />
        </mxCell>
        <mxCell id="K6_nZkGtjGMx1wxgexop-34" style="edgeStyle=orthogonalEdgeStyle;shape=connector;rounded=0;jumpStyle=gap;orthogonalLoop=1;jettySize=auto;html=1;entryX=0;entryY=0.5;entryDx=0;entryDy=0;labelBackgroundColor=default;strokeColor=default;fontFamily=Helvetica;fontSize=20;fontColor=#3333FF;endArrow=classic;startSize=0;endSize=0;" parent="1" source="K6_nZkGtjGMx1wxgexop-32" target="K6_nZkGtjGMx1wxgexop-25" edge="1">
          <mxGeometry relative="1" as="geometry" />
        </mxCell>
        <mxCell id="K6_nZkGtjGMx1wxgexop-32" value="" style="points=[[0.35,0,0],[0.98,0.51,0],[1,0.71,0],[0.67,1,0],[0,0.795,0],[0,0.65,0]];verticalLabelPosition=bottom;sketch=0;html=1;verticalAlign=top;aspect=fixed;align=center;pointerEvents=1;shape=mxgraph.cisco19.user;fillColor=#005073;strokeColor=none;fontFamily=Helvetica;fontSize=20;fontColor=#3333FF;" parent="1" vertex="1">
          <mxGeometry x="350" y="1095" width="100" height="100" as="geometry" />
        </mxCell>
        <mxCell id="K6_nZkGtjGMx1wxgexop-38" value="&lt;b style=&quot;&quot;&gt;&lt;font color=&quot;#006633&quot;&gt;Sync&lt;/font&gt;&lt;/b&gt;" style="endArrow=classic;startArrow=classic;html=1;rounded=0;labelBackgroundColor=default;strokeColor=default;fontFamily=Helvetica;fontSize=20;fontColor=#3333FF;startSize=0;endSize=0;shape=connector;jumpStyle=gap;entryX=1;entryY=0.5;entryDx=0;entryDy=0;exitX=1;exitY=0.5;exitDx=0;exitDy=0;edgeStyle=orthogonalEdgeStyle;dashed=1;" parent="1" source="K6_nZkGtjGMx1wxgexop-25" target="K6_nZkGtjGMx1wxgexop-20" edge="1">
          <mxGeometry width="50" height="50" relative="1" as="geometry">
            <mxPoint x="620" y="1040" as="sourcePoint" />
            <mxPoint x="670" y="990" as="targetPoint" />
            <Array as="points">
              <mxPoint x="1110" y="1145" />
              <mxPoint x="1110" y="855" />
            </Array>
          </mxGeometry>
        </mxCell>
        <mxCell id="K6_nZkGtjGMx1wxgexop-39" value="&lt;b&gt;Client&lt;/b&gt;" style="text;html=1;align=center;verticalAlign=middle;resizable=0;points=[];autosize=1;strokeColor=none;fillColor=none;fontSize=20;fontFamily=Helvetica;fontColor=#000000;" parent="1" vertex="1">
          <mxGeometry x="360" y="920" width="80" height="40" as="geometry" />
        </mxCell>
        <mxCell id="K6_nZkGtjGMx1wxgexop-40" value="&lt;b&gt;Client&lt;/b&gt;" style="text;html=1;align=center;verticalAlign=middle;resizable=0;points=[];autosize=1;strokeColor=none;fillColor=none;fontSize=20;fontFamily=Helvetica;fontColor=#000000;" parent="1" vertex="1">
          <mxGeometry x="360" y="1200" width="80" height="40" as="geometry" />
        </mxCell>
        <mxCell id="K6_nZkGtjGMx1wxgexop-41" value="&lt;b&gt;Database zone A&lt;/b&gt;" style="text;html=1;align=center;verticalAlign=middle;resizable=0;points=[];autosize=1;strokeColor=none;fillColor=none;fontSize=20;fontFamily=Helvetica;fontColor=#000000;" parent="1" vertex="1">
          <mxGeometry x="732.5" y="960" width="180" height="40" as="geometry" />
        </mxCell>
        <mxCell id="K6_nZkGtjGMx1wxgexop-42" value="&lt;b&gt;Database zone B (DR site)&lt;/b&gt;" style="text;html=1;align=center;verticalAlign=middle;resizable=0;points=[];autosize=1;strokeColor=none;fillColor=none;fontSize=20;fontFamily=Helvetica;fontColor=#000000;" parent="1" vertex="1">
          <mxGeometry x="687.5" y="1260" width="270" height="40" as="geometry" />
        </mxCell>
        <mxCell id="K6_nZkGtjGMx1wxgexop-43" value="&lt;font style=&quot;&quot; color=&quot;#ff0000&quot;&gt;Disaster&lt;/font&gt;" style="curved=1;endArrow=classic;html=1;rounded=0;labelBackgroundColor=default;strokeColor=#FF0000;fontFamily=Helvetica;fontSize=20;fontColor=#000000;startSize=0;endSize=0;shape=connector;jumpStyle=gap;entryX=0;entryY=0.25;entryDx=0;entryDy=0;exitX=1;exitY=0.71;exitDx=0;exitDy=0;exitPerimeter=0;" parent="1" source="K6_nZkGtjGMx1wxgexop-31" target="K6_nZkGtjGMx1wxgexop-25" edge="1">
          <mxGeometry width="50" height="50" relative="1" as="geometry">
            <mxPoint x="620" y="1000" as="sourcePoint" />
            <mxPoint x="670" y="950" as="targetPoint" />
            <Array as="points">
              <mxPoint x="750" y="950" />
              <mxPoint x="390" y="1010" />
            </Array>
          </mxGeometry>
        </mxCell>
        <mxCell id="K6_nZkGtjGMx1wxgexop-64" value="" style="html=1;verticalLabelPosition=bottom;align=center;labelBackgroundColor=#ffffff;verticalAlign=top;strokeWidth=2;strokeColor=#0080F0;shadow=0;dashed=0;shape=mxgraph.ios7.icons.data;fontFamily=Helvetica;fontSize=20;fontColor=#000000;" parent="1" vertex="1">
          <mxGeometry x="1250" y="1480" width="130" height="130" as="geometry" />
        </mxCell>
      </root>
    </mxGraphModel>
  </diagram>
  <diagram id="IgQ5dza0CE7qFax0PHjX" name="Redis">
    <mxGraphModel dx="2844" dy="1600" grid="1" gridSize="10" guides="1" tooltips="1" connect="1" arrows="1" fold="1" page="1" pageScale="1" pageWidth="850" pageHeight="1100" math="0" shadow="0">
      <root>
        <mxCell id="0" />
        <mxCell id="1" parent="0" />
        <mxCell id="o3whKPVnEd0K7YW6JsQQ-43" value="" style="rounded=0;whiteSpace=wrap;html=1;fontFamily=Helvetica;fontSize=20;fontColor=#000000;strokeColor=#FF0000;" parent="1" vertex="1">
          <mxGeometry x="920" y="700" width="750" height="230" as="geometry" />
        </mxCell>
        <mxCell id="zWVPCHZ0-kJsiqMoQU1A-1" value="" style="sketch=0;aspect=fixed;html=1;points=[];align=center;image;fontSize=12;image=img/lib/mscae/Cache_Redis_Product.svg;fontFamily=Helvetica;fontColor=#006633;" parent="1" vertex="1">
          <mxGeometry x="407.38" y="275" width="95.24" height="80" as="geometry" />
        </mxCell>
        <mxCell id="zWVPCHZ0-kJsiqMoQU1A-2" value="" style="shape=image;html=1;verticalAlign=top;verticalLabelPosition=bottom;labelBackgroundColor=#ffffff;imageAspect=0;aspect=fixed;image=https://cdn1.iconfinder.com/data/icons/nuvola2/128x128/apps/kuser.png;fontFamily=Helvetica;fontSize=20;fontColor=#006633;" parent="1" vertex="1">
          <mxGeometry x="140" y="265" width="90" height="90" as="geometry" />
        </mxCell>
        <mxCell id="zWVPCHZ0-kJsiqMoQU1A-4" value="" style="html=1;verticalLabelPosition=bottom;align=center;labelBackgroundColor=#ffffff;verticalAlign=top;strokeWidth=2;strokeColor=#0080F0;shadow=0;dashed=0;shape=mxgraph.ios7.icons.data;fontFamily=Helvetica;fontSize=20;fontColor=#006633;" parent="1" vertex="1">
          <mxGeometry x="680" y="255" width="120" height="110" as="geometry" />
        </mxCell>
        <mxCell id="zWVPCHZ0-kJsiqMoQU1A-5" value="&lt;b&gt;Server&lt;/b&gt;" style="text;html=1;strokeColor=none;fillColor=none;align=center;verticalAlign=middle;whiteSpace=wrap;rounded=0;fontFamily=Helvetica;fontSize=20;fontColor=#000000;" parent="1" vertex="1">
          <mxGeometry x="425" y="380" width="60" height="30" as="geometry" />
        </mxCell>
        <mxCell id="zWVPCHZ0-kJsiqMoQU1A-6" value="&lt;b&gt;Database&lt;/b&gt;" style="text;html=1;strokeColor=none;fillColor=none;align=center;verticalAlign=middle;whiteSpace=wrap;rounded=0;fontFamily=Helvetica;fontSize=20;fontColor=#000000;" parent="1" vertex="1">
          <mxGeometry x="710" y="380" width="60" height="30" as="geometry" />
        </mxCell>
        <mxCell id="zWVPCHZ0-kJsiqMoQU1A-7" value="&lt;b&gt;Users&lt;/b&gt;" style="text;html=1;strokeColor=none;fillColor=none;align=center;verticalAlign=middle;whiteSpace=wrap;rounded=0;fontFamily=Helvetica;fontSize=20;fontColor=#000000;" parent="1" vertex="1">
          <mxGeometry x="150" y="380" width="60" height="30" as="geometry" />
        </mxCell>
        <mxCell id="o3whKPVnEd0K7YW6JsQQ-1" style="edgeStyle=orthogonalEdgeStyle;shape=connector;rounded=0;jumpStyle=gap;orthogonalLoop=1;jettySize=auto;html=1;entryX=0;entryY=0.5;entryDx=0;entryDy=0;labelBackgroundColor=default;strokeColor=default;fontFamily=Helvetica;fontSize=20;fontColor=#3333FF;endArrow=classic;startSize=0;endSize=0;exitX=1.02;exitY=0.389;exitDx=0;exitDy=0;exitPerimeter=0;" parent="1" source="zWVPCHZ0-kJsiqMoQU1A-2" edge="1">
          <mxGeometry relative="1" as="geometry">
            <mxPoint x="177.38" y="300" as="sourcePoint" />
            <mxPoint x="407.38" y="300" as="targetPoint" />
          </mxGeometry>
        </mxCell>
        <mxCell id="o3whKPVnEd0K7YW6JsQQ-2" style="edgeStyle=orthogonalEdgeStyle;shape=connector;rounded=0;jumpStyle=gap;orthogonalLoop=1;jettySize=auto;html=1;labelBackgroundColor=default;strokeColor=default;fontFamily=Helvetica;fontSize=20;fontColor=#3333FF;endArrow=classic;startSize=0;endSize=0;entryX=1;entryY=0.722;entryDx=0;entryDy=0;entryPerimeter=0;" parent="1" source="zWVPCHZ0-kJsiqMoQU1A-1" target="zWVPCHZ0-kJsiqMoQU1A-2" edge="1">
          <mxGeometry relative="1" as="geometry">
            <mxPoint x="320" y="310" as="sourcePoint" />
            <mxPoint x="240" y="330" as="targetPoint" />
            <Array as="points">
              <mxPoint x="340" y="330" />
              <mxPoint x="340" y="330" />
            </Array>
          </mxGeometry>
        </mxCell>
        <mxCell id="o3whKPVnEd0K7YW6JsQQ-4" value="" style="endArrow=classic;html=1;rounded=0;labelBackgroundColor=default;strokeColor=default;fontFamily=Helvetica;fontSize=20;fontColor=#000000;startSize=0;endSize=0;shape=connector;jumpStyle=gap;entryX=0;entryY=0.409;entryDx=0;entryDy=0;entryPerimeter=0;" parent="1" target="zWVPCHZ0-kJsiqMoQU1A-4" edge="1">
          <mxGeometry width="50" height="50" relative="1" as="geometry">
            <mxPoint x="510" y="300" as="sourcePoint" />
            <mxPoint x="300" y="290" as="targetPoint" />
          </mxGeometry>
        </mxCell>
        <mxCell id="o3whKPVnEd0K7YW6JsQQ-5" value="" style="endArrow=classic;html=1;rounded=0;labelBackgroundColor=default;strokeColor=default;fontFamily=Helvetica;fontSize=20;fontColor=#000000;startSize=0;endSize=0;shape=connector;jumpStyle=gap;exitX=-0.02;exitY=0.682;exitDx=0;exitDy=0;exitPerimeter=0;" parent="1" source="zWVPCHZ0-kJsiqMoQU1A-4" edge="1">
          <mxGeometry width="50" height="50" relative="1" as="geometry">
            <mxPoint x="520" y="309.9999999999999" as="sourcePoint" />
            <mxPoint x="510" y="330" as="targetPoint" />
          </mxGeometry>
        </mxCell>
        <mxCell id="o3whKPVnEd0K7YW6JsQQ-6" value="&lt;font style=&quot;font-size: 20px; font-weight: normal;&quot;&gt;Request&lt;/font&gt;" style="text;strokeColor=none;fillColor=none;html=1;fontSize=24;fontStyle=1;verticalAlign=middle;align=center;fontFamily=Helvetica;fontColor=#000000;" parent="1" vertex="1">
          <mxGeometry x="270" y="250" width="100" height="40" as="geometry" />
        </mxCell>
        <mxCell id="o3whKPVnEd0K7YW6JsQQ-7" value="&lt;font style=&quot;font-size: 20px; font-weight: normal;&quot;&gt;Response&lt;/font&gt;" style="text;strokeColor=none;fillColor=none;html=1;fontSize=24;fontStyle=1;verticalAlign=middle;align=center;fontFamily=Helvetica;fontColor=#000000;" parent="1" vertex="1">
          <mxGeometry x="270" y="340" width="100" height="40" as="geometry" />
        </mxCell>
        <mxCell id="o3whKPVnEd0K7YW6JsQQ-8" value="&lt;font style=&quot;font-size: 20px; font-weight: normal;&quot;&gt;Not in cache?&lt;br&gt;Query&lt;/font&gt;" style="text;strokeColor=none;fillColor=none;html=1;fontSize=24;fontStyle=1;verticalAlign=middle;align=center;fontFamily=Helvetica;fontColor=#000000;" parent="1" vertex="1">
          <mxGeometry x="550" y="250" width="100" height="40" as="geometry" />
        </mxCell>
        <mxCell id="o3whKPVnEd0K7YW6JsQQ-9" value="&lt;span style=&quot;font-size: 20px; font-weight: 400;&quot;&gt;Db rep, cache&lt;/span&gt;" style="text;strokeColor=none;fillColor=none;html=1;fontSize=24;fontStyle=1;verticalAlign=middle;align=center;fontFamily=Helvetica;fontColor=#000000;" parent="1" vertex="1">
          <mxGeometry x="550" y="340" width="100" height="40" as="geometry" />
        </mxCell>
        <mxCell id="o3whKPVnEd0K7YW6JsQQ-11" value="" style="html=1;verticalLabelPosition=bottom;align=center;labelBackgroundColor=#ffffff;verticalAlign=top;strokeWidth=2;strokeColor=#0080F0;shadow=0;dashed=0;shape=mxgraph.ios7.icons.data;fontFamily=Helvetica;fontSize=20;fontColor=#006633;" parent="1" vertex="1">
          <mxGeometry x="160" y="740" width="120" height="110" as="geometry" />
        </mxCell>
        <mxCell id="o3whKPVnEd0K7YW6JsQQ-12" value="" style="html=1;verticalLabelPosition=bottom;align=center;labelBackgroundColor=#ffffff;verticalAlign=top;strokeWidth=2;strokeColor=#0080F0;shadow=0;dashed=0;shape=mxgraph.ios7.icons.data;fontFamily=Helvetica;fontSize=20;fontColor=#006633;" parent="1" vertex="1">
          <mxGeometry x="350" y="740" width="120" height="110" as="geometry" />
        </mxCell>
        <mxCell id="o3whKPVnEd0K7YW6JsQQ-13" value="" style="html=1;verticalLabelPosition=bottom;align=center;labelBackgroundColor=#ffffff;verticalAlign=top;strokeWidth=2;strokeColor=#0080F0;shadow=0;dashed=0;shape=mxgraph.ios7.icons.data;fontFamily=Helvetica;fontSize=20;fontColor=#006633;" parent="1" vertex="1">
          <mxGeometry x="670" y="740" width="120" height="110" as="geometry" />
        </mxCell>
        <mxCell id="o3whKPVnEd0K7YW6JsQQ-14" value="..." style="text;html=1;strokeColor=none;fillColor=none;align=center;verticalAlign=middle;whiteSpace=wrap;rounded=0;fontFamily=Helvetica;fontSize=20;fontColor=#000000;" parent="1" vertex="1">
          <mxGeometry x="540" y="810" width="60" height="30" as="geometry" />
        </mxCell>
        <mxCell id="o3whKPVnEd0K7YW6JsQQ-17" value="Microservice 1" style="rounded=1;whiteSpace=wrap;html=1;fontFamily=Helvetica;fontSize=20;fontColor=#000000;" parent="1" vertex="1">
          <mxGeometry x="140" y="520" width="150" height="40" as="geometry" />
        </mxCell>
        <mxCell id="o3whKPVnEd0K7YW6JsQQ-18" value="Microservice 2" style="rounded=1;whiteSpace=wrap;html=1;fontFamily=Helvetica;fontSize=20;fontColor=#000000;" parent="1" vertex="1">
          <mxGeometry x="350" y="520" width="150" height="40" as="geometry" />
        </mxCell>
        <mxCell id="o3whKPVnEd0K7YW6JsQQ-19" value="Microservice n" style="rounded=1;whiteSpace=wrap;html=1;fontFamily=Helvetica;fontSize=20;fontColor=#000000;" parent="1" vertex="1">
          <mxGeometry x="655" y="520" width="150" height="40" as="geometry" />
        </mxCell>
        <mxCell id="o3whKPVnEd0K7YW6JsQQ-20" value="&lt;b&gt;DB 2&lt;/b&gt;" style="text;html=1;strokeColor=none;fillColor=none;align=center;verticalAlign=middle;whiteSpace=wrap;rounded=0;fontFamily=Helvetica;fontSize=20;fontColor=#000000;" parent="1" vertex="1">
          <mxGeometry x="380" y="880" width="60" height="30" as="geometry" />
        </mxCell>
        <mxCell id="o3whKPVnEd0K7YW6JsQQ-21" value="&lt;b&gt;DB 1&lt;/b&gt;" style="text;html=1;strokeColor=none;fillColor=none;align=center;verticalAlign=middle;whiteSpace=wrap;rounded=0;fontFamily=Helvetica;fontSize=20;fontColor=#000000;" parent="1" vertex="1">
          <mxGeometry x="190" y="880" width="60" height="30" as="geometry" />
        </mxCell>
        <mxCell id="o3whKPVnEd0K7YW6JsQQ-22" value="&lt;b&gt;DB n&lt;/b&gt;" style="text;html=1;strokeColor=none;fillColor=none;align=center;verticalAlign=middle;whiteSpace=wrap;rounded=0;fontFamily=Helvetica;fontSize=20;fontColor=#000000;" parent="1" vertex="1">
          <mxGeometry x="700" y="880" width="60" height="30" as="geometry" />
        </mxCell>
        <mxCell id="o3whKPVnEd0K7YW6JsQQ-23" value="" style="endArrow=classic;html=1;rounded=0;labelBackgroundColor=default;strokeColor=default;fontFamily=Helvetica;fontSize=20;fontColor=#000000;startSize=0;endSize=0;shape=connector;jumpStyle=gap;entryX=0.458;entryY=-0.018;entryDx=0;entryDy=0;entryPerimeter=0;exitX=0.5;exitY=1;exitDx=0;exitDy=0;" parent="1" source="o3whKPVnEd0K7YW6JsQQ-17" target="o3whKPVnEd0K7YW6JsQQ-11" edge="1">
          <mxGeometry width="50" height="50" relative="1" as="geometry">
            <mxPoint x="470" y="920" as="sourcePoint" />
            <mxPoint x="520" y="870" as="targetPoint" />
          </mxGeometry>
        </mxCell>
        <mxCell id="o3whKPVnEd0K7YW6JsQQ-24" value="" style="endArrow=classic;html=1;rounded=0;labelBackgroundColor=default;strokeColor=default;fontFamily=Helvetica;fontSize=20;fontColor=#000000;startSize=0;endSize=0;shape=connector;jumpStyle=gap;exitX=0.5;exitY=1;exitDx=0;exitDy=0;" parent="1" source="o3whKPVnEd0K7YW6JsQQ-17" edge="1">
          <mxGeometry width="50" height="50" relative="1" as="geometry">
            <mxPoint x="390" y="690" as="sourcePoint" />
            <mxPoint x="410" y="730" as="targetPoint" />
          </mxGeometry>
        </mxCell>
        <mxCell id="o3whKPVnEd0K7YW6JsQQ-25" value="" style="endArrow=classic;html=1;rounded=0;labelBackgroundColor=default;strokeColor=default;fontFamily=Helvetica;fontSize=20;fontColor=#000000;startSize=0;endSize=0;shape=connector;jumpStyle=gap;exitX=0.5;exitY=1;exitDx=0;exitDy=0;" parent="1" source="o3whKPVnEd0K7YW6JsQQ-18" edge="1">
          <mxGeometry width="50" height="50" relative="1" as="geometry">
            <mxPoint x="390" y="690" as="sourcePoint" />
            <mxPoint x="220" y="740" as="targetPoint" />
          </mxGeometry>
        </mxCell>
        <mxCell id="o3whKPVnEd0K7YW6JsQQ-26" value="" style="endArrow=classic;html=1;rounded=0;labelBackgroundColor=default;strokeColor=default;fontFamily=Helvetica;fontSize=20;fontColor=#000000;startSize=0;endSize=0;shape=connector;jumpStyle=gap;exitX=0.5;exitY=1;exitDx=0;exitDy=0;" parent="1" source="o3whKPVnEd0K7YW6JsQQ-19" edge="1">
          <mxGeometry width="50" height="50" relative="1" as="geometry">
            <mxPoint x="390" y="690" as="sourcePoint" />
            <mxPoint x="410" y="730" as="targetPoint" />
          </mxGeometry>
        </mxCell>
        <mxCell id="o3whKPVnEd0K7YW6JsQQ-27" value="" style="endArrow=classic;html=1;rounded=0;labelBackgroundColor=default;strokeColor=default;fontFamily=Helvetica;fontSize=20;fontColor=#000000;startSize=0;endSize=0;shape=connector;jumpStyle=gap;entryX=0.489;entryY=-0.021;entryDx=0;entryDy=0;entryPerimeter=0;exitX=0.5;exitY=1;exitDx=0;exitDy=0;" parent="1" source="o3whKPVnEd0K7YW6JsQQ-18" target="o3whKPVnEd0K7YW6JsQQ-13" edge="1">
          <mxGeometry width="50" height="50" relative="1" as="geometry">
            <mxPoint x="390" y="690" as="sourcePoint" />
            <mxPoint x="440" y="640" as="targetPoint" />
          </mxGeometry>
        </mxCell>
        <mxCell id="o3whKPVnEd0K7YW6JsQQ-28" value="" style="html=1;verticalLabelPosition=bottom;align=center;labelBackgroundColor=#ffffff;verticalAlign=top;strokeWidth=2;strokeColor=#0080F0;shadow=0;dashed=0;shape=mxgraph.ios7.icons.data;fontFamily=Helvetica;fontSize=20;fontColor=#006633;" parent="1" vertex="1">
          <mxGeometry x="990" y="740" width="120" height="110" as="geometry" />
        </mxCell>
        <mxCell id="o3whKPVnEd0K7YW6JsQQ-29" value="" style="html=1;verticalLabelPosition=bottom;align=center;labelBackgroundColor=#ffffff;verticalAlign=top;strokeWidth=2;strokeColor=#0080F0;shadow=0;dashed=0;shape=mxgraph.ios7.icons.data;fontFamily=Helvetica;fontSize=20;fontColor=#006633;" parent="1" vertex="1">
          <mxGeometry x="1180" y="740" width="120" height="110" as="geometry" />
        </mxCell>
        <mxCell id="o3whKPVnEd0K7YW6JsQQ-30" value="" style="html=1;verticalLabelPosition=bottom;align=center;labelBackgroundColor=#ffffff;verticalAlign=top;strokeWidth=2;strokeColor=#0080F0;shadow=0;dashed=0;shape=mxgraph.ios7.icons.data;fontFamily=Helvetica;fontSize=20;fontColor=#006633;" parent="1" vertex="1">
          <mxGeometry x="1500" y="740" width="120" height="110" as="geometry" />
        </mxCell>
        <mxCell id="o3whKPVnEd0K7YW6JsQQ-31" value="..." style="text;html=1;strokeColor=none;fillColor=none;align=center;verticalAlign=middle;whiteSpace=wrap;rounded=0;fontFamily=Helvetica;fontSize=20;fontColor=#000000;" parent="1" vertex="1">
          <mxGeometry x="1370" y="810" width="60" height="30" as="geometry" />
        </mxCell>
        <mxCell id="o3whKPVnEd0K7YW6JsQQ-32" value="Microservice 1" style="rounded=1;whiteSpace=wrap;html=1;fontFamily=Helvetica;fontSize=20;fontColor=#000000;" parent="1" vertex="1">
          <mxGeometry x="970" y="520" width="150" height="40" as="geometry" />
        </mxCell>
        <mxCell id="o3whKPVnEd0K7YW6JsQQ-33" value="Microservice 2" style="rounded=1;whiteSpace=wrap;html=1;fontFamily=Helvetica;fontSize=20;fontColor=#000000;" parent="1" vertex="1">
          <mxGeometry x="1180" y="520" width="150" height="40" as="geometry" />
        </mxCell>
        <mxCell id="o3whKPVnEd0K7YW6JsQQ-34" value="Microservice n" style="rounded=1;whiteSpace=wrap;html=1;fontFamily=Helvetica;fontSize=20;fontColor=#000000;" parent="1" vertex="1">
          <mxGeometry x="1485" y="520" width="150" height="40" as="geometry" />
        </mxCell>
        <mxCell id="o3whKPVnEd0K7YW6JsQQ-35" value="&lt;b&gt;DB 2&lt;/b&gt;" style="text;html=1;strokeColor=none;fillColor=none;align=center;verticalAlign=middle;whiteSpace=wrap;rounded=0;fontFamily=Helvetica;fontSize=20;fontColor=#000000;" parent="1" vertex="1">
          <mxGeometry x="1210" y="880" width="60" height="30" as="geometry" />
        </mxCell>
        <mxCell id="o3whKPVnEd0K7YW6JsQQ-36" value="&lt;b&gt;DB 1&lt;/b&gt;" style="text;html=1;strokeColor=none;fillColor=none;align=center;verticalAlign=middle;whiteSpace=wrap;rounded=0;fontFamily=Helvetica;fontSize=20;fontColor=#000000;" parent="1" vertex="1">
          <mxGeometry x="1020" y="880" width="60" height="30" as="geometry" />
        </mxCell>
        <mxCell id="o3whKPVnEd0K7YW6JsQQ-37" value="&lt;b&gt;DB n&lt;/b&gt;" style="text;html=1;strokeColor=none;fillColor=none;align=center;verticalAlign=middle;whiteSpace=wrap;rounded=0;fontFamily=Helvetica;fontSize=20;fontColor=#000000;" parent="1" vertex="1">
          <mxGeometry x="1530" y="880" width="60" height="30" as="geometry" />
        </mxCell>
        <mxCell id="o3whKPVnEd0K7YW6JsQQ-38" value="" style="endArrow=classic;html=1;rounded=0;labelBackgroundColor=default;strokeColor=default;fontFamily=Helvetica;fontSize=20;fontColor=#000000;startSize=0;endSize=0;shape=connector;jumpStyle=gap;entryX=0.458;entryY=-0.018;entryDx=0;entryDy=0;entryPerimeter=0;exitX=0.5;exitY=1;exitDx=0;exitDy=0;" parent="1" source="o3whKPVnEd0K7YW6JsQQ-32" target="o3whKPVnEd0K7YW6JsQQ-28" edge="1">
          <mxGeometry width="50" height="50" relative="1" as="geometry">
            <mxPoint x="1300" y="920" as="sourcePoint" />
            <mxPoint x="1350" y="870" as="targetPoint" />
          </mxGeometry>
        </mxCell>
        <mxCell id="o3whKPVnEd0K7YW6JsQQ-39" value="" style="endArrow=classic;html=1;rounded=0;labelBackgroundColor=default;strokeColor=default;fontFamily=Helvetica;fontSize=20;fontColor=#000000;startSize=0;endSize=0;shape=connector;jumpStyle=gap;exitX=0.5;exitY=1;exitDx=0;exitDy=0;" parent="1" source="o3whKPVnEd0K7YW6JsQQ-32" edge="1">
          <mxGeometry width="50" height="50" relative="1" as="geometry">
            <mxPoint x="1220" y="690" as="sourcePoint" />
            <mxPoint x="1240" y="730" as="targetPoint" />
          </mxGeometry>
        </mxCell>
        <mxCell id="o3whKPVnEd0K7YW6JsQQ-40" value="" style="endArrow=classic;html=1;rounded=0;labelBackgroundColor=default;strokeColor=default;fontFamily=Helvetica;fontSize=20;fontColor=#000000;startSize=0;endSize=0;shape=connector;jumpStyle=gap;exitX=0.5;exitY=1;exitDx=0;exitDy=0;" parent="1" source="o3whKPVnEd0K7YW6JsQQ-33" edge="1">
          <mxGeometry width="50" height="50" relative="1" as="geometry">
            <mxPoint x="1220" y="690" as="sourcePoint" />
            <mxPoint x="1050" y="740" as="targetPoint" />
          </mxGeometry>
        </mxCell>
        <mxCell id="o3whKPVnEd0K7YW6JsQQ-41" value="" style="endArrow=classic;html=1;rounded=0;labelBackgroundColor=default;strokeColor=default;fontFamily=Helvetica;fontSize=20;fontColor=#000000;startSize=0;endSize=0;shape=connector;jumpStyle=gap;exitX=0.5;exitY=1;exitDx=0;exitDy=0;" parent="1" source="o3whKPVnEd0K7YW6JsQQ-34" edge="1">
          <mxGeometry width="50" height="50" relative="1" as="geometry">
            <mxPoint x="1220" y="690" as="sourcePoint" />
            <mxPoint x="1240" y="730" as="targetPoint" />
          </mxGeometry>
        </mxCell>
        <mxCell id="o3whKPVnEd0K7YW6JsQQ-42" value="" style="endArrow=classic;html=1;rounded=0;labelBackgroundColor=default;strokeColor=default;fontFamily=Helvetica;fontSize=20;fontColor=#000000;startSize=0;endSize=0;shape=connector;jumpStyle=gap;entryX=0.489;entryY=-0.021;entryDx=0;entryDy=0;entryPerimeter=0;exitX=0.5;exitY=1;exitDx=0;exitDy=0;" parent="1" source="o3whKPVnEd0K7YW6JsQQ-33" target="o3whKPVnEd0K7YW6JsQQ-30" edge="1">
          <mxGeometry width="50" height="50" relative="1" as="geometry">
            <mxPoint x="1220" y="690" as="sourcePoint" />
            <mxPoint x="1270" y="640" as="targetPoint" />
          </mxGeometry>
        </mxCell>
        <mxCell id="o3whKPVnEd0K7YW6JsQQ-44" value="&lt;b&gt;Mutil-Model Database&lt;/b&gt;" style="text;html=1;strokeColor=none;fillColor=none;align=center;verticalAlign=middle;whiteSpace=wrap;rounded=0;fontFamily=Helvetica;fontSize=20;fontColor=#000000;" parent="1" vertex="1">
          <mxGeometry x="1130" y="950" width="340" height="30" as="geometry" />
        </mxCell>
        <mxCell id="o3whKPVnEd0K7YW6JsQQ-45" value="" style="sketch=0;aspect=fixed;html=1;points=[];align=center;image;fontSize=12;image=img/lib/mscae/Cache_Redis_Product.svg;fontFamily=Helvetica;fontColor=#006633;" parent="1" vertex="1">
          <mxGeometry x="1410" y="940" width="95.24" height="80" as="geometry" />
        </mxCell>
      </root>
    </mxGraphModel>
  </diagram>
</mxfile>
